<svg xmlns="http://www.w3.org/2000/svg" xmlns:xlink="http://www.w3.org/1999/xlink" width="256" height="256" viewBox="0 0 256 256"><defs><clipPath id="a"><rect width="256" height="256" transform="translate(7162 4514)" fill="#fff" stroke="#707070" stroke-width="1"/></clipPath><clipPath id="b"><rect width="1057.57" height="127.018" transform="translate(0 0)" fill="none"/></clipPath></defs><g transform="translate(-7162 -4514)" clip-path="url(#a)"><g transform="translate(6654.399 4578.491)" clip-path="url(#b)"><path d="M485.506,63.511q-2.75-2.847-5.5-5.728-2.978-3.113-5.984-6.224C448.542,25.244,420.557,0,368.257,0S287.972,25.244,262.5,51.559q3.008,3.105,5.984,6.224,2.758,2.881,5.505,5.728c24.028-24.857,48.425-46.942,94.27-46.942s70.242,22.088,94.27,46.942q2.754,2.847,5.508,5.731,2.974,3.109,5.982,6.221c25.475,26.315,53.462,51.559,105.76,51.559V110.453c-45.845,0-70.24-22.088-94.271-46.942" transform="translate(477.794 0)" fill="#f0f0d8"/><path d="M524.036,63.508C500,88.362,475.61,110.45,429.765,110.45S359.526,88.362,335.5,63.508q-2.75-2.847-5.505-5.728-2.978-3.109-5.984-6.224C298.536,25.241,270.552,0,218.254,0S137.972,25.241,112.5,51.556q3.012,3.109,5.984,6.224,2.758,2.881,5.5,5.728c24.031-24.854,48.425-46.942,94.268-46.942s70.24,22.088,94.268,46.942q2.75,2.847,5.5,5.731,2.978,3.109,5.982,6.221c25.475,26.315,53.46,51.559,105.757,51.559s80.285-25.244,105.76-51.559q-3.008-3.105-5.984-6.221-2.758-2.881-5.5-5.731" transform="translate(204.766 0)" fill="#f0f0d8"/><path d="M305.776,63.511c-24.028,24.854-48.426,46.942-94.268,46.942s-70.237-22.088-94.265-46.942q-2.75-2.847-5.505-5.728-2.978-3.113-5.984-6.224C80.279,25.244,52.3,0,0,0V16.569c45.842,0,70.237,22.085,94.265,46.942q2.754,2.843,5.508,5.728,2.974,3.109,5.982,6.224c25.475,26.315,53.459,51.556,105.754,51.556s80.282-25.241,105.757-51.556q-3.012-3.109-5.984-6.224-2.758-2.881-5.505-5.728" transform="translate(0 0)" fill="#f0f0d8"/><path d="M449.032,63.508C425,88.362,400.607,110.45,354.764,110.45S284.528,88.365,260.5,63.508q-2.75-2.847-5.505-5.728-2.978-3.113-5.982-6.224C223.536,25.244,195.551,0,143.253,0S62.974,25.241,37.5,51.556q3.008,3.109,5.984,6.224,2.758,2.881,5.505,5.728c24.028-24.854,48.425-46.942,94.265-46.942s70.237,22.088,94.268,46.942q2.75,2.847,5.505,5.731Q246,72.348,249.01,75.46c25.472,26.315,53.457,51.559,105.754,51.559s80.282-25.244,105.757-51.559q-3.012-3.109-5.985-6.221-2.758-2.885-5.5-5.731" transform="translate(68.255 0)" fill="#78aeb4"/><path d="M599.043,63.511c-24.031,24.854-48.428,46.942-94.27,46.942S434.53,88.365,410.5,63.511q-2.754-2.847-5.505-5.728-2.978-3.113-5.984-6.224C373.538,25.244,345.551,0,293.253,0S212.971,25.244,187.5,51.559q3.012,3.109,5.984,6.224,2.758,2.881,5.505,5.728c24.031-24.854,48.425-46.942,94.268-46.942s70.24,22.085,94.271,46.942q2.75,2.847,5.5,5.731,2.978,3.109,5.984,6.221c25.475,26.315,53.459,51.559,105.76,51.559s80.285-25.243,105.76-51.559q-3.008-3.109-5.984-6.221-2.758-2.885-5.505-5.731" transform="translate(341.278 0)" fill="#78aeb4"/><path d="M94.265,22.519C70.237,47.373,45.839,69.461,0,69.461V86.03c52.295,0,80.279-25.243,105.754-51.559q-3.012-3.109-5.984-6.224-2.758-2.881-5.5-5.728" transform="translate(0 40.989)" fill="#78aeb4"/><path d="M337.5,51.556q3.008,3.109,5.984,6.224,2.758,2.881,5.5,5.728c24.028-24.854,48.425-46.942,94.27-46.942V0c-52.3,0-80.285,25.241-105.76,51.556" transform="translate(614.312 0)" fill="#78aeb4"/><path d="M53.555,46.966H70.124V8.862a106.02,106.02,0,0,0-16.569,8.932Z" transform="translate(97.48 16.13)" fill="#a8d800"/><path d="M53.555,52.371A106.021,106.021,0,0,0,70.124,61.3V22.373H53.555Z" transform="translate(97.48 40.723)" fill="#f07800"/><path d="M29.324,22.373H12.755V64.3a100.8,100.8,0,0,0,16.569-7.166Z" transform="translate(23.216 40.723)" fill="#00a8c0"/><path d="M29.324,14.965A100.555,100.555,0,0,0,12.755,7.8V48.9H29.324Z" transform="translate(23.216 14.195)" fill="#c04890"/><path d="M88.526,63.545a101.438,101.438,0,0,0,16.569-7.637V22.373H88.526Z" transform="translate(161.134 40.723)" fill="#c04890"/><path d="M88.526,48.413h16.569V15.7A101.675,101.675,0,0,0,88.526,8.067Z" transform="translate(161.134 14.683)" fill="#00a8c0"/><path d="M70.838,6.4v46H87.407V5.962c-1.588-.054-3.2-.087-4.837-.087-4.081,0-7.975.192-11.732.527" transform="translate(128.938 10.693)" fill="#c04890"/><path d="M70.838,69.2c3.757.336,7.651.527,11.732.527,1.641,0,3.249-.034,4.837-.087V22.373H70.838Z" transform="translate(128.938 40.723)" fill="#00a8c0"/><path d="M147.791,7.845a100.577,100.577,0,0,0-16.569,7.262v33.71h16.569Z" transform="translate(238.849 14.279)" fill="#f07800"/><path d="M147.791,22.373H131.222V56.912a100.807,100.807,0,0,0,16.569,7.259Z" transform="translate(238.849 40.723)" fill="#a8d800"/><path d="M181.442,22.373H164.873V62.107a104.289,104.289,0,0,0,16.569-8.469Z" transform="translate(300.1 40.723)" fill="#a8d800"/><path d="M181.442,17.048a104.064,104.064,0,0,0-16.569-8.472v38.91h16.569Z" transform="translate(300.1 15.61)" fill="#f07800"/><path d="M164.453,6.306c-3.41-.274-6.932-.431-10.61-.431-2.031,0-4.007.059-5.959.144V52.4h16.569Z" transform="translate(269.177 10.693)" fill="#c04890"/><path d="M164.453,69.3V22.373H147.884v47.21c1.952.085,3.926.144,5.959.144,3.678,0,7.2-.158,10.61-.431" transform="translate(269.177 40.723)" fill="#00a8c0"/><path d="M204.149,47.415h16.569V8.615a104.3,104.3,0,0,0-16.569,8.534Z" transform="translate(371.59 15.681)" fill="#00a8c0"/><path d="M204.149,53.466A104.3,104.3,0,0,0,220.718,62V22.373H204.149Z" transform="translate(371.59 40.723)" fill="#c04890"/><path d="M238.618,48.353h16.569V15.791A101.839,101.839,0,0,0,238.618,8.1Z" transform="translate(434.33 14.743)" fill="#00a8c0"/><path d="M238.618,63.452a101.837,101.837,0,0,0,16.569-7.691V22.373H238.618Z" transform="translate(434.33 40.723)" fill="#c04890"/><path d="M221.4,69.335c3.269.251,6.639.395,10.15.395,2.194,0,4.321-.068,6.419-.169V22.373H221.4Z" transform="translate(402.984 40.723)" fill="#00a8c0"/><path d="M221.4,6.269V52.4h16.569V6.043c-2.1-.1-4.225-.169-6.419-.169-3.511,0-6.881.144-10.15.395" transform="translate(402.984 10.692)" fill="#c04890"/><path d="M296.321,22.373H279.752V54.506a103.3,103.3,0,0,0,16.569,8.167Z" transform="translate(509.201 40.723)" fill="#00a8c0"/><path d="M296.321,8.376a102.829,102.829,0,0,0-16.569,8.167V47.85h16.569Z" transform="translate(509.201 15.246)" fill="#c04890"/><path d="M331.076,22.373H314.507V62.518a103.464,103.464,0,0,0,16.569-8.249Z" transform="translate(572.462 40.723)" fill="#a8d800"/><path d="M331.076,16.68a103.231,103.231,0,0,0-16.569-8.249V47.75h16.569Z" transform="translate(572.462 15.346)" fill="#f07800"/><path d="M359.934,50.388H376.5V6.982h-1.9a100.592,100.592,0,0,0-14.673,4.71Z" transform="translate(655.147 12.708)" fill="#00a8c0"/><path d="M359.934,61.9A100.1,100.1,0,0,0,371.4,65.779H376.5V22.373H359.934Z" transform="translate(655.147 40.723)" fill="#c04890"/><path d="M313.853,6.165q-4.319-.288-8.915-.29c-2.626,0-5.164.087-7.654.228V52.4h16.569Z" transform="translate(541.113 10.693)" fill="#c04890"/><path d="M313.853,69.436V22.373H297.284V69.5c2.49.141,5.028.228,7.654.228q4.6,0,8.915-.29" transform="translate(541.113 40.723)" fill="#00a8c0"/></g></g></svg>