<svg xmlns="http://www.w3.org/2000/svg" xmlns:xlink="http://www.w3.org/1999/xlink" width="300.534" height="89.555" viewBox="0 0 300.534 89.555"><defs><clipPath id="a"><rect width="31.332" height="31.332" transform="translate(179.468 -0.001)" fill="none"/></clipPath><clipPath id="b"><rect width="31.332" height="31.332" transform="translate(269.202 -0.001)" fill="none"/></clipPath><clipPath id="c"><rect width="31.332" height="31.332" transform="translate(0 -0.001)" fill="none"/></clipPath><clipPath id="d"><rect width="31.332" height="31.332" transform="translate(89.734 -0.001)" fill="none"/></clipPath></defs><g transform="translate(0 0.001)"><rect width="31.332" height="89.555" transform="translate(179.468 -0.001)" fill="#a8d800"/><g clip-path="url(#a)"><path d="M15.5-5.15c0,.55,0,.65-.25.775a7.7,7.7,0,0,1-2.875.5C7.15-3.875,5.85-7.5,5.85-10.025c0-2.875,1.65-6.275,6.6-6.275a9.879,9.879,0,0,1,3.475.625,4.114,4.114,0,0,0,1.6.425A2.165,2.165,0,0,0,19.5-17.575c0-.875-.3-1.325-1.275-1.8a13.909,13.909,0,0,0-5.775-1.2C5.775-20.575,1.2-16.225,1.2-10.1,1.2-4.925,4.7.4,12.45.4c2.35,0,5.425-.55,6.5-1.35a3.517,3.517,0,0,0,.925-2.8V-8.3c0-1.2-.075-3.45-3.55-3.45h-3.35c-1.375,0-2.075.6-2.075,2.05,0,1.8,1.25,1.975,2.075,1.975H14.75c.6,0,.75.225.75.75Z" transform="translate(184.547 25.788)" fill="#f0f0d8"/></g><rect width="31.332" height="89.555" transform="translate(269.202 -0.001)" fill="#f07800"/><g clip-path="url(#b)"><path d="M11.9.4a15.728,15.728,0,0,0,5.6-.975,1.794,1.794,0,0,0,1.25-1.9A1.993,1.993,0,0,0,16.8-4.65a4.256,4.256,0,0,0-1.35.275,10.706,10.706,0,0,1-3.2.5c-4.025,0-6.35-2.6-6.375-6.225,0-3.25,1.95-6.2,6.225-6.2a7.182,7.182,0,0,1,2.675.5,3.893,3.893,0,0,0,1.575.4,2.134,2.134,0,0,0,1.95-2.275,1.794,1.794,0,0,0-.975-1.675,11.782,11.782,0,0,0-5.375-1.225C6-20.575,1.2-16.5,1.2-10.075,1.2-4.425,5,.4,11.9.4Z" transform="translate(275.117 25.788)" fill="#f0f0d8"/></g><rect width="31.332" height="89.555" transform="translate(0 -0.001)" fill="#00a8c0"/><g clip-path="url(#c)"><path d="M6.2-4h7.475l.675,2.05C14.9-.25,15.175.4,16.7.4c.925,0,2.675-.4,2.675-1.825a4.959,4.959,0,0,0-.5-1.9L13.85-17.25c-.625-1.725-1.225-3.325-3.925-3.325-2.65,0-3.25,1.675-3.85,3.325L1.025-3.35a5.367,5.367,0,0,0-.5,1.9C.525.075,2.35.4,3.2.4,4.7.4,5.025-.275,5.55-1.95ZM7.475-7.9,9.95-15.5l2.475,7.6Z" transform="translate(5.715 25.788)" fill="#f0f0d8"/></g><rect width="31.332" height="89.555" transform="translate(89.734 -0.001)" fill="#c04890"/><g clip-path="url(#d)"><path d="M11.3-15.9h3.95c1.05,0,2.2-.275,2.2-2.15a1.915,1.915,0,0,0-2.2-2.125H2.7c-1.45,0-2.2.625-2.2,2.15A1.911,1.911,0,0,0,2.7-15.9H6.65V-1.75C6.65-.1,7.55.4,9,.4c2.05,0,2.3-1.2,2.3-2.15Z" transform="translate(96.425 25.788)" fill="#f0f0d8"/></g></g></svg>