<svg xmlns="http://www.w3.org/2000/svg" width="311.1" height="63.849" viewBox="0 0 311.1 63.849"><g transform="translate(-851.891 -49.487)"><path d="M3.048-13.536c-1.056.144-1.584.216-1.584,1.056,0,.456.192,1.08.888,1.08.312,0,4.008-.6,4.752-.72A40.493,40.493,0,0,1,2.88-1.56c-.456.744-.6.96-.6,1.344C2.28.528,3.1.792,3.5.792c.648,0,1.224-1.1,1.848-2.28A48.156,48.156,0,0,0,9.288-12.36c.36,0,.816-.048,1.176-.048,2.928,0,3.312,1.536,3.312,4.272a16.8,16.8,0,0,1-.744,5.4c-.216.528-.7,1.44-2.952,1.44-.168,0-.984-.1-1.176-.1-.6,0-.816.552-.816,1.008,0,.84.528,1.152,2.3,1.152,3.792,0,5.472-1.872,5.472-8.832,0-3.192-.312-6.48-6.1-6.24.24-1.2.816-3.768.816-4.416,0-.6-.576-.84-1.128-.84-.912,0-.984.6-1.08,1.128-.312,1.992-.36,2.232-.792,4.3ZM18.024-19.32a.975.975,0,0,0-1.08.936c0,.192.048.36.384.7a14.283,14.283,0,0,1,2.016,2.3c.5.744.624.888,1.032.888a.956.956,0,0,0,.936-.96c0-.312-.072-.528-.888-1.56C19.728-17.88,18.6-19.224,18.024-19.32Zm-2.208,2.88a.955.955,0,0,0-.984.864c0,.312.048.336.84,1.176a15.271,15.271,0,0,1,3.744,7.152c.216.912.312,1.3,1.008,1.3.216,0,1.2-.1,1.2-1.032a15.538,15.538,0,0,0-2.448-6.1C18.528-14.088,16.728-16.44,15.816-16.44ZM20.9-21.312a.963.963,0,0,0-1.08.936c0,.192.024.36.36.7a13.223,13.223,0,0,1,2.04,2.3c.5.72.624.888,1.032.888a.973.973,0,0,0,.936-.96c0-.312-.072-.528-.888-1.56C22.608-19.9,21.48-21.24,20.9-21.312Zm13.08,12.1c.528-1.032,2.208-4.3,4.224-8.088.528-.984.528-1.1.528-1.3a1.132,1.132,0,0,0-1.152-.936c-.576,0-.792.36-1.368,1.512-2.28,4.536-5.88,11.832-8.16,16.368-.312.648-.384.768-.384,1.1a1.1,1.1,0,0,0,1.152.96c.384,0,.576-.168.912-.744.336-.624,1.8-3.7,2.184-4.368,2.52-4.584,5.568-4.656,6.1-4.656A1.382,1.382,0,0,1,39.552-7.9c0,.72-.6,4.224-.6,5.016A3.306,3.306,0,0,0,42.576.7c4.44,0,6.336-5.3,6.336-5.952a1.052,1.052,0,0,0-1.1-.96c-.528,0-.648.264-1.032,1.152-1.32,3.024-2.9,3.744-4.08,3.744a1.5,1.5,0,0,1-1.68-1.56c0-.384.168-1.488.312-2.616.168-1.128.312-2.256.312-2.664a2.973,2.973,0,0,0-3.216-3.168A6.733,6.733,0,0,0,33.984-9.216Zm40.44-7.824c0-1.968-.792-2.568-2.568-2.568h-6c-1.8,0-2.568.6-2.568,2.568V-1.008c0,1.992.792,2.568,2.568,2.568h6c1.824,0,2.568-.624,2.568-2.568ZM72.479-6.888H65.231V-11.5h7.248Zm-7.248-6.336V-16.68c0-.744.336-1.08,1.056-1.08H71.4c.744,0,1.08.336,1.08,1.08v3.456ZM72.479-1.368A.945.945,0,0,1,71.4-.288H66.311c-.744,0-1.08-.336-1.08-1.08V-5.136h7.248ZM58.968-9.288a21.043,21.043,0,0,0,1.32,2.52c.384.576.6.84.96.84a1,1,0,0,0,.936-.984c0-.288-.072-.384-.672-1.176A17.845,17.845,0,0,1,58.968-12.6v-1.152H61.3a.831.831,0,0,0,.96-.936.818.818,0,0,0-.96-.912H58.968v-3.864c0-.744-.336-.984-1.008-.984a.835.835,0,0,0-.888.984V-15.6H54.024a.818.818,0,0,0-.96.912.84.84,0,0,0,.96.936H57A26.511,26.511,0,0,1,53.256-5.76a1.663,1.663,0,0,0-.432,1.032A1.089,1.089,0,0,0,53.808-3.6c.5,0,.768-.336,1.248-1.248A45.344,45.344,0,0,0,57.072-9.5V1.224c0,.7.264.984.984.984a.846.846,0,0,0,.912-.984Zm28.056,5.64c0-1.7-.48-2.16-2.184-2.16H81.887c-1.728,0-2.184.48-2.184,2.16V-.576c0,1.728.5,2.184,2.184,2.184h2.976c1.7,0,2.16-.5,2.16-2.184ZM85.271-.864A.675.675,0,0,1,84.5-.1H82.319a.674.674,0,0,1-.768-.768V-3.408c0-.456.168-.792.768-.792H84.5a.693.693,0,0,1,.768.792Zm.912-16.944c.312,0,.936-.024.936-.864s-.672-.84-.936-.84H80.519c-.312,0-.912.024-.912.84,0,.864.624.864.912.864ZM87-14.328c.408,0,.912-.072.912-.888s-.576-.864-.912-.864H79.847c-.432,0-.912.1-.912.888,0,.84.576.864.912.864Zm-.792,3.384c.288,0,.912,0,.912-.864a.779.779,0,0,0-.912-.864H80.519c-.384,0-.912.072-.912.864a.783.783,0,0,0,.912.864Zm-.024,3.48c.288,0,.936,0,.936-.864a.787.787,0,0,0-.912-.864H80.519a.783.783,0,0,0-.912.864.787.787,0,0,0,.912.864Zm3.264-11.808a.872.872,0,0,0-.96.864c0,.24.648,2.232.768,2.664.312,1.176.432,1.536,1.056,1.536a.942.942,0,0,0,1.032-.96A13.8,13.8,0,0,0,90.5-18C90.191-18.816,89.927-19.272,89.447-19.272Zm11.3.936c0-.648-.672-.864-1.008-.864a.815.815,0,0,0-.624.288c-.216.288-.936,1.92-1.1,2.28-.576,1.152-.624,1.224-.624,1.44a.938.938,0,0,0,.96.864c.528,0,.72-.336,1.08-1.008A13.819,13.819,0,0,0,100.751-18.336ZM93.479-7.248a8.568,8.568,0,0,1-1.008,3.624A8.925,8.925,0,0,1,88.007.024c-.432.168-.672.36-.672.816,0,.168.072,1.1.984,1.1.624,0,4.248-1.3,6.12-6.048A9.77,9.77,0,0,0,96.5-.648a8.893,8.893,0,0,0,4.152,2.568,1.084,1.084,0,0,0,.984-1.1A.725.725,0,0,0,101.3.168c-.1-.072-1.728-.912-1.992-1.056A7.718,7.718,0,0,1,95.327-7.32V-9.264c0-.768-.312-.984-.96-.984a.84.84,0,0,0-.888.984ZM89.447-8.376c-.24,0-.912.216-.912.816a2.535,2.535,0,0,0,.336,1.008,18.02,18.02,0,0,1,.72,1.728c.264.72.432,1.176,1.032,1.176.24,0,.984-.168.984-.864a10.027,10.027,0,0,0-.816-2.328C90.167-8.184,90.1-8.376,89.447-8.376ZM93.479-17.9c0,2.088-1.56,5.208-4.944,6.888-.792.384-.984.48-.984.936a1.155,1.155,0,0,0,.936,1.152,2.149,2.149,0,0,0,1.128-.456A10.227,10.227,0,0,0,94.415-15c1.128,3.12,2.976,4.272,5.04,5.568a2.093,2.093,0,0,0,1.08.48,1.076,1.076,0,0,0,.96-1.176c0-.48-.12-.552-1.2-1.08-1.68-.84-4.968-3.192-4.968-6.648v-1.536c0-.744-.336-.96-.936-.96-.672,0-.912.36-.912.96Zm7.2,10.248a.881.881,0,0,0-.936-.888A.942.942,0,0,0,99-8.16c-.024.048-.96,2.088-1.152,2.472-.432.792-.5.936-.5,1.152,0,.648.744.888.984.888.552,0,.792-.5,1.128-1.128A15.9,15.9,0,0,0,100.679-7.656Zm19.584-2.712c.408,0,.84,0,.84.456,0,.6-1.584,3.312-4.608,5.592a16.322,16.322,0,0,1-4.248-4.608,1.021,1.021,0,0,0-.864-.552,1.08,1.08,0,0,0-1.056,1.008c0,.84,2.592,3.936,4.344,5.3A25.97,25.97,0,0,1,106.3-.384c-.36.072-.96.168-.96.888a1.112,1.112,0,0,0,1.1,1.176A29.079,29.079,0,0,0,116.447-1.9,21.648,21.648,0,0,0,120.5.12a23.351,23.351,0,0,0,5.88,1.56c1.032,0,1.032-1.128,1.032-1.2,0-.672-.552-.792-.864-.84a27.032,27.032,0,0,1-8.28-2.808c2.568-2.04,5.256-5.544,5.256-7.416,0-1.632-1.584-1.632-2.592-1.632h-3.528v-3.408h9.24a.872.872,0,0,0,1.008-.936.872.872,0,0,0-1.008-.936h-9.24V-19.44c0-.768-.456-.912-1.128-.912-.816,0-.96.48-.96.912V-17.5H106.1a.863.863,0,0,0-.984.96.849.849,0,0,0,.984.912h9.216v3.408h-7.392a.865.865,0,0,0-1.008.936.858.858,0,0,0,1.008.912ZM142.175-8.16A15.385,15.385,0,0,1,137.447,0c-.384.384-.528.6-.528.912a1.086,1.086,0,0,0,1.032,1.008c.384,0,.792-.288,1.92-1.56A19.627,19.627,0,0,0,143.063-4.9h6.384c.24,0,.552,0,.552.36,0,.5-.936,1.488-2.424,2.424a11.057,11.057,0,0,1-2.04-1.968c-.312-.36-.528-.528-.84-.528a.842.842,0,0,0-.84.792c0,.648,1.92,2.352,2.16,2.568A17.02,17.02,0,0,1,141.839.168c-.5.1-.792.264-.792.792a.9.9,0,0,0,.84.984A14.067,14.067,0,0,0,147.551-.1a14.035,14.035,0,0,0,4.968,2.064,1.026,1.026,0,0,0,1.008-1.08c0-.576-.384-.7-.84-.792a14.374,14.374,0,0,1-3.576-1.248,14.043,14.043,0,0,0,1.8-1.656,3.728,3.728,0,0,0,1.128-2.328c0-1.248-1.248-1.248-1.992-1.248h-6.432c.1-.312.24-.744.48-1.776h8.52c.792,0,.912-.456.912-.816,0-.48-.24-.816-.912-.816h-8.256a14.351,14.351,0,0,0,.144-1.944h7.584c.72,0,.888-.408.888-.816,0-.5-.264-.792-.888-.792h-1.1c.456-.72,1.872-3.024,1.872-3.72,0-.5-.576-.792-.984-.792-.528,0-.624.192-.984.984a27.3,27.3,0,0,1-1.92,3.528h-9.12c-.672,0-.912.312-.912.816,0,.552.336.792.912.792h2.76a17.648,17.648,0,0,1-.144,1.944h-2.9c-.816,0-.888.48-.888.864,0,.552.36.768.888.768Zm-6.1,1.224a19.9,19.9,0,0,0,2.04-.888.786.786,0,0,0,.384-.744c0-.384-.168-.936-.672-.936a11.9,11.9,0,0,0-1.752.576v-5.016h1.56c.432,0,.864-.144.864-.936,0-.912-.624-.912-.864-.912h-1.56V-19.44c0-.456-.1-.936-.96-.936-.936,0-.96.6-.96.936v3.648h-1.944a.825.825,0,0,0-.96.912.84.84,0,0,0,.96.936h1.944v5.688c-.384.12-2.064.6-2.424.744a.81.81,0,0,0-.6.864A.935.935,0,0,0,132-5.616a12.678,12.678,0,0,0,2.16-.624V-.984c0,.48-.144.7-.456.792a8.547,8.547,0,0,1-1.2.024c-.432,0-1.032,0-1.032.888,0,1.1.744,1.1,1.344,1.1,2.256,0,3.264,0,3.264-2.256Zm4.608-10.152a.965.965,0,0,0-.984.84,1.131,1.131,0,0,0,.1.408c.048.144.36.816.408.96.528,1.248.576,1.368,1.128,1.368a.89.89,0,0,0,.96-.84,6.868,6.868,0,0,0-.5-1.56C141.383-16.9,141.263-17.088,140.687-17.088Zm4.8-.336a.919.919,0,0,0-.984.768,1.425,1.425,0,0,0,.168.624c.12.264.408.936.48,1.128.456,1.152.5,1.3,1.056,1.3a.89.89,0,0,0,.96-.84,6.643,6.643,0,0,0-.576-1.728C146.135-17.208,146.015-17.424,145.487-17.424Zm7.032-1.776c0-.768-.456-1.008-.816-1.008-.072,0-2.568.408-3.048.48a82.493,82.493,0,0,1-9.336.648c-.36,0-.984.024-.984.792a.865.865,0,0,0,.984.912,104.665,104.665,0,0,0,11.232-.888C151.895-18.48,152.519-18.576,152.519-19.2Zm13.776,7.368,8.544-.552c.336-.024.48-.024.48.144a14.641,14.641,0,0,1-2.616,3.5c-1.128,1.176-1.152,1.224-1.152,1.584a1.056,1.056,0,0,0,1.08.96c.624,0,1.392-.912,2.064-1.68,1.224-1.44,3.5-4.32,3.5-5.4,0-1.32-1.344-1.224-2.28-1.176l-9.624.576v-4.9c0-.408-.048-1.056-1.08-1.056-1.056,0-1.08.72-1.08,1.056v5.016l-4.944.312c-.528.024-1.056.192-1.056,1.008a.97.97,0,0,0,1.176,1.056l4.824-.312V-3.7c0,3.96,2.424,4.32,6.624,4.32.6,0,3.072-.024,5.76-.144.648-.024,1.392-.144,1.392-1.152A.942.942,0,0,0,176.855-1.7c-.216,0-1.248.072-1.488.1-1.56.072-3.1.12-4.656.12-3.672,0-4.416-.192-4.416-2.544Zm37.248-1.44a1.079,1.079,0,0,0-.912.624,27.934,27.934,0,0,1-3.6,4.344,25.583,25.583,0,0,1-11.3,6.5c-1.536.384-1.92.48-1.92,1.248a1.236,1.236,0,0,0,1.176,1.3A25.14,25.14,0,0,0,196.87-3.6c4.9-3.408,7.872-7.872,7.872-8.568A1.236,1.236,0,0,0,203.542-13.272Zm-16.536-4.584a1.167,1.167,0,0,0-1.176,1.128c0,.48.336.7.7.864a33,33,0,0,1,5.04,2.352,2.57,2.57,0,0,0,1.128.456,1.192,1.192,0,0,0,1.056-1.224c0-.48,0-.84-3.216-2.3A16.619,16.619,0,0,0,187.006-17.856Zm32.328-.1c-2.064,0-2.208.12-3.144,1.728a18.758,18.758,0,0,1-4.32,5.208c-.6.5-.864.72-.864,1.176a1.186,1.186,0,0,0,1.1,1.1c.7,0,2.376-1.7,3.168-2.616A59.138,59.138,0,0,1,222.91-6.5a19.575,19.575,0,0,1-7.728,5.376c-.888.336-1.44.552-1.44,1.2A1.121,1.121,0,0,0,214.774,1.2a19.573,19.573,0,0,0,8.232-4.728,21.348,21.348,0,0,0,6.336-12.6c0-1.824-1.68-1.824-2.3-1.824Zm6.624,2.016c.456,0,1.008,0,1.008.648a11.505,11.505,0,0,1-.576,2.544,18.9,18.9,0,0,1-2.208,4.512,61.43,61.43,0,0,0-7.632-4.656c.288-.408,1.512-2.3,1.776-2.64a1.023,1.023,0,0,1,.96-.408Zm11.592,5.712a.949.949,0,0,0-1.1,1.056.949.949,0,0,0,1.1,1.032h18.48a.943.943,0,0,0,1.1-1.008.949.949,0,0,0-1.1-1.08Z" transform="translate(851 70.808)" fill="#f07800"/><path d="M12.4-6.08a11.729,11.729,0,0,1,2.064-6.72c.224-.32.256-.368.256-.528a.487.487,0,0,0-.512-.464.667.667,0,0,0-.544.336A11.829,11.829,0,0,0,11.008-6.08a11.962,11.962,0,0,0,2.56,7.28c.272.32.4.432.64.432a.487.487,0,0,0,.512-.464.642.642,0,0,0-.16-.384A11.837,11.837,0,0,1,12.4-6.08Zm9.36-3.744c-1.056,0-1.472.368-1.472,1.472V-2.8c0,1.088.4,1.472,1.472,1.472h6.5c1.056,0,1.472-.368,1.472-1.472V-8.352c0-1.088-.416-1.472-1.472-1.472h-3.6v-1.168h6.128a.524.524,0,0,0,.608-.576.535.535,0,0,0-.624-.592H24.656v-.88c0-.192-.016-.576-.608-.576-.48,0-.7.128-.7.576v.88H17.2a.53.53,0,0,0-.624.576c0,.576.416.592.624.592h6.144v1.168Zm6.656,4.9H21.584V-6.384h6.832Zm-6.832-3.36A.45.45,0,0,1,22.1-8.8H27.9c.368,0,.512.176.512.512v.928H21.584Zm6.832,4.336V-2.88c0,.368-.176.512-.512.512H22.1a.45.45,0,0,1-.512-.512V-3.952ZM18.64-9.072a.581.581,0,0,0-.656-.672.586.586,0,0,0-.656.672V-.736c0,1.328.512,1.76,1.76,1.76H30.672a.561.561,0,0,0,.656-.608.562.562,0,0,0-.656-.592H19.36a.63.63,0,0,1-.72-.72Zm20.192-.672c-1.152,0-1.52.288-1.52,1.488v6.64a.575.575,0,0,0,.64.656c.448,0,.608-.272.608-.64V-3.984h2.912V-1.76a.55.55,0,0,0,.608.64c.432,0,.64-.176.64-.64V-3.984h2.928v1.3c0,.48-.272.544-.512.544-.144,0-.768-.032-.832-.032a.462.462,0,0,0-.5.528c0,.064.016.512.384.608a11.714,11.714,0,0,0,1.184.032c1.152,0,1.536-.272,1.536-1.488v-5.76c0-1.152-.336-1.488-1.5-1.488H42.831L42.8-9.76a20.685,20.685,0,0,0,1.984-.976c.752-.416,1.376-.816,1.376-1.488,0-.752-.768-.752-1.184-.752H37.728a.532.532,0,0,0-.608.544c0,.464.352.544.608.544h6.384c.128,0,.272,0,.272.128,0,.24-1.856,1.1-2.384,1.36a7.371,7.371,0,0,0-2.16-1.312.627.627,0,0,0-.624.544c0,.256.32.448.5.544.224.144.336.224,1.248.88ZM38.56-7.36v-.864a.45.45,0,0,1,.512-.512h2.4V-7.36Zm4.16-1.376h2.416a.45.45,0,0,1,.512.512v.864H42.719ZM41.471-4.96H38.56V-6.368h2.912Zm4.176,0H42.719V-6.368h2.928Zm-12.8-7.632c0,.208.224.4.368.528a16.7,16.7,0,0,1,1.68,1.44c.368.368.576.56.848.56a.761.761,0,0,0,.688-.736c0-.192-.048-.336-.592-.832-.5-.464-1.888-1.68-2.336-1.68A.673.673,0,0,0,32.848-12.592ZM39.6-.24a5.248,5.248,0,0,1-2.464-.544,2.6,2.6,0,0,1-1.232-2v-3.04c0-1.168-.32-1.5-1.488-1.5H33.168c-.336,0-.672.1-.672.656a.573.573,0,0,0,.64.64h.944a.466.466,0,0,1,.512.544v3.472A8.982,8.982,0,0,1,33.1-.5c-.416.32-.64.512-.64.832a.806.806,0,0,0,.72.784c.176,0,.352-.064.784-.5a10.024,10.024,0,0,0,1.424-1.648A3.191,3.191,0,0,0,37.04.528,6,6,0,0,0,39.7,1.04h7.152a.623.623,0,0,0,.688-.688.574.574,0,0,0-.656-.592Zm12-5.84A11.729,11.729,0,0,1,49.535.64c-.224.32-.256.368-.256.528a.487.487,0,0,0,.512.464c.224,0,.352-.112.544-.336A11.781,11.781,0,0,0,52.991-6.08a11.921,11.921,0,0,0-2.56-7.28c-.272-.32-.4-.432-.64-.432a.487.487,0,0,0-.512.464.642.642,0,0,0,.16.384A11.875,11.875,0,0,1,51.6-6.08Z" transform="translate(1110 70.808)" fill="#f07800"/><path d="M13.035-23.1h7.524a1.316,1.316,0,0,0,1.452-1.485A1.307,1.307,0,0,0,20.559-26H2.343A1.306,1.306,0,0,0,.891-24.552,1.311,1.311,0,0,0,2.343-23.1H9.867V-.99A1.392,1.392,0,0,0,11.451.528,1.42,1.42,0,0,0,13.035-.99ZM31.68-14.883v-7c0-1.023.363-1.221,1.221-1.221h10.23a1.316,1.316,0,0,0,1.452-1.485A1.3,1.3,0,0,0,43.131-26H31.911c-3.4,0-3.4,2.409-3.4,3.63V-3.663c0,1.188,0,3.663,3.4,3.663H43.593a1.292,1.292,0,0,0,1.452-1.452A1.311,1.311,0,0,0,43.593-2.9H32.9c-.858,0-1.221-.2-1.221-1.221v-7.92h10.4A1.3,1.3,0,0,0,43.494-13.5a1.282,1.282,0,0,0-1.419-1.386ZM60.918,0A1.306,1.306,0,0,0,62.37-1.452,1.329,1.329,0,0,0,60.918-2.9H53.592c-.858,0-1.221-.2-1.221-1.221V-25.014c0-1.122-.693-1.518-1.617-1.518a1.408,1.408,0,0,0-1.584,1.518V-3.663c0,1.188,0,3.663,3.4,3.663Zm6.8-4.389a2.451,2.451,0,0,0-2.475,2.475A2.444,2.444,0,0,0,67.716.528a2.436,2.436,0,0,0,2.442-2.442A2.465,2.465,0,0,0,67.716-4.389ZM82.962.528c9.075,0,9.075-10.923,9.075-13.53s0-13.53-9.075-13.53c-9.042,0-9.042,10.923-9.042,13.53S73.92.528,82.962.528Zm0-2.9c-5.049,0-5.874-5.907-5.874-10.626,0-4.653.825-10.626,5.874-10.626,5.148,0,5.874,6.1,5.874,10.626S88.11-2.376,82.962-2.376Zm21.087-20.163V-.99c0,.957.528,1.518,1.617,1.518A1.412,1.412,0,0,0,107.25-.99V-24.453c0-.825,0-2.079-1.551-2.079a3.457,3.457,0,0,0-1.815.759l-4.62,3.135c-.429.3-.891.627-.891,1.188A1.592,1.592,0,0,0,99.726-19.9a1.8,1.8,0,0,0,.99-.4Zm28.479-.561L120.219-2.079a2.263,2.263,0,0,0-.462,1.188,1.578,1.578,0,0,0,1.65,1.419c.825,0,1.089-.429,1.419-1.023l12.408-21.483a4.435,4.435,0,0,0,.792-2.409c0-1.617-1.254-1.617-2.277-1.617H118.47a1.306,1.306,0,0,0-1.452,1.452A1.329,1.329,0,0,0,118.47-23.1ZM142.956-2.9c1.782-1.485,6.039-5.082,8.877-7.986,3.333-3.4,4.29-5.544,4.29-8.184,0-4.983-3.993-7.458-7.854-7.458-4.653,0-7.953,3.267-7.953,4.488a1.522,1.522,0,0,0,1.485,1.485c.561,0,.726-.2,1.518-.957a7.156,7.156,0,0,1,4.983-2.112,4.574,4.574,0,0,1,4.653,4.686c0,1.32-.429,3.036-2.508,5.313A96.348,96.348,0,0,1,141.8-5.544c-1.98,1.617-2.607,2.145-2.607,3.465C139.194,0,141.042,0,142.527,0H156.09a1.306,1.306,0,0,0,1.452-1.452A1.311,1.311,0,0,0,156.09-2.9Zm24.849-5.247a1.418,1.418,0,0,0,1.551-1.584,1.411,1.411,0,0,0-1.551-1.518h-6.072A1.415,1.415,0,0,0,160.182-9.7a1.411,1.411,0,0,0,1.551,1.551Zm12.276-4.323c6.3,0,6.963,3.432,6.963,4.818,0,2.31-1.683,5.28-7,5.28A12.725,12.725,0,0,1,175-3.3a8.508,8.508,0,0,0-1.551-.462,1.438,1.438,0,0,0-1.32,1.518c0,.858.66,1.155,1.188,1.386A16.279,16.279,0,0,0,180.081.528c7.326,0,10.164-4.158,10.164-7.854,0-5.115-4.257-6.369-5.61-6.765a6.037,6.037,0,0,0,3.96-5.676c0-4.191-3.531-6.765-7.887-6.765a11.213,11.213,0,0,0-6.4,2.013c-.594.4-1.122.792-1.122,1.518a1.447,1.447,0,0,0,1.353,1.452c.4,0,.627-.165,1.221-.594a8.523,8.523,0,0,1,4.818-1.485c2.343,0,4.884,1.188,4.884,4.092,0,2.772-2.508,4.389-5.478,4.389h-.957a1.2,1.2,0,0,0-1.32,1.353,1.192,1.192,0,0,0,1.32,1.32Zm28.842-.1a17.081,17.081,0,0,1-1.353,5.445,7.987,7.987,0,0,1-7.623,4.752c-.33,0-1.947-.231-2.31-.231a1.329,1.329,0,0,0-1.32,1.419c0,1.32,1.485,1.716,3.663,1.716,7.359,0,12.276-5.577,12.276-15.279,0-9.933-6.072-11.781-9.537-11.781a8.578,8.578,0,0,0-8.91,8.91,8.093,8.093,0,0,0,8.415,8.415A7.737,7.737,0,0,0,208.923-12.573Zm-6.2-11.055a5.81,5.81,0,0,1,6.072,5.973c0,3.663-3.168,5.676-6.138,5.676a5.418,5.418,0,0,1-5.676-5.676A5.626,5.626,0,0,1,202.719-23.628Zm19.8,15.477a1.418,1.418,0,0,0,1.551-1.584,1.411,1.411,0,0,0-1.551-1.518h-6.072A1.415,1.415,0,0,0,214.9-9.7a1.411,1.411,0,0,0,1.551,1.551Zm6.072-5.148c0,.627,0,1.65,1.452,1.65a2.793,2.793,0,0,0,1.584-.561,6.238,6.238,0,0,1,4.026-1.254c3.6,0,6.006,2.145,6.006,5.379,0,2.673-1.716,5.709-7.029,5.709a12.683,12.683,0,0,1-4.587-.825c-.1-.033-1.617-.594-1.749-.594a1.43,1.43,0,0,0-1.287,1.485,1.4,1.4,0,0,0,.957,1.353,15.862,15.862,0,0,0,6.9,1.485c6.237,0,10-3.7,10-8.613-.033-5.016-3.927-8.25-8.976-8.25a9.868,9.868,0,0,0-4.356.99v-6.534c0-1.023.4-1.221,1.254-1.221h8.778a1.307,1.307,0,0,0,1.419-1.485A1.3,1.3,0,0,0,241.56-26h-9.57c-3.4,0-3.4,2.409-3.4,3.63Zm28.446-9.24V-.99c0,.957.528,1.518,1.617,1.518A1.412,1.412,0,0,0,260.238-.99V-24.453c0-.825,0-2.079-1.551-2.079a3.457,3.457,0,0,0-1.815.759l-4.62,3.135c-.429.3-.891.627-.891,1.188a1.592,1.592,0,0,0,1.353,1.551,1.8,1.8,0,0,0,.99-.4Zm28.479-.561L273.207-2.079a2.263,2.263,0,0,0-.462,1.188,1.578,1.578,0,0,0,1.65,1.419c.825,0,1.089-.429,1.419-1.023l12.408-21.483a4.435,4.435,0,0,0,.792-2.409C289.014-26,287.76-26,286.737-26H271.458a1.306,1.306,0,0,0-1.452,1.452,1.329,1.329,0,0,0,1.452,1.452ZM307.263-8.547v-15.84c0-.891,0-2.145-1.683-2.145a2.845,2.845,0,0,0-2.277,1.584L292.776-9.7c-.891,1.287-1.122,1.65-1.122,2.376,0,1.584,1.815,1.584,2.772,1.584H304.1V-.957c0,.99.561,1.485,1.584,1.485a1.4,1.4,0,0,0,1.584-1.485V-5.742h2.343a1.259,1.259,0,0,0,1.419-1.419,1.275,1.275,0,0,0-1.419-1.386Zm-12.078,0,8.91-13.035V-8.547Z" transform="translate(851 112.808)" fill="#f07800"/></g></svg>