<svg xmlns="http://www.w3.org/2000/svg" xmlns:xlink="http://www.w3.org/1999/xlink" width="1280" height="153.734" viewBox="0 0 1280 153.734"><defs><clipPath id="a"><rect width="1280" height="153.734" fill="none"/></clipPath></defs><g clip-path="url(#a)"><path d="M1165.9,76.867q-3.33-3.444-6.663-6.934-3.6-3.763-7.243-7.532c-30.833-31.849-64.7-62.4-128-62.4s-97.171,30.552-128,62.4q3.642,3.762,7.243,7.533,3.339,3.488,6.663,6.934c29.083-30.083,58.612-56.815,114.1-56.815s85.014,26.732,114.1,56.815q3.33,3.444,6.664,6.935,3.6,3.763,7.241,7.531c30.834,31.849,64.706,62.4,128,62.4V133.682c-55.486,0-85.013-26.732-114.1-56.815" fill="#f0f0d8"/><path d="M882.084,76.867c-29.084,30.083-58.611,56.815-114.1,56.815S682.975,106.95,653.893,76.867q-3.33-3.444-6.662-6.933-3.6-3.765-7.243-7.533c-30.832-31.849-64.7-62.4-128-62.4s-97.167,30.552-128,62.4q3.642,3.76,7.241,7.531,3.339,3.488,6.664,6.935c29.084-30.083,58.611-56.815,114.1-56.815S597,46.784,626.083,76.867q3.33,3.444,6.663,6.934,3.6,3.765,7.242,7.532c30.832,31.849,64.7,62.4,128,62.4s97.17-30.552,128-62.4q-3.642-3.761-7.242-7.531-3.339-3.488-6.664-6.935" fill="#f0f0d8"/><path d="M370.087,76.868C341,106.951,311.478,133.682,255.994,133.682S170.984,106.95,141.9,76.867q-3.33-3.444-6.663-6.933-3.6-3.765-7.242-7.533C97.165,30.552,63.3,0,0,0V20.053c55.483,0,85.01,26.731,114.092,56.814q3.33,3.444,6.663,6.934,3.6,3.765,7.242,7.532c30.832,31.849,64.7,62.4,128,62.4s97.166-30.552,128-62.4q-3.642-3.762-7.243-7.533-3.338-3.486-6.662-6.933" fill="#f0f0d8"/><path d="M626.084,76.867C597,106.95,567.475,133.682,511.991,133.682S426.98,106.951,397.9,76.868q-3.33-3.445-6.664-6.935-3.6-3.763-7.241-7.531C353.16,30.553,319.291,0,255.994,0S158.828,30.552,128,62.4q3.642,3.762,7.243,7.533,3.337,3.486,6.662,6.933c29.082-30.083,58.61-56.814,114.092-56.814S341,46.785,370.087,76.868q3.33,3.444,6.663,6.933,3.6,3.765,7.242,7.533c30.832,31.848,64.7,62.4,128,62.4s97.166-30.552,128-62.4q-3.642-3.762-7.242-7.532-3.339-3.488-6.663-6.934" fill="#78aeb4"/><path d="M1138.092,76.867c-29.084,30.083-58.613,56.815-114.1,56.815S938.98,106.949,909.9,76.867q-3.33-3.444-6.663-6.934-3.6-3.765-7.243-7.533C865.157,30.552,831.285,0,767.987,0s-97.166,30.552-128,62.4q3.642,3.762,7.243,7.533,3.337,3.488,6.662,6.933c29.083-30.082,58.61-56.814,114.093-56.814S853,46.783,882.085,76.866q3.33,3.446,6.664,6.936,3.6,3.763,7.241,7.531c30.834,31.848,64.706,62.4,128,62.4s97.17-30.552,128-62.4q-3.642-3.761-7.242-7.531-3.339-3.488-6.664-6.935" fill="#78aeb4"/><path d="M114.092,76.867C85.01,106.95,55.483,133.682,0,133.682v20.052c63.3,0,97.166-30.552,128-62.4q-3.642-3.761-7.242-7.532-3.339-3.488-6.663-6.934" fill="#78aeb4"/><path d="M1152,62.4q3.642,3.762,7.242,7.532,3.339,3.488,6.664,6.934c29.083-30.083,58.611-56.814,114.1-56.814V0c-63.3,0-97.17,30.553-128,62.4" fill="#78aeb4"/><path d="M182.8,76.367h20.052V30.25A128.171,128.171,0,0,0,182.8,41.059Z" fill="#a8d800"/><path d="M182.8,112.675a128.171,128.171,0,0,0,20.052,10.809V76.367H182.8Z" fill="#f07800"/><path d="M63.591,76.367H43.539v50.746a121.808,121.808,0,0,0,20.052-8.674Z" fill="#00a8c0"/><path d="M63.591,35.295a121.807,121.807,0,0,0-20.052-8.674V76.367H63.591Z" fill="#c04890"/><path d="M302.169,126.2a122.819,122.819,0,0,0,20.052-9.243V76.367H302.169Z" fill="#c04890"/><path d="M302.169,76.367h20.052V36.78a122.942,122.942,0,0,0-20.052-9.243Z" fill="#00a8c0"/><path d="M241.792,20.691V76.367h20.052V20.16c-1.919-.068-3.866-.107-5.851-.107-4.939,0-9.655.231-14.2.638" fill="#c04890"/><path d="M241.792,133.043c4.546.407,9.262.638,14.2.638,1.985,0,3.932-.039,5.851-.106V76.367H241.792Z" fill="#00a8c0"/><path d="M467.959,26.778a121.909,121.909,0,0,0-20.052,8.788v40.8h20.052Z" fill="#f07800"/><path d="M467.959,76.367H447.907v41.8a121.907,121.907,0,0,0,20.052,8.787Z" fill="#a8d800"/><path d="M582.819,76.367H562.767v48.092a125.947,125.947,0,0,0,20.052-10.253Z" fill="#a8d800"/><path d="M582.819,39.527a125.943,125.943,0,0,0-20.052-10.252V76.367h20.052Z" fill="#f07800"/><path d="M524.831,20.576c-4.128-.332-8.391-.523-12.839-.523-2.461,0-4.852.071-7.213.174v56.14h20.052Z" fill="#c04890"/><path d="M524.831,133.158V76.367H504.779v57.14c2.36.1,4.751.174,7.212.174,4.449,0,8.712-.191,12.84-.523" fill="#00a8c0"/><path d="M696.828,76.367H716.88V29.406a126.32,126.32,0,0,0-20.052,10.329Z" fill="#00a8c0"/><path d="M696.828,114a126.155,126.155,0,0,0,20.052,10.329V76.367H696.828Z" fill="#c04890"/><path d="M814.481,76.367h20.052V36.958a123.025,123.025,0,0,0-20.052-9.309Z" fill="#00a8c0"/><path d="M814.481,126.085a123.025,123.025,0,0,0,20.052-9.309V76.367H814.481Z" fill="#c04890"/><path d="M755.7,133.205c3.956.3,8.036.477,12.285.477,2.654,0,5.229-.083,7.767-.2V76.367H755.7Z" fill="#00a8c0"/><path d="M755.7,20.529V76.367h20.052V20.255c-2.538-.12-5.113-.2-7.767-.2-4.249,0-8.329.174-12.285.477" fill="#c04890"/><path d="M974.942,76.367H954.89v38.89a124.394,124.394,0,0,0,20.052,9.885Z" fill="#00a8c0"/><path d="M974.942,28.592a124.473,124.473,0,0,0-20.052,9.884V76.367h20.052Z" fill="#c04890"/><path d="M1093.569,76.367h-20.052v48.589a125,125,0,0,0,20.052-9.985Z" fill="#a8d800"/><path d="M1093.569,38.763a125,125,0,0,0-20.052-9.985V76.367h20.052Z" fill="#f07800"/><path d="M1228.574,76.367h20.052V23.834h-2.292a121.679,121.679,0,0,0-17.76,5.7Z" fill="#00a8c0"/><path d="M1228.574,124.2a121.259,121.259,0,0,0,13.872,4.7h6.18V76.368h-20.052Z" fill="#c04890"/><path d="M1034.783,20.405q-5.229-.348-10.79-.353c-3.177,0-6.251.106-9.262.277V76.367h20.052Z" fill="#c04890"/><path d="M1034.783,133.329V76.367h-20.052V133.4c3.011.171,6.085.277,9.262.277q5.566,0,10.79-.353" fill="#00a8c0"/></g></svg>