<svg xmlns="http://www.w3.org/2000/svg" xmlns:xlink="http://www.w3.org/1999/xlink" width="375" height="45.039" viewBox="0 0 375 45.039"><defs><clipPath id="a"><rect width="375" height="45.039" transform="translate(0 0)" fill="none"/></clipPath></defs><g transform="translate(0 0)"><g clip-path="url(#a)"><path d="M341.573,22.52q-.975-1.01-1.952-2.031-1.056-1.1-2.122-2.207C328.466,8.951,318.543,0,300,0S271.53,8.951,262.5,18.282q1.066,1.1,2.122,2.207.978,1.021,1.952,2.031C275.091,13.706,283.742,5.875,300,5.875S324.9,13.707,333.425,22.52q.977,1.01,1.953,2.032,1.055,1.1,2.121,2.206c9.033,9.331,18.957,18.282,37.5,18.282V39.165c-16.256,0-24.906-7.832-33.427-16.645" fill="#f0f0d8"/><path d="M258.423,22.519C249.9,31.332,241.252,39.164,225,39.164S200.09,31.332,191.57,22.519q-.975-1.009-1.952-2.031-1.056-1.1-2.122-2.207C178.464,8.95,168.541,0,150,0S121.53,8.95,112.5,18.281q1.068,1.1,2.122,2.207.978,1.021,1.952,2.031C125.092,13.706,133.742,5.874,150,5.874s24.906,7.832,33.426,16.645q.975,1.01,1.952,2.032,1.056,1.1,2.121,2.206c9.033,9.331,18.956,18.282,37.5,18.282s28.468-8.951,37.5-18.282q-1.066-1.1-2.122-2.206-.978-1.021-1.952-2.032" fill="#f0f0d8"/><path d="M108.424,22.52C99.9,31.333,91.253,39.165,75,39.165S50.093,31.333,41.573,22.52q-.975-1.01-1.952-2.031-1.056-1.1-2.122-2.207C28.466,8.951,18.544,0,0,0V5.875c16.255,0,24.905,7.831,33.425,16.645q.977,1.008,1.953,2.031,1.055,1.1,2.121,2.207C46.532,36.089,56.455,45.039,75,45.039s28.467-8.95,37.5-18.281q-1.068-1.1-2.122-2.207-.978-1.021-1.952-2.031" fill="#f0f0d8"/><path d="M183.423,22.519C174.9,31.332,166.252,39.164,150,39.164s-24.9-7.831-33.426-16.645q-.975-1.009-1.952-2.031-1.056-1.1-2.121-2.207C103.465,8.951,93.542,0,75,0S46.532,8.95,37.5,18.281q1.066,1.1,2.122,2.207.978,1.021,1.952,2.031C50.093,13.706,58.744,5.874,75,5.874s24.9,7.832,33.426,16.645q.975,1.01,1.952,2.032,1.056,1.1,2.122,2.206c9.032,9.331,18.955,18.282,37.5,18.282s28.467-8.951,37.5-18.282q-1.068-1.1-2.122-2.206-.978-1.023-1.952-2.032" fill="#78aeb4"/><path d="M333.425,22.52C324.9,31.333,316.253,39.165,300,39.165s-24.907-7.832-33.427-16.645q-.977-1.01-1.952-2.031-1.056-1.1-2.122-2.207C253.464,8.951,243.54,0,225,0s-28.467,8.951-37.5,18.282q1.068,1.1,2.122,2.207.978,1.021,1.952,2.031C200.091,13.707,208.741,5.875,225,5.875S249.9,13.706,258.423,22.52q.975,1.01,1.952,2.032,1.056,1.1,2.122,2.206C271.53,36.089,281.453,45.04,300,45.04s28.468-8.951,37.5-18.282q-1.066-1.1-2.122-2.206-.978-1.023-1.952-2.032" fill="#78aeb4"/><path d="M33.425,22.519C24.905,31.332,16.254,39.164,0,39.164v5.875c18.543,0,28.466-8.951,37.5-18.282q-1.068-1.1-2.122-2.207-.978-1.021-1.952-2.031" fill="#78aeb4"/><path d="M337.5,18.281q1.066,1.1,2.122,2.207.978,1.021,1.952,2.031C350.093,13.706,358.744,5.874,375,5.874V0c-18.544,0-28.468,8.95-37.5,18.281" fill="#78aeb4"/><path d="M53.555,22.373H59.43V8.862a37.593,37.593,0,0,0-5.875,3.167Z" fill="#a8d800"/><path d="M53.555,33.01a37.593,37.593,0,0,0,5.875,3.167v-13.8H53.555Z" fill="#f07800"/><path d="M18.63,22.373H12.755V37.24A35.741,35.741,0,0,0,18.63,34.7Z" fill="#00a8c0"/><path d="M18.63,10.34A35.655,35.655,0,0,0,12.755,7.8V22.373H18.63Z" fill="#c04890"/><path d="M88.526,36.972A35.968,35.968,0,0,0,94.4,34.264V22.373H88.526Z" fill="#c04890"/><path d="M88.526,22.373H94.4v-11.6a36.052,36.052,0,0,0-5.875-2.708Z" fill="#00a8c0"/><path d="M70.838,6.062V22.373h5.875V5.906C76.15,5.887,75.58,5.875,75,5.875c-1.447,0-2.828.068-4.16.187" fill="#c04890"/><path d="M70.838,38.977c1.332.119,2.713.187,4.16.187.582,0,1.152-.012,1.715-.031V22.373H70.838Z" fill="#00a8c0"/><path d="M137.1,7.845a35.663,35.663,0,0,0-5.875,2.575V22.373H137.1Z" fill="#f07800"/><path d="M137.1,22.373h-5.875V34.62a35.745,35.745,0,0,0,5.875,2.574Z" fill="#a8d800"/><path d="M170.748,22.373h-5.875V36.462a36.979,36.979,0,0,0,5.875-3Z" fill="#a8d800"/><path d="M170.748,11.58a36.9,36.9,0,0,0-5.875-3v13.8h5.875Z" fill="#f07800"/><path d="M153.759,6.028c-1.209-.1-2.458-.153-3.762-.153-.72,0-1.421.021-2.113.051V22.373h5.875Z" fill="#c04890"/><path d="M153.759,39.011V22.373h-5.875v16.74c.692.03,1.392.051,2.113.051,1.3,0,2.553-.056,3.762-.153" fill="#00a8c0"/><path d="M204.149,22.373h5.875V8.615a36.984,36.984,0,0,0-5.875,3.026Z" fill="#00a8c0"/><path d="M204.149,33.4a36.983,36.983,0,0,0,5.875,3.026V22.373h-5.875Z" fill="#c04890"/><path d="M238.618,22.373h5.875V10.827A36.111,36.111,0,0,0,238.618,8.1Z" fill="#00a8c0"/><path d="M238.618,36.939a36.111,36.111,0,0,0,5.875-2.727V22.373h-5.875Z" fill="#c04890"/><path d="M221.4,39.025c1.159.089,2.354.14,3.6.14.778,0,1.532-.024,2.276-.06V22.373H221.4Z" fill="#00a8c0"/><path d="M221.4,6.014V22.373h5.875V5.934c-.744-.035-1.5-.06-2.276-.06-1.245,0-2.44.051-3.6.14" fill="#c04890"/><path d="M285.627,22.373h-5.875V33.767a36.628,36.628,0,0,0,5.875,2.9Z" fill="#00a8c0"/><path d="M285.627,8.376a36.462,36.462,0,0,0-5.875,2.9v11.1h5.875Z" fill="#c04890"/><path d="M320.382,22.373h-5.875V36.608a36.69,36.69,0,0,0,5.875-2.925Z" fill="#a8d800"/><path d="M320.382,11.356a36.607,36.607,0,0,0-5.875-2.925V22.373h5.875Z" fill="#f07800"/><path d="M359.934,22.373h5.875V6.982h-.672a35.671,35.671,0,0,0-5.2,1.67Z" fill="#00a8c0"/><path d="M359.934,36.387A35.5,35.5,0,0,0,364,37.764h1.811V22.373h-5.875Z" fill="#c04890"/><path d="M303.159,5.978q-1.531-.1-3.161-.1c-.931,0-1.831.031-2.714.081V22.373h5.875Z" fill="#c04890"/><path d="M303.159,39.061V22.373h-5.875v16.71c.883.05,1.783.081,2.714.081q1.631,0,3.161-.1" fill="#00a8c0"/></g></g></svg>