<svg xmlns="http://www.w3.org/2000/svg" width="34.875" height="36" viewBox="0 0 34.875 36"><path d="M4.5,32.625H6.75V36H4.5A4.5,4.5,0,0,1,0,31.5V4.5A4.5,4.5,0,0,1,4.5,0H16.137a4.5,4.5,0,0,1,3.185,1.315l6.363,6.363A4.5,4.5,0,0,1,27,10.863V20.25H23.625v-9H18A2.248,2.248,0,0,1,15.75,9V3.375H4.5A1.128,1.128,0,0,0,3.375,4.5v27A1.128,1.128,0,0,0,4.5,32.625Zm7.875-7.875h2.25a3.938,3.938,0,0,1,0,7.875H13.5v2.25a1.125,1.125,0,0,1-2.25,0v-9A1.128,1.128,0,0,1,12.375,24.75Zm2.25,5.625a1.688,1.688,0,0,0,0-3.375H13.5v3.375Zm6.75-5.625h2.25A3.376,3.376,0,0,1,27,28.125v4.5A3.376,3.376,0,0,1,23.625,36h-2.25a1.128,1.128,0,0,1-1.125-1.125v-9A1.128,1.128,0,0,1,21.375,24.75Zm2.25,9a1.128,1.128,0,0,0,1.125-1.125v-4.5A1.128,1.128,0,0,0,23.625,27H22.5v6.75Zm5.625-7.875a1.128,1.128,0,0,1,1.125-1.125H33.75a1.125,1.125,0,0,1,0,2.25H31.5v2.25h2.25a1.125,1.125,0,0,1,0,2.25H31.5v3.375a1.125,1.125,0,0,1-2.25,0Z" fill="#006c90"/></svg>