<svg xmlns="http://www.w3.org/2000/svg" width="27" height="36" viewBox="0 0 27 36"><path d="M3.375,31.5V4.5A1.128,1.128,0,0,1,4.5,3.375H15.75V9A2.248,2.248,0,0,0,18,11.25h5.625V31.5A1.128,1.128,0,0,1,22.5,32.625H4.5A1.128,1.128,0,0,1,3.375,31.5ZM4.5,0A4.5,4.5,0,0,0,0,4.5v27A4.5,4.5,0,0,0,4.5,36h18A4.5,4.5,0,0,0,27,31.5V10.863a4.5,4.5,0,0,0-1.315-3.185l-6.37-6.363A4.485,4.485,0,0,0,16.137,0ZM8.367,16.952a1.688,1.688,0,1,0-3.234.97l3.375,11.25a1.689,1.689,0,0,0,3.234,0L13.5,23.309l1.758,5.864a1.689,1.689,0,0,0,3.234,0l3.375-11.25a1.688,1.688,0,1,0-3.234-.97l-1.758,5.864-1.758-5.864a1.689,1.689,0,0,0-3.234,0l-1.758,5.864Z" fill="#006c90"/></svg>