<svg xmlns="http://www.w3.org/2000/svg" width="347.112" height="115.932" viewBox="0 0 347.112 115.932"><g transform="translate(-54.84 -34.625)"><path d="M6.1-27.072c-2.112.288-3.168.432-3.168,2.112,0,.912.384,2.16,1.776,2.16.624,0,8.016-1.2,9.5-1.44-.576,2.352-3.264,12.672-8.448,21.12C4.848-1.632,4.56-1.2,4.56-.432c0,1.488,1.632,2.016,2.448,2.016,1.3,0,2.448-2.208,3.7-4.56A96.313,96.313,0,0,0,18.576-24.72c.72,0,1.632-.1,2.352-.1,5.856,0,6.624,3.072,6.624,8.544,0,3.072-.336,8.064-1.488,10.8-.432,1.056-1.392,2.88-5.9,2.88-.336,0-1.968-.192-2.352-.192-1.2,0-1.632,1.1-1.632,2.016,0,1.68,1.056,2.3,4.608,2.3,7.584,0,10.944-3.744,10.944-17.664,0-6.384-.624-12.96-12.192-12.48.48-2.4,1.632-7.536,1.632-8.832,0-1.2-1.152-1.68-2.256-1.68-1.824,0-1.968,1.2-2.16,2.256-.624,3.984-.72,4.464-1.584,8.592ZM36.048-38.64a1.95,1.95,0,0,0-2.16,1.872c0,.384.1.72.768,1.392a28.567,28.567,0,0,1,4.032,4.608c1.008,1.488,1.248,1.776,2.064,1.776a1.912,1.912,0,0,0,1.872-1.92c0-.624-.144-1.056-1.776-3.12C39.456-35.76,37.2-38.448,36.048-38.64Zm-4.416,5.76a1.91,1.91,0,0,0-1.968,1.728c0,.624.1.672,1.68,2.352a30.543,30.543,0,0,1,7.488,14.3c.432,1.824.624,2.592,2.016,2.592.432,0,2.4-.192,2.4-2.064,0-1.344-1.392-6.72-4.9-12.192C37.056-28.176,33.456-32.88,31.632-32.88Zm10.176-9.744a1.927,1.927,0,0,0-2.16,1.872c0,.384.048.72.72,1.392a26.447,26.447,0,0,1,4.08,4.608c1.008,1.44,1.248,1.776,2.064,1.776a1.946,1.946,0,0,0,1.872-1.92c0-.624-.144-1.056-1.776-3.12C45.216-39.792,42.96-42.48,41.808-42.624ZM58.992-18.432c1.056-2.064,4.416-8.592,8.448-16.176C68.5-36.576,68.5-36.816,68.5-37.2a2.264,2.264,0,0,0-2.3-1.872c-1.152,0-1.584.72-2.736,3.024C58.9-26.976,51.7-12.384,47.136-3.312c-.624,1.3-.768,1.536-.768,2.208a2.192,2.192,0,0,0,2.3,1.92C49.44.816,49.824.48,50.5-.672c.672-1.248,3.6-7.392,4.368-8.736C59.9-18.576,66-18.72,67.056-18.72a2.764,2.764,0,0,1,3.072,2.928c0,1.44-1.2,8.448-1.2,10.032,0,7.152,6.144,7.152,7.248,7.152,8.88,0,12.672-10.608,12.672-11.9a2.1,2.1,0,0,0-2.208-1.92c-1.056,0-1.3.528-2.064,2.3-2.64,6.048-5.808,7.488-8.16,7.488-1.008,0-3.36-.288-3.36-3.12,0-.768.336-2.976.624-5.232.336-2.256.624-4.512.624-5.328,0-4.128-2.736-6.336-6.432-6.336C63.456-22.656,60.24-19.584,58.992-18.432ZM114.48-25.1c-.192,7.776-.864,16.848-10.992,23.424-1.68,1.1-1.92,1.248-1.92,2.112a2.336,2.336,0,0,0,2.3,2.3c1.584,0,6.144-3.216,9.216-7.152,5.232-6.72,5.52-13.584,5.856-20.688h11.232a1.841,1.841,0,0,0,2.064-2.112,1.852,1.852,0,0,0-2.064-2.064H103.824c.816-1.632,3.168-6.432,3.168-7.776,0-1.1-1.248-1.776-2.448-1.776-1.152,0-1.584.672-1.968,1.632a65.383,65.383,0,0,1-8.784,16.08c-2.064,2.64-2.256,2.88-2.256,3.408a2.328,2.328,0,0,0,2.3,2.112A3.139,3.139,0,0,0,96.1-17.04a56.754,56.754,0,0,0,5.52-8.064Zm7.872-16.32a1.427,1.427,0,0,0-.576-.1,1.928,1.928,0,0,0-2.016,1.872c0,.432.288.768.864,1.68a25.439,25.439,0,0,1,2.544,4.8c.672,1.68.912,2.256,2.016,2.256a1.991,1.991,0,0,0,1.92-1.92C127.1-33.84,123.888-40.8,122.352-41.424Zm7.968-1.1a1.329,1.329,0,0,0-.624-.144,1.911,1.911,0,0,0-1.968,1.776c0,.48.144.72.816,1.728a27.419,27.419,0,0,1,2.448,4.9c.672,1.728.912,2.256,2.016,2.256a1.957,1.957,0,0,0,1.92-1.92C134.928-35.04,131.76-41.952,130.32-42.528Zm-.192,43.92c1.3,0,11.9-4.8,19.968-14.112A54.077,54.077,0,0,0,161.76-35.9c0-1.488-1.632-2.064-2.5-2.064-1.488,0-1.776,1.152-2.448,3.5A48.983,48.983,0,0,1,131.424-3.792c-3.456,1.728-3.648,1.824-3.648,2.88A2.325,2.325,0,0,0,130.128,1.392ZM162.96-4.9c-1.152.144-2.3.288-2.3,1.968,0,.24,0,2.256,1.92,2.256.288,0,.384-.048,1.2-.144l31.248-4.416c1.2,2.352,1.3,2.64,2.4,5.088.384.768.768,1.584,1.92,1.584a2.291,2.291,0,0,0,2.4-2.016c0-1.44-3.744-8.88-8.112-15.7-3.552-5.472-3.936-5.472-4.848-5.472a2.052,2.052,0,0,0-2.208,1.92,3.542,3.542,0,0,0,.912,2.016,87.912,87.912,0,0,1,5.568,8.88L172.128-6.1c3.216-7.1,11.616-28.848,11.616-30.528,0-1.248-1.632-1.872-2.64-1.872-1.3,0-1.44.384-2.544,3.648-1.2,3.6-5.136,15.072-11.328,29.376Zm68.88-13.968a21.206,21.206,0,0,0,.384-3.792v-2.88h11.328a1.615,1.615,0,0,0,1.872-1.728,1.593,1.593,0,0,0-1.872-1.68H224.016c1.152-2.4,1.248-2.64,1.248-3.168a1.851,1.851,0,0,0-2.016-1.776,1.784,1.784,0,0,0-1.632,1.3,27.225,27.225,0,0,1-4.848,7.776c-1.728,1.872-1.92,2.064-1.92,2.688a2.222,2.222,0,0,0,2.112,2.016,2.306,2.306,0,0,0,1.584-.864,27.2,27.2,0,0,0,3.5-4.56h6.432v2.976a27.679,27.679,0,0,1-.336,3.7H215.328c-.816,0-1.824.144-1.824,1.728,0,1.68,1.248,1.68,1.824,1.68h11.664c-3.072,6.336-8.4,8.256-11.568,9.168-.768.24-1.488.528-1.488,1.584,0,.672.432,2.16,1.872,2.16,1.1,0,10.32-2.448,14.64-11.952,3.552,7.68,13.776,12,15.36,12,1.536,0,1.92-1.584,1.92-2.256a1.3,1.3,0,0,0-.672-1.3c-.288-.144-1.824-.72-2.208-.816a22.133,22.133,0,0,1-11.04-8.592h12c.528,0,1.824,0,1.824-1.68a1.573,1.573,0,0,0-1.824-1.728ZM213.792-38.688c-4.512,0-6.24,1.584-6.24,6.24v29.28c0,4.7,1.824,6.192,6.24,6.192h34.272A1.716,1.716,0,0,0,250.08,1.2a1.72,1.72,0,0,0-2.016-1.776H214.272c-2.016,0-2.736-1.056-2.736-2.784V-32.3c0-1.824.816-2.784,2.736-2.784H247.1c.528,0,2.016,0,2.016-1.776a1.732,1.732,0,0,0-2.016-1.824ZM293.136-16.56c2.736,1.776,3.072,1.776,3.456,1.776a2,2,0,0,0,1.872-2.064,1.439,1.439,0,0,0-.96-1.392c-.576-.288-3.264-1.68-3.888-2.016.864-.912,2.88-3.072,2.88-3.936a1.725,1.725,0,0,0-1.728-1.488,1.566,1.566,0,0,0-1.248.672,38.043,38.043,0,0,1-2.448,2.976,22.206,22.206,0,0,1-4.416-4.56H296.4c1.152,0,1.728-.432,1.728-1.632,0-1.536-1.152-1.536-1.728-1.536H280.848a4.6,4.6,0,0,0,.336-1.344c0-1.056-1.3-1.44-1.968-1.44a1.4,1.4,0,0,0-1.248.672c-.144.288-.72,1.776-.864,2.112H266.688c-1.248,0-1.728.528-1.728,1.632,0,1.392,1.1,1.536,1.728,1.536h8.64a23.314,23.314,0,0,1-3.888,4.464c-1.152-1.2-2.544-2.544-2.736-2.736a1.847,1.847,0,0,0-1.248-.624,1.758,1.758,0,0,0-1.728,1.536c0,.528.336.816,3.264,3.792-.48.288-2.928,1.824-3.5,2.16a1.589,1.589,0,0,0-.912,1.392,1.847,1.847,0,0,0,1.68,1.92c.336,0,.672,0,2.592-1.248v5.088c0,2.64.816,4.224,4.224,4.224h5.9v5.28c0,1.008-.288,1.44-1.008,1.584-.48.1-2.64,0-3.168,0s-1.728,0-1.728,1.584a1.731,1.731,0,0,0,.96,1.68c.384.144.432.192,2.88.192,4.272,0,6,0,6-4.512V-6.624h6c3.6,0,4.224-1.824,4.224-4.224Zm-20.592.048c0-1.008.432-1.584,1.536-1.584H287.9a1.4,1.4,0,0,1,1.584,1.584v1.44H272.544Zm2.256-4.272a34.089,34.089,0,0,0,4.464-5.808h3.744a22.263,22.263,0,0,0,4.7,5.808Zm14.688,8.3v1.536A1.381,1.381,0,0,1,287.9-9.36H274.08c-1.1,0-1.536-.576-1.536-1.584V-12.48Zm-29.472-19.1V-18.24a50.7,50.7,0,0,1-5.664,3.312A1.829,1.829,0,0,0,253.2-13.2c0,.768.384,2.208,1.632,2.208,1.152,0,3.552-1.92,5.04-3.12-.72,7.056-2.3,9.6-5.184,14.064a2.842,2.842,0,0,0-.624,1.584A2.133,2.133,0,0,0,256.128,3.5c.768,0,1.3-.144,3.12-3.12,4.464-7.3,4.464-15.6,4.464-20.352v-11.28a1.909,1.909,0,0,1,2.16-2.16H296.5c.72,0,1.92-.1,1.92-1.68s-1.392-1.632-1.92-1.632H280.56v-2.352c0-1.44-.912-1.776-2.064-1.776-1.632,0-1.92,1.008-1.92,1.776v2.352H265.152C261.552-36.72,260.016-35.472,260.016-31.584Zm-4.608-1.248a1.81,1.81,0,0,0-1.824,1.632,3.461,3.461,0,0,0,.336,1.3c.72,1.824.96,2.256,1.3,3.312,1.152,3.36,1.152,3.5,2.16,3.5.672,0,2.16-.384,2.16-1.776,0-.816-1.584-4.608-2.064-5.76C256.8-32.256,256.416-32.832,255.408-32.832Zm18.72,29.376A1.815,1.815,0,0,0,272.4-5.328c-.576,0-.624,0-2.688,1.488a30.611,30.611,0,0,1-4.56,2.64C262.752-.048,262.56.048,262.56.96a1.745,1.745,0,0,0,1.68,1.824c1.2,0,4.224-1.824,5.616-2.64C271.2-.672,274.128-2.448,274.128-3.456Zm13.008-.1c0,1.1,2.88,2.88,4.32,3.744,1.1.672,4.224,2.5,5.28,2.5A2,2,0,0,0,298.608.672a1.31,1.31,0,0,0-.96-1.3,41.413,41.413,0,0,1-6.72-3.7c-1.488-1.1-1.488-1.1-1.968-1.1A1.853,1.853,0,0,0,287.136-3.552Zm35.376-6.912H308.16a1.622,1.622,0,0,0-1.872,1.728A1.62,1.62,0,0,0,308.16-6.96h14.352v5.712H304.368A1.729,1.729,0,0,0,302.352.624,1.723,1.723,0,0,0,304.368,2.5h40.56A1.7,1.7,0,0,0,346.9.624a1.7,1.7,0,0,0-1.968-1.872H326.592V-6.96h14.544c.576,0,1.92-.048,1.92-1.728,0-1.632-1.152-1.776-1.92-1.776H326.592v-5.472c6.912-.384,8.3-.432,11.088-.72.384.384,2.208,2.4,2.4,2.544a1.9,1.9,0,0,0,1.3.576,2.353,2.353,0,0,0,2.112-2.112c0-.624-.1-.816-2.3-3.024a72.817,72.817,0,0,0-6.384-5.472,2.771,2.771,0,0,0-1.392-.528,1.923,1.923,0,0,0-1.824,1.824,1.448,1.448,0,0,0,.672,1.248c.336.336,1.968,1.728,2.3,2.016-8.976.48-9.216.48-16.944.72a71.252,71.252,0,0,0,3.84-6.576h17.52c.576,0,1.824-.048,1.824-1.68,0-1.488-.96-1.632-1.824-1.632H310.368c-.528,0-1.872,0-1.872,1.632s1.3,1.68,1.872,1.68h6.72a54.911,54.911,0,0,1-3.936,6.672c-.912,0-5.952.1-6.336.144a1.505,1.505,0,0,0-1.152,1.632c0,1.872,1.392,1.872,2.064,1.872.576,0,9.12-.24,14.784-.576Zm4.08-26.256v-2.352c0-1.344-.72-1.728-2.16-1.728-1.872,0-1.968,1.152-1.968,1.728v2.352H308.736c-3.984,0-5.184,1.152-5.184,5.232V-27.6c0,1.344.528,2.016,2.112,2.016a1.736,1.736,0,0,0,1.92-1.968V-31.1c0-1.392.624-2.064,2.016-2.064h29.952a1.794,1.794,0,0,1,2.064,2.064v3.5c0,1.536.72,2.016,2.16,2.016A1.728,1.728,0,0,0,345.7-27.6v-3.888c0-4.176-1.248-5.232-5.184-5.232Z" transform="translate(54 113.134)" fill="#f0f0d8"/><path d="M11.376-1.1C10.2-1.008,9.72-.96,9.72-.12c0,.528.192,1.056.984,1.056A99.464,99.464,0,0,0,20.808-.5c.048.192.36,1.9.384,1.968.1.336.312.528.816.528A1.042,1.042,0,0,0,23.136.936a45.8,45.8,0,0,0-2.592-9.672c-.576-1.464-.72-1.656-1.272-1.656a.924.924,0,0,0-1.032.864,18.973,18.973,0,0,0,.912,2.712c.264.672,1.032,3.336,1.3,4.56C18.6-1.9,14.52-1.392,13.3-1.248A123.72,123.72,0,0,0,16.56-19.392.962.962,0,0,0,15.5-20.424c-.96,0-.96.36-1.176,2.592-.1,1.1-.648,5.472-1.632,10.728C12.144-4.224,11.928-3.288,11.376-1.1ZM1.848-19.7a.86.86,0,0,0-1.008.888.866.866,0,0,0,1.008.912h5.04a.724.724,0,0,1,.816.816v2.352a.732.732,0,0,1-.816.84h-3c-.816,0-1.728.048-2.088,1.224-.048.192-.528,3.792-.528,4.056,0,1.848,1.608,1.848,2.208,1.848h3.6c.744,0,.744.5.744.84a29.945,29.945,0,0,1-.408,4.584C7.176-.12,6.528-.12,5.808-.12c-.6,0-2.16-.048-2.4-.048a.863.863,0,0,0-.984.96.991.991,0,0,0,.528.96c.192.072.288.1,2.064.1,2.424,0,3.576,0,4.08-1.776a37.842,37.842,0,0,0,.648-6.648c0-1.488-.72-2.016-2.256-2.016H3.84c-.192,0-.576,0-.576-.552,0-.264.312-2.4.336-2.5a.609.609,0,0,1,.7-.5H7.368c1.584,0,2.232-.552,2.232-2.208V-17.5c0-1.656-.648-2.208-2.232-2.208ZM41.688-3.792V-.96a.7.7,0,0,1-.672.816c-.168,0-1.224-.024-1.44-.024-.384,0-.984,0-.984.912,0,1.056.792,1.056,1.248,1.056,2.208,0,2.3,0,2.736-.144.96-.336,1.008-1.3,1.008-2.088v-10.9c0-1.8-.552-2.256-2.256-2.256H36.84c-1.752,0-2.256.48-2.256,2.256V1.008c0,.624.216,1.008.96,1.008.864,0,.96-.576.96-1.008v-4.8ZM36.5-11.04c0-.5.216-.768.768-.768H40.92a.676.676,0,0,1,.768.768V-9.5H36.5Zm5.184,5.592H36.5V-7.872h5.184Zm.264-11.832a17.02,17.02,0,0,0-1.272-2.3,1.135,1.135,0,0,0-1.008-.672c-.48,0-1.2.312-1.2.744a1.436,1.436,0,0,0,.144.6c.1.24.768,1.368.888,1.632H33.936a.818.818,0,0,0-.96.888.833.833,0,0,0,.96.912H54.672a.825.825,0,0,0,.96-.912.826.826,0,0,0-.96-.888H49.344c.936-1.512,1.056-1.776,1.056-2.112,0-.744-.816-.888-1.224-.888-.672,0-.864.384-1.176,1.008-.672,1.344-.744,1.488-1.032,1.992Zm6.36,4.608c0-.7-.312-.936-1.056-.936a.821.821,0,0,0-.936.936v9.528c0,.7.312.96,1.056.96a.825.825,0,0,0,.936-.96Zm5.76-.576c0-.768-.336-.96-1.056-.96-.888,0-.936.6-.936.96V-1.272c0,1.032-.648,1.08-1.152,1.08-.336,0-1.968-.024-2.328-.024-.336,0-.936.048-.936.96a1.035,1.035,0,0,0,.5.984,12.406,12.406,0,0,0,1.968.1c1.9,0,2.5,0,3.048-.336a2.421,2.421,0,0,0,.888-2.232Zm21.12.96a14.872,14.872,0,0,1-8.9,11.976c-.48.24-.768.456-.768.984a1.131,1.131,0,0,0,1.032,1.176c.672,0,3.288-1.536,5.16-3.216a17.139,17.139,0,0,0,4.92-7.992,17.52,17.52,0,0,0,5.016,8.04c1.7,1.56,4.128,3.1,4.824,3.1a1.2,1.2,0,0,0,1.1-1.2c0-.528-.312-.744-.744-.96-6.576-3.384-8.04-7.776-8.976-11.9h8.928c.48,0,1.056-.144,1.056-1.008a.915.915,0,0,0-1.056-.984H77.448v-4.944c0-.72-.336-1.008-1.128-1.008a.886.886,0,0,0-1.008,1.008v4.944H66.288c-.5,0-1.08.144-1.08,1.008a.932.932,0,0,0,1.08.984Zm27.672-4.08c.648-.168.84-.552.84-.864a5.823,5.823,0,0,0-.84-1.824c-.528-.864-.768-1.224-1.32-1.224-.5,0-1.1.336-1.1.84a1.36,1.36,0,0,0,.24.624c.1.144.624,1.008.72,1.2.576,1.032.624,1.152.912,1.248H100.92c-1.8,0-2.568.6-2.568,2.544v1.992c0,.744.336.984,1.08.984.936,0,.96-.672.96-1.008v-1.776a.9.9,0,0,1,1.008-1.032h14.9c.7,0,1.008.336,1.008,1.032v1.776c0,.648.24.984,1.08.984.96,0,.96-.672.96-.984v-1.968c0-.984-.1-2.544-2.328-2.544h-1.248a10.9,10.9,0,0,0,1.536-3.024c0-.672-.744-.912-1.128-.912-.552,0-.648.216-1.2,1.344a23.823,23.823,0,0,1-1.392,2.592Zm7.176,9.912v-.5a32.537,32.537,0,0,0,3.408-1.872c1.3-.84,2.112-1.44,2.112-2.4,0-1.2-1.056-1.2-1.872-1.2H102.36a.834.834,0,0,0-.936.888.794.794,0,0,0,.912.888h9.576c.312,0,.48,0,.48.216,0,.288-2.208,1.608-3.456,2.136-.7-.1-.96.264-.96.744v1.1H98.64a.863.863,0,0,0-1.008.912.866.866,0,0,0,1.008.912h9.336v3.24c0,1.08-.552,1.2-1.272,1.2-.072,0-2.424-.048-2.472-.048a.848.848,0,0,0-.984.96,1.243,1.243,0,0,0,.432.96c.216.144.5.144,1.32.144h2.448c1.968,0,2.592-.72,2.592-2.592V-4.632h8.9c.336,0,1.008-.024,1.008-.912a.858.858,0,0,0-1.008-.912ZM107.952-20.5c-.264,0-1.032.24-1.032.84,0,.216.072.36.72,1.56.792,1.44.816,1.536,1.344,1.536.288,0,1.1-.144,1.1-.888a6.318,6.318,0,0,0-.936-2.112C108.648-20.4,108.552-20.5,107.952-20.5ZM143.088-9.432a10.6,10.6,0,0,0,.192-1.9v-1.44h5.664a.808.808,0,0,0,.936-.864.8.8,0,0,0-.936-.84h-9.768c.576-1.2.624-1.32.624-1.584a.925.925,0,0,0-1.008-.888.892.892,0,0,0-.816.648,13.612,13.612,0,0,1-2.424,3.888c-.864.936-.96,1.032-.96,1.344a1.111,1.111,0,0,0,1.056,1.008,1.153,1.153,0,0,0,.792-.432,13.6,13.6,0,0,0,1.752-2.28h3.216v1.488a13.837,13.837,0,0,1-.168,1.848h-6.408c-.408,0-.912.072-.912.864,0,.84.624.84.912.84h5.832a8.614,8.614,0,0,1-5.784,4.584c-.384.12-.744.264-.744.792,0,.336.216,1.08.936,1.08a10.522,10.522,0,0,0,7.32-5.976c1.776,3.84,6.888,6,7.68,6,.768,0,.96-.792.96-1.128a.647.647,0,0,0-.336-.648c-.144-.072-.912-.36-1.1-.408a11.066,11.066,0,0,1-5.52-4.3h6c.264,0,.912,0,.912-.84a.787.787,0,0,0-.912-.864Zm-9.024-9.912c-2.256,0-3.12.792-3.12,3.12v14.64c0,2.352.912,3.1,3.12,3.1H151.2A.858.858,0,0,0,152.208.6.86.86,0,0,0,151.2-.288H134.3c-1.008,0-1.368-.528-1.368-1.392V-16.152c0-.912.408-1.392,1.368-1.392H150.72c.264,0,1.008,0,1.008-.888a.866.866,0,0,0-1.008-.912Zm33.36,2.976c.648-.168.84-.552.84-.864a5.823,5.823,0,0,0-.84-1.824c-.528-.864-.768-1.224-1.32-1.224-.5,0-1.1.336-1.1.84a1.36,1.36,0,0,0,.24.624c.1.144.624,1.008.72,1.2.576,1.032.624,1.152.912,1.248H165.48c-1.8,0-2.568.6-2.568,2.544v1.992c0,.744.336.984,1.08.984.936,0,.96-.672.96-1.008v-1.776a.9.9,0,0,1,1.008-1.032h14.9c.7,0,1.008.336,1.008,1.032v1.776c0,.648.24.984,1.08.984.96,0,.96-.672.96-.984v-1.968c0-.984-.1-2.544-2.328-2.544h-1.248a10.9,10.9,0,0,0,1.536-3.024c0-.672-.744-.912-1.128-.912-.552,0-.648.216-1.2,1.344a23.826,23.826,0,0,1-1.392,2.592ZM174.6-6.456v-.5a32.535,32.535,0,0,0,3.408-1.872c1.3-.84,2.112-1.44,2.112-2.4,0-1.2-1.056-1.2-1.872-1.2H166.92a.834.834,0,0,0-.936.888.794.794,0,0,0,.912.888h9.576c.312,0,.48,0,.48.216,0,.288-2.208,1.608-3.456,2.136-.7-.1-.96.264-.96.744v1.1H163.2a.863.863,0,0,0-1.008.912.866.866,0,0,0,1.008.912h9.336v3.24c0,1.08-.552,1.2-1.272,1.2-.072,0-2.424-.048-2.472-.048a.848.848,0,0,0-.984.96,1.243,1.243,0,0,0,.432.96c.216.144.5.144,1.32.144h2.448c1.968,0,2.592-.72,2.592-2.592V-4.632h8.9c.336,0,1.008-.024,1.008-.912a.858.858,0,0,0-1.008-.912ZM172.512-20.5c-.264,0-1.032.24-1.032.84,0,.216.072.36.72,1.56.792,1.44.816,1.536,1.344,1.536.288,0,1.1-.144,1.1-.888a6.318,6.318,0,0,0-.936-2.112C173.208-20.4,173.112-20.5,172.512-20.5Zm23.5,2.76a.853.853,0,0,0-.984.864.851.851,0,0,0,.984.888h.84a31.391,31.391,0,0,1,.936,4.8h-2.376a.794.794,0,0,0-.912.888c0,.888.648.888.936.888h11.016c.288,0,.936,0,.936-.864,0-.84-.552-.912-.936-.912H203.9a47.353,47.353,0,0,0,1.176-4.8h.864a.836.836,0,0,0,.96-.864.842.842,0,0,0-.96-.888h-4.008v-1.776c0-.24,0-.888-.936-.888-.7,0-1.056.216-1.056.888v1.776Zm7.152,1.752a38.424,38.424,0,0,1-1.1,4.8h-2.424a48.426,48.426,0,0,0-.96-4.8Zm-4.728,8.832c-2.04,0-2.592.576-2.592,2.592V-.984c0,2.04.576,2.616,2.592,2.616h4.944c2.064,0,2.592-.624,2.592-2.616V-4.56c0-2.064-.6-2.592-2.592-2.592Zm5.64,6A.906.906,0,0,1,203.04-.12h-4.248a.906.906,0,0,1-1.032-1.032V-4.416c0-.816.432-1.056,1.032-1.056h4.248c.648,0,1.032.288,1.032,1.056Zm5.808-15.84c0-.48.192-.792.768-.792h2.592c.288,0,.768,0,.768.48,0,.72-1.728,3.984-2.28,5.016a2.4,2.4,0,0,0-.288,1.008c0,.552.048.6,1.44,2.136a6.793,6.793,0,0,1,1.824,4.2c0,.984-.336,2.64-2.16,2.64-.144,0-.936-.048-1.1-.048-.648,0-.816.384-.816.912,0,.912.48.984.7,1.032.216.024,1.536.024,1.9,0,3.12-.168,3.5-3.12,3.5-4.224a7.385,7.385,0,0,0-1.08-3.792,9.523,9.523,0,0,0-2.04-2.52.65.65,0,0,1-.24-.456.905.905,0,0,1,.12-.384c.792-1.44.864-1.584,1.3-2.52,1.152-2.5,1.248-2.976,1.248-3.6,0-1.728-1.392-1.728-2.5-1.728h-3.36c-1.776,0-2.256.528-2.256,2.256V1.152c0,.72.288,1.008,1.032,1.008a.857.857,0,0,0,.936-1.008Zm19.464-.048c0-.48.216-.768.792-.768h1.44c.192,0,.648,0,.648.5a18.381,18.381,0,0,1-1.176,3.528c-.48,1.128-.576,1.344-.576,1.7,0,.432.072.552.72,1.584A6.509,6.509,0,0,1,232.416-6.6c0,1.7-.72,1.7-2.016,1.7-.408,0-.648.264-.648.768C229.752-3,230.376-3,231-3c1.32,0,3.312,0,3.312-3.192a8.828,8.828,0,0,0-1.68-5.064c-.36-.5-.408-.672-.408-.888,0-.264.1-.456.744-2.016a12.983,12.983,0,0,0,1.2-3.936c0-1.56-1.272-1.56-2.208-1.56h-2.208c-1.8,0-2.256.5-2.256,2.232V1.152c0,.576.192.984.936.984.864,0,.912-.6.912-.984ZM236.16,1.176a.869.869,0,0,0,.936,1.008c.912,0,.96-.648.96-1.008V-14.832a19.439,19.439,0,0,0,1.392-4.68c0-.672-.672-.792-1.032-.792-.7,0-.84.408-.936.912a19.653,19.653,0,0,1-2.76,6.48c-.072.12-1.056,1.44-1.056,1.488a.843.843,0,0,0-.12.48,1.122,1.122,0,0,0,1.032,1.176c.36,0,.648-.12,1.584-1.512ZM247.272-13.3h.984c.384,0,.864-.12.864-.96,0-.792-.48-.936-.864-.936h-.984v-4.2c0-.336-.024-.96-.984-.96-.984,0-.984.672-.984.96v4.2h-5.568c-.384,0-.936.072-.936.96,0,.936.648.936.936.936H245.3v12c0,.816-.288,1.056-.936,1.1-.168.024-.984,0-1.152,0-.912,0-1.584,0-1.584.912,0,.336.12.888.576,1.008a12.24,12.24,0,0,0,1.92.1c1.848,0,3.144-.072,3.144-2.568Zm-6.816,2.64a.9.9,0,0,0-.96.816A7.367,7.367,0,0,0,240.12-8.3,22.027,22.027,0,0,1,241.3-5.472c.432,1.3.5,1.44,1.056,1.44.36,0,1.1-.168,1.1-.912a17.556,17.556,0,0,0-1.368-3.528C241.056-10.632,240.912-10.656,240.456-10.656ZM271.272-1.9c-.576.024-3.1.144-3.7.216-.288.024-.84.072-.84.72,0,.816.7.816.96.816.576,0,6.1-.528,8.016-.792.384.888.432.96.816.96a.7.7,0,0,0,.744-.672,8.349,8.349,0,0,0-1.128-2.544c-.192-.36-.36-.456-.624-.456-.192,0-.7.1-.7.576,0,.24.072.36.288.84-.7.1-.912.12-1.992.192V-4.152h4.848a.714.714,0,0,1,.816.816V-.72a.715.715,0,0,1-.816.816c-.216,0-1.32-.048-1.56-.048a.773.773,0,0,0-.888.816c0,.96.744.96,1.248.96A10.643,10.643,0,0,0,279.7,1.68c.96-.312,1.032-1.272,1.032-2.112v-2.9c0-1.752-.5-2.232-2.256-2.232H273.12V-6.984h4.968c1.272,0,1.728-.312,1.728-1.7v-.888c0-1.368-.432-1.7-1.728-1.7H273.12V-12.5c2.592-.12,3.672-.192,4.656-.288,1.344-.144,1.7-.192,1.7-.816a.677.677,0,0,0-.7-.768c-.24,0-1.944.216-2.328.24-3.624.312-7.272.336-10.944.36-.456,0-.936,0-.936.72s.552.72,1.152.72c1.032,0,5.064-.1,5.544-.1v1.152H266.52c-1.368,0-1.728.384-1.728,1.7v.888c0,1.392.432,1.7,1.728,1.7h4.752v1.416h-5.16c-1.776,0-2.256.5-2.256,2.232V1.1c0,.48.1.936.96.936s.936-.528.936-.936v-4.44a.714.714,0,0,1,.816-.816h4.7Zm-4.08-6.432c-.384,0-.576-.168-.576-.576v-.48a.509.509,0,0,1,.576-.576h4.08v1.632ZM273.12-9.96h4.272a.517.517,0,0,1,.576.576v.48a.509.509,0,0,1-.576.576H273.12ZM262.9-15H278.52c1.416,0,1.776-.408,1.776-1.752v-.96c0-1.392-.384-1.776-1.776-1.776H263.208c-1.752,0-2.232.5-2.232,2.256v7.152A39.305,39.305,0,0,1,260.688-6,19.543,19.543,0,0,1,259.1-.216a1.79,1.79,0,0,0-.192.768,1.1,1.1,0,0,0,1.1,1.008c.5,0,.744-.216,1.272-1.56A31.786,31.786,0,0,0,262.9-10.128Zm0-2.208a.672.672,0,0,1,.768-.768h14.088c.432,0,.6.216.6.576v.36a.524.524,0,0,1-.6.6H262.9Zm47.016,8.736a.715.715,0,0,1,.816.816V-.744c0,.84-.5.864-.912.864-.048,0-1.32-.048-1.56-.024a.739.739,0,0,0-.816.84.823.823,0,0,0,.648.864c.216.048,1.224.048,1.848.048,1.824,0,2.688-.072,2.688-2.256V-7.872c0-1.68-.648-2.208-2.208-2.208h-4.464c.048-.384.192-2.112.192-2.5h6.36c.24,0,.984,0,.984-.84,0-.816-.624-.864-.984-.864h-14.16c-.288,0-.984.024-.984.864,0,.7.456.84.984.84h5.928c0,.24-.024,1.392-.12,2.5h-3.768c-1.584,0-2.208.576-2.208,2.208v8.9a.841.841,0,0,0,.912.984c.672,0,.984-.24.984-.984V-7.656c0-.576.288-.816.84-.816h3A7.727,7.727,0,0,1,300.7-3.48a.82.82,0,0,0-.408.672,1.079,1.079,0,0,0,.936,1.008c.624,0,2.808-1.656,4.008-4.992a12.534,12.534,0,0,0,2.52,3.6c.456.456,1.344,1.272,1.824,1.272a.92.92,0,0,0,.912-.864c0-.312-.024-.336-1.032-1.152a8.644,8.644,0,0,1-3.216-4.536Zm-15.048-1.44c0,.264-.024.792-.024.984a29.809,29.809,0,0,1-2.832,1.368c-.816.36-1.032.456-1.032,1.032,0,.336.192,1.1.84,1.1a12.944,12.944,0,0,0,2.832-1.392,13.727,13.727,0,0,1-2.712,6.84,1.214,1.214,0,0,0-.336.768A1.1,1.1,0,0,0,292.7,1.8c.336,0,.6,0,1.56-1.464,2.04-3.12,2.5-7.128,2.5-10.008v-5.616a.944.944,0,0,1,1.08-1.08h14.688c.624,0,.96-.216.96-.936,0-.84-.7-.84-.96-.84h-7.944v-1.272c0-.72-.408-.888-1.08-.888-.744,0-1.008.288-1.008.888v1.272h-5.088c-1.824,0-2.544.624-2.544,2.544Zm-2.568-6.36a.942.942,0,0,0-.96.84,1.688,1.688,0,0,0,.192.624c.312.672.768,1.68.96,2.208.408,1.056.48,1.2.96,1.2a1.031,1.031,0,0,0,1.08-.888,9.786,9.786,0,0,0-.936-2.352C292.9-16.1,292.824-16.272,292.3-16.272Zm47.04-1.68v-1.584c0-.36-.1-.888-.96-.888-.96,0-.96.672-.96.888v1.584h-3.84c-1.512,0-2.208.48-2.208,2.208v1.92c0,.408.072,1.008.96,1.008a.865.865,0,0,0,.936-1.008v-1.584a.675.675,0,0,1,.768-.768h8.592a.682.682,0,0,1,.768.768v1.584c0,.528.144.984.96.984.912,0,.936-.648.936-.984v-1.92c0-1.7-.672-2.208-2.208-2.208Zm3.024,6.1c.288,0,.936,0,.936-.864s-.648-.864-.936-.864h-7.944a.8.8,0,0,0-.936.864.8.8,0,0,0,.936.864Zm-18.1,12.984c0,.384.048,1.008.936,1.008.816,0,.936-.5.936-1.008V-17.04c0-.5.216-.792.768-.792h1.488c.24,0,.624,0,.624.5A20.581,20.581,0,0,1,327.84-13.9c-.5,1.272-.576,1.416-.576,1.68a1.7,1.7,0,0,0,.384.984,7.942,7.942,0,0,1,1.536,4.584c0,1.68-.576,1.68-1.512,1.68-.648,0-1.08,0-1.08.96,0,.864.624,1.032,1.152,1.032a3.859,3.859,0,0,0,2.112-.312c.984-.552,1.2-1.776,1.2-2.952a9.091,9.091,0,0,0-1.7-5.16c-.336-.456-.456-.624-.456-.84a6,6,0,0,1,.624-1.584,13.5,13.5,0,0,0,1.344-4.272c0-1.584-1.152-1.584-2.328-1.584H326.52c-1.752,0-2.256.456-2.256,2.232ZM340.9-7.56h4.032c.288,0,1.008,0,1.008-.912a.858.858,0,0,0-1.008-.912h-12.96a.875.875,0,0,0-1.032.912.875.875,0,0,0,1.032.912h2.9c-.1,5.184-1.584,6.336-4.368,7.608-.432.192-.744.36-.744.864a1.051,1.051,0,0,0,.96,1.08A7.126,7.126,0,0,0,333.7.48c2.544-2.04,2.976-4.752,3.048-8.04H339V-.336c0,2.16.84,2.256,2.736,2.256,2.472,0,2.952,0,3.384-.576a8.034,8.034,0,0,0,.744-3.528.833.833,0,0,0-.936-.96.7.7,0,0,0-.72.408c-.072.264-.192,1.608-.264,1.92-.168.888-.168.888-1.608.888-1.08,0-1.44,0-1.44-.84Z" transform="translate(54 55.121)" fill="#f0f0d8"/><path d="M2.88-7.408v-4.72c0-.544-.336-.736-.784-.736a.689.689,0,0,0-.768.736V-.48a.687.687,0,0,0,.784.736A.686.686,0,0,0,2.88-.48V-6H9.088V-.48c0,.528.32.736.784.736a.679.679,0,0,0,.752-.736V-12.128a.669.669,0,0,0-.768-.736.689.689,0,0,0-.768.736v4.72Zm11.376-5.536a1,1,0,0,0-.992.992.99.99,0,0,0,.992,1.008,1,1,0,0,0,.992-1.008A.987.987,0,0,0,14.256-12.944ZM13.52-.448c0,.464.256.7.752.7a.655.655,0,0,0,.72-.7V-8.96a.658.658,0,0,0-.736-.7.637.637,0,0,0-.736.7Zm5.7-4.816a3.493,3.493,0,0,1,.416-1.92A2.535,2.535,0,0,1,21.424-8.32c.624-.08.9-.128.9-.688a.6.6,0,0,0-.592-.672,3.059,3.059,0,0,0-2.544,1.488v-.8a.634.634,0,0,0-.72-.688.64.64,0,0,0-.7.688v8.56c0,.512.32.688.736.688a.641.641,0,0,0,.72-.688Zm3.968.56A4.623,4.623,0,0,0,27.792.256,4.617,4.617,0,0,0,32.416-4.7,4.631,4.631,0,0,0,27.792-9.68,4.628,4.628,0,0,0,23.184-4.7Zm1.456,0c0-2.736,1.776-3.648,3.152-3.648s3.168.9,3.168,3.648c0,2.688-1.728,3.648-3.168,3.648C26.368-1.056,24.64-2.016,24.64-4.7Zm9.712,3.152a.688.688,0,0,0-.656.7.613.613,0,0,0,.352.56,6.269,6.269,0,0,0,2.624.544c2.08,0,3.728-.944,3.728-2.832,0-1.872-1.5-2.352-2.512-2.672-1.84-.592-2.368-.768-2.368-1.712s.848-1.392,1.92-1.392a3.815,3.815,0,0,1,1.152.176c.016,0,.528.16.592.16a.66.66,0,0,0,.608-.688.678.678,0,0,0-.512-.624,4.769,4.769,0,0,0-1.888-.352c-1.9,0-3.312,1.056-3.312,2.736,0,1.808,1.488,2.272,2.464,2.576,1.616.512,2.416.752,2.416,1.76,0,.352-.16,1.552-2.24,1.552a5.574,5.574,0,0,1-1.7-.272C34.928-1.36,34.4-1.552,34.352-1.552Zm15.392-4.5A3.49,3.49,0,0,0,49.152-8.4,4.167,4.167,0,0,0,45.9-9.68a6.107,6.107,0,0,0-2.512.544c-.3.128-.592.272-.592.656a.64.64,0,0,0,.576.672,1.28,1.28,0,0,0,.544-.176,5.345,5.345,0,0,1,2.032-.4c1.3,0,2.352.5,2.352,1.568,0,.8-.256.832-2.512,1.168-1.36.192-3.76.544-3.76,3.088A2.791,2.791,0,0,0,45.088.256,3.952,3.952,0,0,0,48.4-1.408c.016,1.36.32,1.664.8,1.664.192,0,.752-.1.752-.624,0-.048-.1-.464-.112-.544a4.55,4.55,0,0,1-.1-1.008ZM48.336-3.12A3.581,3.581,0,0,1,45.2-.976a1.563,1.563,0,0,1-1.776-1.632c0-1.52,1.28-1.712,2.5-1.888,1.792-.272,2-.3,2.416-.56Zm5.52-2.56v-6.848c0-.512-.32-.688-.736-.688a.645.645,0,0,0-.72.688v12.1c0,.512.32.688.736.688a.641.641,0,0,0,.72-.688V-5.344L58.24-.24c.4.464.432.5.672.5a.8.8,0,0,0,.784-.7,1.208,1.208,0,0,0-.352-.64l-3.92-4.384,3.232-2.976a.969.969,0,0,0,.336-.592.724.724,0,0,0-.72-.64c-.192,0-.224.048-.624.416Zm8.432-7.264a1,1,0,0,0-.992.992.99.99,0,0,0,.992,1.008,1,1,0,0,0,.992-1.008A.987.987,0,0,0,62.288-12.944Zm-.736,12.5c0,.464.256.7.752.7a.655.655,0,0,0,.72-.7V-8.96a.658.658,0,0,0-.736-.7.637.637,0,0,0-.736.7Zm9.792-4.976c0,1.632.048,5.68,5.3,5.68s5.3-4.064,5.3-5.68v-6.7c0-.48-.272-.736-.784-.736a.679.679,0,0,0-.768.736v6.656c0,1.552,0,4.32-3.744,4.32-3.76,0-3.76-2.768-3.76-4.32v-6.656c0-.544-.32-.736-.784-.736a.679.679,0,0,0-.752.736ZM92.16-5.36a5.571,5.571,0,0,0-.432-2.832,3.038,3.038,0,0,0-2.8-1.488,3.18,3.18,0,0,0-2.864,1.488v-.8a.634.634,0,0,0-.72-.688.64.64,0,0,0-.7.688v8.56c0,.512.32.688.736.688a.641.641,0,0,0,.72-.688v-4.88a3.557,3.557,0,0,1,.4-1.9A2.5,2.5,0,0,1,88.64-8.352c2.08,0,2.08,1.7,2.08,3.04v4.88c0,.464.272.688.736.688a.633.633,0,0,0,.7-.688Zm3.488-7.584a1,1,0,0,0-.992.992.99.99,0,0,0,.992,1.008,1,1,0,0,0,.992-1.008A.987.987,0,0,0,95.648-12.944Zm-.736,12.5c0,.464.256.7.752.7a.655.655,0,0,0,.72-.7V-8.96a.658.658,0,0,0-.736-.7.637.637,0,0,0-.736.7ZM102-1.5,99.68-8.976c-.128-.4-.224-.7-.7-.7-.208,0-.768.1-.768.608a1.8,1.8,0,0,0,.112.56l2.528,7.648c.208.656.368,1.12,1.168,1.12.784,0,.944-.48,1.152-1.12l2.512-7.648a2.193,2.193,0,0,0,.128-.56c0-.5-.544-.608-.768-.608-.48,0-.576.3-.7.7Zm11.7-2.752c.752,0,1.6,0,1.6-1.056,0-1.52-1.024-4.368-4.112-4.368-2.672,0-4.272,2.288-4.272,5.04,0,1.824.816,4.9,4.784,4.9a7.556,7.556,0,0,0,2.592-.448.614.614,0,0,0,.432-.592.617.617,0,0,0-.592-.656.764.764,0,0,0-.288.064,5.853,5.853,0,0,1-2.1.352,3.046,3.046,0,0,1-3.392-3.232Zm-5.312-1.136c.16-1.92,1.312-3.008,2.8-3.008a2.852,2.852,0,0,1,2.7,2.768c0,.24-.16.24-.352.24Zm10.464.128a3.493,3.493,0,0,1,.416-1.92,2.535,2.535,0,0,1,1.792-1.136c.624-.08.9-.128.9-.688a.6.6,0,0,0-.592-.672,3.059,3.059,0,0,0-2.544,1.488v-.8a.634.634,0,0,0-.72-.688.64.64,0,0,0-.7.688v8.56c0,.512.32.688.736.688a.641.641,0,0,0,.72-.688Zm4.784,3.712a.688.688,0,0,0-.656.7.613.613,0,0,0,.352.56,6.269,6.269,0,0,0,2.624.544c2.08,0,3.728-.944,3.728-2.832,0-1.872-1.5-2.352-2.512-2.672-1.84-.592-2.368-.768-2.368-1.712s.848-1.392,1.92-1.392a3.815,3.815,0,0,1,1.152.176c.016,0,.528.16.592.16a.66.66,0,0,0,.608-.688.678.678,0,0,0-.512-.624,4.769,4.769,0,0,0-1.888-.352c-1.9,0-3.312,1.056-3.312,2.736,0,1.808,1.488,2.272,2.464,2.576,1.616.512,2.416.752,2.416,1.76,0,.352-.16,1.552-2.24,1.552a5.574,5.574,0,0,1-1.7-.272C124.208-1.36,123.68-1.552,123.632-1.552Zm8.912-11.392a1,1,0,0,0-.992.992.99.99,0,0,0,.992,1.008,1,1,0,0,0,.992-1.008A.987.987,0,0,0,132.544-12.944Zm-.736,12.5c0,.464.256.7.752.7a.655.655,0,0,0,.72-.7V-8.96a.658.658,0,0,0-.736-.7.637.637,0,0,0-.736.7ZM138.592-8.1h2.3a.594.594,0,0,0,.656-.672.6.6,0,0,0-.656-.656h-2.3V-11.68c0-.512-.32-.688-.736-.688a.638.638,0,0,0-.72.688v2.256h-1.36a.607.607,0,0,0-.672.672.6.6,0,0,0,.672.656h1.36v5.424c0,1.328,0,2.928,2.656,2.928.976,0,1.6,0,1.6-.7a.592.592,0,0,0-.624-.64c-.032,0-.592.032-.7.032-1.36,0-1.472-.576-1.472-1.664Zm7.5,7.28L144.5,3.2a1.1,1.1,0,0,0-.112.464c0,.432.416.592.736.592.416,0,.512-.24.656-.608l4.88-12.224a1.315,1.315,0,0,0,.144-.5c0-.384-.416-.608-.784-.608-.416,0-.528.256-.64.544l-2.544,6.528-2.544-6.528c-.112-.288-.224-.544-.624-.544-.352,0-.8.208-.8.592a1.378,1.378,0,0,0,.144.528Zm13.5-6.592v-4.72c0-.544-.336-.736-.784-.736a.689.689,0,0,0-.768.736V-.48a.687.687,0,0,0,.784.736A.686.686,0,0,0,159.6-.48V-6h6.208V-.48c0,.528.32.736.784.736a.679.679,0,0,0,.752-.736V-12.128a.669.669,0,0,0-.768-.736.689.689,0,0,0-.768.736v4.72Zm10.016,2.7a4.623,4.623,0,0,0,4.608,4.96,4.617,4.617,0,0,0,4.624-4.96,4.631,4.631,0,0,0-4.624-4.976A4.628,4.628,0,0,0,169.616-4.7Zm1.456,0c0-2.736,1.776-3.648,3.152-3.648s3.168.9,3.168,3.648c0,2.688-1.728,3.648-3.168,3.648C172.8-1.056,171.072-2.016,171.072-4.7Zm9.712,3.152a.688.688,0,0,0-.656.7.613.613,0,0,0,.352.56A6.27,6.27,0,0,0,183.1.256c2.08,0,3.728-.944,3.728-2.832,0-1.872-1.5-2.352-2.512-2.672-1.84-.592-2.368-.768-2.368-1.712s.848-1.392,1.92-1.392a3.815,3.815,0,0,1,1.152.176c.016,0,.528.16.592.16a.66.66,0,0,0,.608-.688.678.678,0,0,0-.512-.624,4.769,4.769,0,0,0-1.888-.352c-1.9,0-3.312,1.056-3.312,2.736,0,1.808,1.488,2.272,2.464,2.576,1.616.512,2.416.752,2.416,1.76,0,.352-.16,1.552-2.24,1.552a5.574,5.574,0,0,1-1.7-.272C181.36-1.36,180.832-1.552,180.784-1.552Zm9.52.208a3.666,3.666,0,0,0,3.12,1.6c2.416,0,4.192-1.92,4.192-4.96,0-3.056-1.792-4.976-4.192-4.976a3.675,3.675,0,0,0-3.152,1.648v-.96c0-.512-.3-.688-.72-.688a.637.637,0,0,0-.7.688V3.568c0,.512.32.688.736.688a.633.633,0,0,0,.72-.688Zm-.016-3.36c0-2.72,1.5-3.648,2.912-3.648s2.96.928,2.96,3.648c0,2.528-1.408,3.648-2.96,3.648C191.856-1.056,190.288-1.936,190.288-4.7Zm10.352-8.24a1,1,0,0,0-.992.992.99.99,0,0,0,.992,1.008,1,1,0,0,0,.992-1.008A.987.987,0,0,0,200.64-12.944ZM199.9-.448c0,.464.256.7.752.7a.655.655,0,0,0,.72-.7V-8.96a.658.658,0,0,0-.736-.7.637.637,0,0,0-.736.7ZM206.7-8.1h2.3a.594.594,0,0,0,.656-.672.6.6,0,0,0-.656-.656h-2.3V-11.68c0-.512-.32-.688-.736-.688a.638.638,0,0,0-.72.688v2.256h-1.36a.607.607,0,0,0-.672.672.6.6,0,0,0,.672.656h1.36v5.424c0,1.328,0,2.928,2.656,2.928.976,0,1.6,0,1.6-.7a.592.592,0,0,0-.624-.64c-.032,0-.592.032-.7.032-1.36,0-1.472-.576-1.472-1.664Zm11.872,2.048a3.49,3.49,0,0,0-.592-2.352,4.167,4.167,0,0,0-3.248-1.28,6.107,6.107,0,0,0-2.512.544c-.3.128-.592.272-.592.656a.64.64,0,0,0,.576.672,1.281,1.281,0,0,0,.544-.176,5.345,5.345,0,0,1,2.032-.4c1.3,0,2.352.5,2.352,1.568,0,.8-.256.832-2.512,1.168-1.36.192-3.76.544-3.76,3.088A2.791,2.791,0,0,0,213.92.256a3.952,3.952,0,0,0,3.312-1.664c.016,1.36.32,1.664.8,1.664.192,0,.752-.1.752-.624,0-.048-.1-.464-.112-.544a4.549,4.549,0,0,1-.1-1.008ZM217.168-3.12a3.581,3.581,0,0,1-3.136,2.144,1.563,1.563,0,0,1-1.776-1.632c0-1.52,1.28-1.712,2.5-1.888,1.792-.272,2-.3,2.416-.56Zm4.16.864c0,1.232.128,2.256,2.112,2.256h.3a.612.612,0,0,0,.672-.688.548.548,0,0,0-.56-.624h-.272c-.752,0-.8-.448-.8-1.04V-12.528c0-.512-.32-.688-.736-.688a.641.641,0,0,0-.72.688ZM237.744.256a8.253,8.253,0,0,0,3.488-.72.674.674,0,0,0,.48-.656.7.7,0,0,0-.656-.72c-.144,0-.208.016-.8.256a6.748,6.748,0,0,1-2.448.432A4.963,4.963,0,0,1,232.56-6.32a4.927,4.927,0,0,1,5.2-5.136,4.982,4.982,0,0,1,2.48.608,1.331,1.331,0,0,0,.56.176.719.719,0,0,0,.688-.752.672.672,0,0,0-.4-.608,6.567,6.567,0,0,0-3.376-.832,6.386,6.386,0,0,0-6.7,6.576A6.348,6.348,0,0,0,237.744.256Zm13.216-6.3a3.49,3.49,0,0,0-.592-2.352,4.167,4.167,0,0,0-3.248-1.28,6.107,6.107,0,0,0-2.512.544c-.3.128-.592.272-.592.656a.64.64,0,0,0,.576.672,1.281,1.281,0,0,0,.544-.176,5.345,5.345,0,0,1,2.032-.4c1.3,0,2.352.5,2.352,1.568,0,.8-.256.832-2.512,1.168-1.36.192-3.76.544-3.76,3.088A2.791,2.791,0,0,0,246.3.256a3.952,3.952,0,0,0,3.312-1.664c.016,1.36.32,1.664.8,1.664.192,0,.752-.1.752-.624,0-.048-.1-.464-.112-.544a4.549,4.549,0,0,1-.1-1.008ZM249.552-3.12a3.581,3.581,0,0,1-3.136,2.144,1.563,1.563,0,0,1-1.776-1.632c0-1.52,1.28-1.712,2.5-1.888,1.792-.272,2-.3,2.416-.56Zm11.584-2.24a5.571,5.571,0,0,0-.432-2.832,3.038,3.038,0,0,0-2.8-1.488,3.18,3.18,0,0,0-2.864,1.488v-.8a.634.634,0,0,0-.72-.688.64.64,0,0,0-.7.688v8.56c0,.512.32.688.736.688a.641.641,0,0,0,.72-.688v-4.88a3.557,3.557,0,0,1,.4-1.9,2.5,2.5,0,0,1,2.144-1.136c2.08,0,2.08,1.7,2.08,3.04v4.88c0,.464.272.688.736.688a.633.633,0,0,0,.7-.688ZM268.144.256a6.187,6.187,0,0,0,2.544-.5.635.635,0,0,0,.336-.576.631.631,0,0,0-.592-.672,1.015,1.015,0,0,0-.4.112,5.275,5.275,0,0,1-1.792.32c-2.464,0-3.5-1.7-3.5-3.664a3.317,3.317,0,0,1,3.424-3.632,3.762,3.762,0,0,1,1.52.3c.384.144.416.16.528.16.464,0,.624-.48.624-.736,0-.608-1.568-1.056-2.752-1.056a4.671,4.671,0,0,0-4.8,4.992A4.607,4.607,0,0,0,268.144.256Zm10.7-4.512c.752,0,1.6,0,1.6-1.056,0-1.52-1.024-4.368-4.112-4.368-2.672,0-4.272,2.288-4.272,5.04,0,1.824.816,4.9,4.784,4.9a7.556,7.556,0,0,0,2.592-.448.614.614,0,0,0,.432-.592.617.617,0,0,0-.592-.656.764.764,0,0,0-.288.064,5.853,5.853,0,0,1-2.1.352A3.046,3.046,0,0,1,273.5-4.256Zm-5.312-1.136c.16-1.92,1.312-3.008,2.8-3.008a2.852,2.852,0,0,1,2.7,2.768c0,.24-.16.24-.352.24ZM284-5.264a3.493,3.493,0,0,1,.416-1.92,2.535,2.535,0,0,1,1.792-1.136c.624-.08.9-.128.9-.688a.6.6,0,0,0-.592-.672,3.059,3.059,0,0,0-2.544,1.488v-.8a.634.634,0,0,0-.72-.688.64.64,0,0,0-.7.688v8.56c0,.512.32.688.736.688A.641.641,0,0,0,284-.432ZM300.832.256a8.253,8.253,0,0,0,3.488-.72.674.674,0,0,0,.48-.656.7.7,0,0,0-.656-.72c-.144,0-.208.016-.8.256a6.748,6.748,0,0,1-2.448.432,4.963,4.963,0,0,1-5.248-5.168,4.927,4.927,0,0,1,5.2-5.136,4.982,4.982,0,0,1,2.48.608,1.331,1.331,0,0,0,.56.176.719.719,0,0,0,.688-.752.672.672,0,0,0-.4-.608,6.567,6.567,0,0,0-3.376-.832,6.386,6.386,0,0,0-6.7,6.576A6.348,6.348,0,0,0,300.832.256ZM312.8-4.256c.752,0,1.6,0,1.6-1.056,0-1.52-1.024-4.368-4.112-4.368-2.672,0-4.272,2.288-4.272,5.04,0,1.824.816,4.9,4.784,4.9a7.556,7.556,0,0,0,2.592-.448.614.614,0,0,0,.432-.592.617.617,0,0,0-.592-.656.764.764,0,0,0-.288.064,5.853,5.853,0,0,1-2.1.352,3.046,3.046,0,0,1-3.392-3.232Zm-5.312-1.136c.16-1.92,1.312-3.008,2.8-3.008a2.852,2.852,0,0,1,2.7,2.768c0,.24-.16.24-.352.24Zm16.528.032a5.571,5.571,0,0,0-.432-2.832,3.038,3.038,0,0,0-2.8-1.488,3.181,3.181,0,0,0-2.864,1.488v-.8a.634.634,0,0,0-.72-.688.64.64,0,0,0-.7.688v8.56c0,.512.32.688.736.688a.641.641,0,0,0,.72-.688v-4.88a3.557,3.557,0,0,1,.4-1.9A2.5,2.5,0,0,1,320.5-8.352c2.08,0,2.08,1.7,2.08,3.04v4.88c0,.464.272.688.736.688a.633.633,0,0,0,.7-.688ZM329.008-8.1h2.3a.594.594,0,0,0,.656-.672.6.6,0,0,0-.656-.656h-2.3V-11.68c0-.512-.32-.688-.736-.688a.638.638,0,0,0-.72.688v2.256h-1.36a.607.607,0,0,0-.672.672.6.6,0,0,0,.672.656h1.36v5.424c0,1.328,0,2.928,2.656,2.928.976,0,1.6,0,1.6-.7a.592.592,0,0,0-.624-.64c-.032,0-.592.032-.7.032-1.36,0-1.472-.576-1.472-1.664ZM339.7-4.256c.752,0,1.6,0,1.6-1.056,0-1.52-1.024-4.368-4.112-4.368-2.672,0-4.272,2.288-4.272,5.04,0,1.824.816,4.9,4.784,4.9a7.556,7.556,0,0,0,2.592-.448.614.614,0,0,0,.432-.592.617.617,0,0,0-.592-.656.764.764,0,0,0-.288.064,5.853,5.853,0,0,1-2.1.352,3.046,3.046,0,0,1-3.392-3.232Zm-5.312-1.136c.16-1.92,1.312-3.008,2.8-3.008a2.852,2.852,0,0,1,2.7,2.768c0,.24-.16.24-.352.24Zm10.464.128a3.493,3.493,0,0,1,.416-1.92,2.535,2.535,0,0,1,1.792-1.136c.624-.08.9-.128.9-.688a.6.6,0,0,0-.592-.672,3.059,3.059,0,0,0-2.544,1.488v-.8a.634.634,0,0,0-.72-.688.64.64,0,0,0-.7.688v8.56c0,.512.32.688.736.688a.641.641,0,0,0,.72-.688Z" transform="translate(54 146.301)" fill="#f0f0d8"/></g></svg>