<svg xmlns="http://www.w3.org/2000/svg" width="285.872" height="120.115" viewBox="0 0 285.872 120.115"><g transform="translate(2833 -974.517)"><path d="M5.047-22.415c-1.749.238-2.623.358-2.623,1.749,0,.755.318,1.788,1.47,1.788.517,0,6.637-.994,7.869-1.192A67.056,67.056,0,0,1,4.769-2.583c-.755,1.232-.994,1.59-.994,2.226C3.776.874,5.127,1.312,5.8,1.312c1.073,0,2.027-1.828,3.06-3.776a79.746,79.746,0,0,0,6.518-18c.6,0,1.351-.079,1.947-.079,4.849,0,5.485,2.544,5.485,7.074,0,2.544-.278,6.677-1.232,8.942-.358.874-1.153,2.385-4.888,2.385-.278,0-1.629-.159-1.947-.159-.994,0-1.351.914-1.351,1.669,0,1.391.874,1.908,3.815,1.908,6.279,0,9.061-3.1,9.061-14.625,0-5.286-.517-10.731-10.095-10.333.4-1.987,1.351-6.24,1.351-7.313,0-.994-.954-1.391-1.868-1.391-1.51,0-1.629.994-1.788,1.868-.517,3.3-.6,3.7-1.312,7.114Zm24.8-9.578a1.615,1.615,0,0,0-1.788,1.55c0,.318.079.6.636,1.153a23.653,23.653,0,0,1,3.338,3.815c.835,1.232,1.033,1.47,1.709,1.47a1.583,1.583,0,0,0,1.55-1.59c0-.517-.119-.874-1.47-2.583C32.669-29.609,30.8-31.834,29.847-31.993Zm-3.656,4.769a1.581,1.581,0,0,0-1.629,1.431c0,.517.079.556,1.391,1.947A25.289,25.289,0,0,1,32.152-12c.358,1.51.517,2.146,1.669,2.146.358,0,1.987-.159,1.987-1.709,0-1.113-1.153-5.564-4.054-10.095C30.682-23.329,27.7-27.224,26.191-27.224Zm8.426-8.068a1.6,1.6,0,0,0-1.788,1.55c0,.318.04.6.6,1.153A21.9,21.9,0,0,1,36.8-28.774c.835,1.192,1.033,1.47,1.709,1.47a1.611,1.611,0,0,0,1.55-1.59c0-.517-.119-.874-1.47-2.583C37.438-32.947,35.57-35.173,34.616-35.292ZM49-15.261C49.878-16.97,52.66-22.375,56-28.655c.874-1.629.874-1.828.874-2.146a1.875,1.875,0,0,0-1.908-1.55c-.954,0-1.312.6-2.265,2.5-3.776,7.511-9.737,19.593-13.513,27.1-.517,1.073-.636,1.272-.636,1.828A1.815,1.815,0,0,0,40.458.676c.636,0,.954-.278,1.51-1.232.556-1.033,2.981-6.12,3.617-7.233,4.173-7.591,9.22-7.71,10.095-7.71a2.289,2.289,0,0,1,2.544,2.424c0,1.192-.994,6.995-.994,8.306,0,5.922,5.087,5.922,6,5.922,7.352,0,10.492-8.783,10.492-9.856a1.742,1.742,0,0,0-1.828-1.59c-.874,0-1.073.437-1.709,1.908-2.186,5.008-4.809,6.2-6.756,6.2a2.478,2.478,0,0,1-2.782-2.583c0-.636.278-2.464.517-4.332.278-1.868.517-3.736.517-4.411,0-3.418-2.265-5.246-5.326-5.246C52.7-18.759,50.037-16.215,49-15.261Zm46.062-5.524c-.159,6.438-.715,13.95-9.1,19.395-1.391.914-1.59,1.033-1.59,1.749a1.934,1.934,0,0,0,1.908,1.908c1.312,0,5.087-2.663,7.631-5.922,4.332-5.564,4.57-11.247,4.849-17.129h9.3a1.524,1.524,0,0,0,1.709-1.749,1.534,1.534,0,0,0-1.709-1.709H86.243c.676-1.351,2.623-5.326,2.623-6.438,0-.914-1.033-1.47-2.027-1.47-.954,0-1.312.556-1.629,1.351a54.136,54.136,0,0,1-7.273,13.314c-1.709,2.186-1.868,2.385-1.868,2.822a1.928,1.928,0,0,0,1.908,1.749,2.6,2.6,0,0,0,1.868-1.192,46.992,46.992,0,0,0,4.57-6.677ZM101.583-34.3a1.181,1.181,0,0,0-.477-.079,1.6,1.6,0,0,0-1.669,1.55c0,.358.238.636.715,1.391a21.063,21.063,0,0,1,2.106,3.974c.556,1.391.755,1.868,1.669,1.868a1.648,1.648,0,0,0,1.59-1.59C105.518-28.019,102.855-33.782,101.583-34.3Zm6.6-.914a1.1,1.1,0,0,0-.517-.119,1.582,1.582,0,0,0-1.629,1.47c0,.4.119.6.676,1.431a22.7,22.7,0,0,1,2.027,4.054c.556,1.431.755,1.868,1.669,1.868A1.621,1.621,0,0,0,112-28.1C112-29.012,109.373-34.735,108.181-35.212Zm.079,36.365c1.073,0,9.856-3.974,16.533-11.684a44.775,44.775,0,0,0,9.658-19.2c0-1.232-1.351-1.709-2.067-1.709-1.232,0-1.47.954-2.027,2.9a40.557,40.557,0,0,1-21.024,25.4c-2.862,1.431-3.02,1.51-3.02,2.385A1.925,1.925,0,0,0,108.26,1.153Zm27.423-5.206c-.954.119-1.908.238-1.908,1.629,0,.2,0,1.868,1.59,1.868.238,0,.318-.04.994-.119l25.873-3.656c.994,1.947,1.073,2.186,1.987,4.213.318.636.636,1.312,1.59,1.312A1.9,1.9,0,0,0,167.8-.477c0-1.192-3.1-7.352-6.717-13C158.138-18,157.82-18,157.065-18a1.7,1.7,0,0,0-1.828,1.59,2.932,2.932,0,0,0,.755,1.669,72.791,72.791,0,0,1,4.61,7.352L143.274-5.047c2.663-5.882,9.618-23.886,9.618-25.277,0-1.033-1.351-1.55-2.186-1.55-1.073,0-1.192.318-2.106,3.02-.994,2.981-4.253,12.479-9.379,24.323Zm57.151-11.565a17.556,17.556,0,0,0,.318-3.14v-2.385h9.379a1.337,1.337,0,0,0,1.55-1.431,1.319,1.319,0,0,0-1.55-1.391H186.355c.954-1.987,1.033-2.186,1.033-2.623a1.532,1.532,0,0,0-1.669-1.47,1.477,1.477,0,0,0-1.351,1.073,22.541,22.541,0,0,1-4.014,6.438c-1.431,1.55-1.59,1.709-1.59,2.226a1.84,1.84,0,0,0,1.749,1.669,1.909,1.909,0,0,0,1.312-.715,22.516,22.516,0,0,0,2.9-3.776h5.326v2.464a22.917,22.917,0,0,1-.278,3.06H179.162c-.676,0-1.51.119-1.51,1.431,0,1.391,1.033,1.391,1.51,1.391h9.658a14.265,14.265,0,0,1-9.578,7.591c-.636.2-1.232.437-1.232,1.312,0,.556.358,1.788,1.55,1.788.914,0,8.545-2.027,12.122-9.9,2.941,6.359,11.406,9.936,12.718,9.936,1.272,0,1.59-1.312,1.59-1.868a1.072,1.072,0,0,0-.556-1.073c-.238-.119-1.51-.6-1.828-.676a18.326,18.326,0,0,1-9.141-7.114H204.4c.437,0,1.51,0,1.51-1.391a1.3,1.3,0,0,0-1.51-1.431ZM177.89-32.033c-3.736,0-5.167,1.312-5.167,5.167V-2.623c0,3.895,1.51,5.127,5.167,5.127h28.377a1.421,1.421,0,0,0,1.669-1.51,1.424,1.424,0,0,0-1.669-1.47H178.288c-1.669,0-2.265-.874-2.265-2.305V-26.747c0-1.51.676-2.305,2.265-2.305h27.184c.437,0,1.669,0,1.669-1.47a1.434,1.434,0,0,0-1.669-1.51Zm65.775,18.322c2.265,1.47,2.544,1.47,2.861,1.47a1.659,1.659,0,0,0,1.55-1.709,1.192,1.192,0,0,0-.795-1.153c-.477-.238-2.7-1.391-3.219-1.669.715-.755,2.385-2.544,2.385-3.259a1.428,1.428,0,0,0-1.431-1.232,1.3,1.3,0,0,0-1.033.556,31.5,31.5,0,0,1-2.027,2.464,18.387,18.387,0,0,1-3.656-3.776h8.068c.954,0,1.431-.358,1.431-1.351,0-1.272-.954-1.272-1.431-1.272H233.491a3.812,3.812,0,0,0,.278-1.113c0-.874-1.073-1.192-1.629-1.192a1.158,1.158,0,0,0-1.033.556c-.119.238-.6,1.47-.715,1.749h-8.624c-1.033,0-1.431.437-1.431,1.351,0,1.153.914,1.272,1.431,1.272h7.154a19.3,19.3,0,0,1-3.219,3.7c-.954-.994-2.106-2.106-2.265-2.265A1.529,1.529,0,0,0,222.4-21.1a1.456,1.456,0,0,0-1.431,1.272c0,.437.278.676,2.7,3.14-.4.238-2.424,1.51-2.9,1.788a1.315,1.315,0,0,0-.755,1.153,1.529,1.529,0,0,0,1.391,1.59c.278,0,.556,0,2.146-1.033v4.213c0,2.186.676,3.5,3.5,3.5h4.888v4.372c0,.835-.238,1.192-.835,1.312-.4.079-2.186,0-2.623,0s-1.431,0-1.431,1.312a1.433,1.433,0,0,0,.795,1.391c.318.119.358.159,2.385.159,3.537,0,4.968,0,4.968-3.736V-5.485h4.968c2.981,0,3.5-1.51,3.5-3.5Zm-17.05.04c0-.835.358-1.312,1.272-1.312h11.446a1.159,1.159,0,0,1,1.312,1.312v1.192H226.615Zm1.868-3.537a28.224,28.224,0,0,0,3.7-4.809h3.1a18.433,18.433,0,0,0,3.895,4.809Zm12.161,6.876v1.272a1.144,1.144,0,0,1-1.312,1.312H227.887c-.914,0-1.272-.477-1.272-1.312v-1.272Zm-24.4-15.818V-15.1a41.982,41.982,0,0,1-4.69,2.742,1.514,1.514,0,0,0-.954,1.431c0,.636.318,1.828,1.351,1.828.954,0,2.941-1.59,4.173-2.583-.6,5.842-1.908,7.949-4.292,11.645a2.354,2.354,0,0,0-.517,1.312A1.766,1.766,0,0,0,213.023,2.9c.636,0,1.073-.119,2.583-2.583,3.7-6.041,3.7-12.917,3.7-16.851v-9.34a1.581,1.581,0,0,1,1.788-1.788h25.356c.6,0,1.59-.079,1.59-1.391s-1.153-1.351-1.59-1.351H233.252v-1.947c0-1.192-.755-1.47-1.709-1.47-1.351,0-1.59.835-1.59,1.47V-30.4h-9.459C217.514-30.4,216.242-29.37,216.242-26.151Zm-3.815-1.033a1.5,1.5,0,0,0-1.51,1.351,2.866,2.866,0,0,0,.278,1.073c.6,1.51.795,1.868,1.073,2.742.954,2.782.954,2.9,1.788,2.9.556,0,1.788-.318,1.788-1.47a30.471,30.471,0,0,0-1.709-4.769C213.579-26.707,213.261-27.184,212.427-27.184Zm15.5,24.323a1.5,1.5,0,0,0-1.431-1.55c-.477,0-.517,0-2.226,1.232a25.345,25.345,0,0,1-3.776,2.186C218.508-.04,218.349.04,218.349.795a1.445,1.445,0,0,0,1.391,1.51c.994,0,3.5-1.51,4.65-2.186C225.5-.556,227.927-2.027,227.927-2.862Zm10.77-.079c0,.914,2.385,2.385,3.577,3.1.914.556,3.5,2.067,4.372,2.067A1.658,1.658,0,0,0,248.2.556,1.085,1.085,0,0,0,247.4-.517a34.289,34.289,0,0,1-5.564-3.06c-1.232-.914-1.232-.914-1.629-.914A1.534,1.534,0,0,0,238.7-2.941Zm29.41-5.723H256.224a1.343,1.343,0,0,0-1.55,1.431,1.341,1.341,0,0,0,1.55,1.47h11.883v4.729H253.084a1.432,1.432,0,0,0-1.669,1.55,1.426,1.426,0,0,0,1.669,1.55h33.583A1.4,1.4,0,0,0,288.3.517a1.4,1.4,0,0,0-1.629-1.55H271.485V-5.763h12.042c.477,0,1.59-.04,1.59-1.431,0-1.351-.954-1.47-1.59-1.47H271.485v-4.531c5.723-.318,6.876-.358,9.181-.6.318.318,1.828,1.987,1.987,2.106a1.576,1.576,0,0,0,1.073.477,1.948,1.948,0,0,0,1.749-1.749c0-.517-.079-.676-1.908-2.5a60.293,60.293,0,0,0-5.286-4.531,2.294,2.294,0,0,0-1.153-.437,1.592,1.592,0,0,0-1.51,1.51,1.2,1.2,0,0,0,.556,1.033c.278.278,1.629,1.431,1.908,1.669-7.432.4-7.631.4-14.029.6a58.989,58.989,0,0,0,3.179-5.445h14.506c.477,0,1.51-.04,1.51-1.391,0-1.232-.795-1.351-1.51-1.351H258.052c-.437,0-1.55,0-1.55,1.351s1.073,1.391,1.55,1.391h5.564a45.473,45.473,0,0,1-3.259,5.524c-.755,0-4.928.079-5.246.119a1.246,1.246,0,0,0-.954,1.351c0,1.55,1.153,1.55,1.709,1.55.477,0,7.551-.2,12.241-.477ZM271.485-30.4v-1.947c0-1.113-.6-1.431-1.788-1.431-1.55,0-1.629.954-1.629,1.431V-30.4H256.7c-3.3,0-4.292.954-4.292,4.332v3.219c0,1.113.437,1.669,1.749,1.669a1.437,1.437,0,0,0,1.59-1.629v-2.941c0-1.153.517-1.709,1.669-1.709h24.8a1.485,1.485,0,0,1,1.709,1.709v2.9c0,1.272.6,1.669,1.788,1.669a1.431,1.431,0,0,0,1.59-1.669v-3.219c0-3.458-1.033-4.332-4.292-4.332Z" transform="translate(-2835.424 1039.521)" fill="#f0f0d8"/><path d="M9.419-.914c-.974.079-1.371.119-1.371.815,0,.437.159.874.815.874A82.355,82.355,0,0,0,17.229-.417c.04.159.3,1.57.318,1.629.079.278.258.437.676.437a.863.863,0,0,0,.934-.874A37.919,37.919,0,0,0,17.01-7.233c-.477-1.212-.6-1.371-1.053-1.371a.765.765,0,0,0-.854.715,15.709,15.709,0,0,0,.755,2.245c.219.556.854,2.762,1.073,3.776-1.53.3-4.908.715-5.922.835a102.438,102.438,0,0,0,2.7-15.023.8.8,0,0,0-.874-.854c-.795,0-.795.3-.974,2.146-.079.914-.537,4.531-1.351,8.883C10.055-3.5,9.876-2.722,9.419-.914ZM1.53-16.315a.712.712,0,0,0-.835.735.717.717,0,0,0,.835.755H5.7a.6.6,0,0,1,.676.676V-12.2a.606.606,0,0,1-.676.7H3.219c-.676,0-1.431.04-1.729,1.013-.04.159-.437,3.14-.437,3.358,0,1.53,1.331,1.53,1.828,1.53H5.862c.616,0,.616.417.616.7a24.794,24.794,0,0,1-.338,3.8C5.942-.1,5.405-.1,4.809-.1c-.5,0-1.788-.04-1.987-.04a.715.715,0,0,0-.815.795.82.82,0,0,0,.437.795c.159.06.238.079,1.709.079,2.007,0,2.961,0,3.378-1.47a31.332,31.332,0,0,0,.537-5.5c0-1.232-.6-1.669-1.868-1.669H3.179c-.159,0-.477,0-.477-.457,0-.219.258-1.987.278-2.067a.5.5,0,0,1,.576-.417H6.1c1.312,0,1.848-.457,1.848-1.828v-2.6c0-1.371-.537-1.828-1.848-1.828ZM34.517-3.14V-.795a.576.576,0,0,1-.556.676c-.139,0-1.013-.02-1.192-.02-.318,0-.815,0-.815.755,0,.874.656.874,1.033.874,1.828,0,1.908,0,2.265-.119.795-.278.835-1.073.835-1.729V-9.379c0-1.49-.457-1.868-1.868-1.868H30.5c-1.451,0-1.868.4-1.868,1.868V.835c0,.517.179.835.795.835.715,0,.795-.477.795-.835V-3.14Zm-4.292-6c0-.417.179-.636.636-.636h3.02a.559.559,0,0,1,.636.636v1.272H30.225Zm4.292,4.63H30.225V-6.518h4.292Zm.219-9.8a14.093,14.093,0,0,0-1.053-1.908.94.94,0,0,0-.835-.556c-.4,0-.994.258-.994.616a1.189,1.189,0,0,0,.119.5c.079.2.636,1.133.735,1.351H28.1a.678.678,0,0,0-.795.735.69.69,0,0,0,.795.755H45.268a.683.683,0,0,0,.795-.755.684.684,0,0,0-.795-.735H40.856c.775-1.252.874-1.47.874-1.749,0-.616-.676-.735-1.013-.735-.556,0-.715.318-.974.835-.556,1.113-.616,1.232-.854,1.649ZM40-10.492c0-.576-.258-.775-.874-.775a.68.68,0,0,0-.775.775V-2.6c0,.576.258.795.874.795A.683.683,0,0,0,40-2.6Zm4.769-.477c0-.636-.278-.795-.874-.795-.735,0-.775.5-.775.795v9.916c0,.854-.537.894-.954.894-.278,0-1.629-.02-1.928-.02-.278,0-.775.04-.775.795a.857.857,0,0,0,.417.815,10.272,10.272,0,0,0,1.629.079c1.57,0,2.067,0,2.524-.278a2,2,0,0,0,.735-1.848Zm17.487.795A12.313,12.313,0,0,1,54.885-.258c-.4.2-.636.378-.636.815a.936.936,0,0,0,.854.974c.556,0,2.722-1.272,4.272-2.663A14.19,14.19,0,0,0,63.45-7.75,14.506,14.506,0,0,0,67.6-1.093C69.014.2,71.021,1.47,71.6,1.47a1,1,0,0,0,.914-.994c0-.437-.258-.616-.616-.795-5.445-2.8-6.657-6.438-7.432-9.856h7.392c.4,0,.874-.119.874-.835a.758.758,0,0,0-.874-.815h-7.73v-4.094c0-.6-.278-.835-.934-.835a.734.734,0,0,0-.835.835v4.094H54.885c-.417,0-.894.119-.894.835a.772.772,0,0,0,.894.815ZM85.17-13.552c.537-.139.7-.457.7-.715a4.821,4.821,0,0,0-.7-1.51c-.437-.715-.636-1.013-1.093-1.013-.417,0-.914.278-.914.7a1.126,1.126,0,0,0,.2.517c.079.119.517.835.6.994.477.854.517.954.755,1.033H83.56c-1.49,0-2.126.5-2.126,2.106V-9.8c0,.616.278.815.894.815.775,0,.795-.556.795-.835v-1.47a.744.744,0,0,1,.835-.854H96.3c.576,0,.835.278.835.854v1.47c0,.537.2.815.894.815.795,0,.795-.556.795-.815v-1.629c0-.815-.079-2.106-1.928-2.106H95.861a9.026,9.026,0,0,0,1.272-2.5c0-.556-.616-.755-.934-.755-.457,0-.537.179-.994,1.113a19.726,19.726,0,0,1-1.153,2.146Zm5.942,8.207v-.417a26.94,26.94,0,0,0,2.822-1.55c1.073-.7,1.749-1.192,1.749-1.987,0-.994-.874-.994-1.55-.994H84.752a.691.691,0,0,0-.775.735.657.657,0,0,0,.755.735h7.929c.258,0,.4,0,.4.179A9.672,9.672,0,0,1,90.2-6.876c-.576-.079-.795.219-.795.616v.914h-7.73a.714.714,0,0,0-.835.755.717.717,0,0,0,.835.755H89.4v2.683c0,.894-.457.994-1.053.994-.06,0-2.007-.04-2.047-.04A.7.7,0,0,0,85.488.6a1.029,1.029,0,0,0,.358.795c.179.119.417.119,1.093.119h2.027c1.629,0,2.146-.6,2.146-2.146v-3.2h7.372c.278,0,.835-.02.835-.755a.71.71,0,0,0-.835-.755ZM89.382-16.97c-.219,0-.854.2-.854.7,0,.179.06.3.6,1.292.656,1.192.676,1.272,1.113,1.272.238,0,.914-.119.914-.735a5.231,5.231,0,0,0-.775-1.749C89.959-16.891,89.879-16.97,89.382-16.97ZM118.474-7.81a8.779,8.779,0,0,0,.159-1.57v-1.192h4.69a.669.669,0,0,0,.775-.715.66.66,0,0,0-.775-.7h-8.088c.477-.994.517-1.093.517-1.312a.766.766,0,0,0-.835-.735.739.739,0,0,0-.676.537,11.271,11.271,0,0,1-2.007,3.219c-.715.775-.795.854-.795,1.113a.92.92,0,0,0,.874.835.955.955,0,0,0,.656-.358,11.258,11.258,0,0,0,1.451-1.888h2.663V-9.34a11.459,11.459,0,0,1-.139,1.53h-5.306c-.338,0-.755.06-.755.715,0,.7.517.7.755.7h4.829a7.133,7.133,0,0,1-4.789,3.8c-.318.1-.616.219-.616.656,0,.278.179.894.775.894A8.712,8.712,0,0,0,117.9-6c1.471,3.179,5.7,4.968,6.359,4.968.636,0,.795-.656.795-.934a.536.536,0,0,0-.278-.537c-.119-.06-.755-.3-.914-.338a9.163,9.163,0,0,1-4.57-3.557h4.968c.219,0,.755,0,.755-.7a.651.651,0,0,0-.755-.715ZM111-16.017c-1.868,0-2.583.656-2.583,2.583V-1.312c0,1.947.755,2.563,2.583,2.563h14.188A.71.71,0,0,0,126.026.5a.712.712,0,0,0-.835-.735H111.2c-.835,0-1.133-.437-1.133-1.153V-13.374c0-.755.338-1.153,1.133-1.153h13.592c.219,0,.835,0,.835-.735a.717.717,0,0,0-.835-.755Zm27.622,2.464c.537-.139.7-.457.7-.715a4.821,4.821,0,0,0-.7-1.51c-.437-.715-.636-1.013-1.093-1.013-.417,0-.914.278-.914.7a1.126,1.126,0,0,0,.2.517c.079.119.517.835.6.994.477.854.517.954.755,1.033h-1.153c-1.49,0-2.126.5-2.126,2.106V-9.8c0,.616.278.815.894.815.775,0,.795-.556.795-.835v-1.47a.744.744,0,0,1,.835-.854h12.34c.576,0,.835.278.835.854v1.47c0,.537.2.815.894.815.795,0,.795-.556.795-.815v-1.629c0-.815-.079-2.106-1.928-2.106h-1.033a9.026,9.026,0,0,0,1.272-2.5c0-.556-.616-.755-.934-.755-.457,0-.537.179-.994,1.113a19.726,19.726,0,0,1-1.153,2.146Zm5.942,8.207v-.417a26.94,26.94,0,0,0,2.822-1.55c1.073-.7,1.749-1.192,1.749-1.987,0-.994-.874-.994-1.55-.994h-9.379a.691.691,0,0,0-.775.735.657.657,0,0,0,.755.735h7.929c.258,0,.4,0,.4.179a9.672,9.672,0,0,1-2.862,1.769c-.576-.079-.795.219-.795.616v.914h-7.73a.714.714,0,0,0-.835.755.717.717,0,0,0,.835.755h7.73v2.683c0,.894-.457.994-1.053.994-.06,0-2.007-.04-2.047-.04a.7.7,0,0,0-.815.795,1.029,1.029,0,0,0,.358.795c.179.119.417.119,1.093.119h2.027c1.629,0,2.146-.6,2.146-2.146v-3.2h7.372c.278,0,.835-.02.835-.755a.71.71,0,0,0-.835-.755ZM142.837-16.97c-.219,0-.854.2-.854.7,0,.179.06.3.6,1.292.656,1.192.676,1.272,1.113,1.272.238,0,.914-.119.914-.735a5.231,5.231,0,0,0-.775-1.749C143.413-16.891,143.334-16.97,142.837-16.97Zm19.454,2.285a.707.707,0,0,0-.815.715.7.7,0,0,0,.815.735h.7a25.99,25.99,0,0,1,.775,3.974h-1.967a.657.657,0,0,0-.755.735c0,.735.537.735.775.735h9.121c.238,0,.775,0,.775-.715,0-.7-.457-.755-.775-.755h-2.106a39.21,39.21,0,0,0,.974-3.974h.715a.692.692,0,0,0,.795-.715.7.7,0,0,0-.795-.735H167.2v-1.47c0-.2,0-.735-.775-.735-.576,0-.874.179-.874.735v1.47Zm5.922,1.451A31.813,31.813,0,0,1,167.3-9.26h-2.007a40.1,40.1,0,0,0-.795-3.974ZM164.3-5.922c-1.689,0-2.146.477-2.146,2.146V-.815c0,1.689.477,2.166,2.146,2.166h4.094c1.709,0,2.146-.517,2.146-2.166V-3.776c0-1.709-.5-2.146-2.146-2.146Zm4.67,4.968a.75.75,0,0,1-.854.854H164.6a.75.75,0,0,1-.854-.854v-2.7c0-.676.358-.874.854-.874h3.517c.537,0,.854.238.854.874Zm4.809-13.115c0-.4.159-.656.636-.656h2.146c.238,0,.636,0,.636.4a22.388,22.388,0,0,1-1.888,4.153,1.991,1.991,0,0,0-.238.835c0,.457.04.5,1.192,1.769a5.625,5.625,0,0,1,1.51,3.478c0,.815-.278,2.186-1.788,2.186-.119,0-.775-.04-.914-.04-.537,0-.676.318-.676.755,0,.755.4.815.576.854.179.02,1.272.02,1.57,0,2.583-.139,2.9-2.583,2.9-3.5a6.115,6.115,0,0,0-.894-3.14,7.884,7.884,0,0,0-1.689-2.087.538.538,0,0,1-.2-.378.75.75,0,0,1,.1-.318c.656-1.192.715-1.312,1.073-2.087.954-2.067,1.033-2.464,1.033-2.981,0-1.431-1.153-1.431-2.067-1.431h-2.782c-1.471,0-1.868.437-1.868,1.868V.954c0,.6.238.835.854.835a.71.71,0,0,0,.775-.835Zm16.116-.04c0-.4.179-.636.656-.636h1.192c.159,0,.537,0,.537.417a15.22,15.22,0,0,1-.974,2.921c-.4.934-.477,1.113-.477,1.411,0,.358.06.457.6,1.312a5.39,5.39,0,0,1,1.013,3.219c0,1.411-.6,1.411-1.669,1.411-.338,0-.537.219-.537.636,0,.934.517.934,1.033.934,1.093,0,2.742,0,2.742-2.643a7.31,7.31,0,0,0-1.391-4.193c-.3-.417-.338-.556-.338-.735,0-.219.079-.378.616-1.669a10.749,10.749,0,0,0,.994-3.259c0-1.292-1.053-1.292-1.828-1.292h-1.828c-1.49,0-1.868.417-1.868,1.848V.954c0,.477.159.815.775.815.715,0,.755-.5.755-.815ZM195.537.974a.72.72,0,0,0,.775.835c.755,0,.795-.537.795-.835V-12.281a16.094,16.094,0,0,0,1.153-3.875c0-.556-.556-.656-.854-.656-.576,0-.7.338-.775.755a16.272,16.272,0,0,1-2.285,5.365c-.06.1-.874,1.192-.874,1.232a.7.7,0,0,0-.1.4.929.929,0,0,0,.854.974c.3,0,.537-.1,1.312-1.252Zm9.2-11.983h.815c.318,0,.715-.1.715-.795,0-.656-.4-.775-.715-.775h-.815v-3.478c0-.278-.02-.795-.815-.795-.815,0-.815.556-.815.795v3.478H198.5c-.318,0-.775.06-.775.795,0,.775.537.775.775.775h4.61v9.936c0,.676-.238.874-.775.914-.139.02-.815,0-.954,0-.755,0-1.312,0-1.312.755,0,.278.1.735.477.835a10.134,10.134,0,0,0,1.59.079c1.53,0,2.6-.06,2.6-2.126Zm-5.644,2.186a.748.748,0,0,0-.795.676,6.1,6.1,0,0,0,.517,1.272,18.237,18.237,0,0,1,.974,2.345c.358,1.073.417,1.192.874,1.192.3,0,.914-.139.914-.755a14.535,14.535,0,0,0-1.133-2.921C199.59-8.8,199.471-8.823,199.094-8.823ZM224.609-1.57c-.477.02-2.563.119-3.06.179-.238.02-.7.06-.7.6,0,.676.576.676.795.676.477,0,5.047-.437,6.637-.656.318.735.358.795.676.795a.579.579,0,0,0,.616-.556,6.913,6.913,0,0,0-.934-2.106c-.159-.3-.3-.378-.517-.378-.159,0-.576.079-.576.477,0,.2.06.3.238.7-.576.079-.755.1-1.649.159V-3.438h4.014a.591.591,0,0,1,.676.676V-.6a.592.592,0,0,1-.676.676c-.179,0-1.093-.04-1.292-.04a.64.64,0,0,0-.735.676c0,.795.616.795,1.033.795a8.813,8.813,0,0,0,2.424-.119c.795-.258.854-1.053.854-1.749v-2.4c0-1.451-.417-1.848-1.868-1.848h-4.431V-5.783h4.113c1.053,0,1.431-.258,1.431-1.411v-.735c0-1.133-.358-1.411-1.431-1.411h-4.113v-1.013c2.146-.1,3.04-.159,3.855-.238,1.113-.119,1.411-.159,1.411-.676a.561.561,0,0,0-.576-.636c-.2,0-1.61.179-1.928.2-3,.258-6.021.278-9.061.3-.378,0-.775,0-.775.6s.457.6.954.6c.854,0,4.193-.079,4.59-.079v.954h-3.935c-1.133,0-1.431.318-1.431,1.411v.735c0,1.153.358,1.411,1.431,1.411h3.935V-4.61h-4.272c-1.471,0-1.868.417-1.868,1.848V.914c0,.4.079.775.795.775s.775-.437.775-.775V-2.762a.591.591,0,0,1,.676-.676h3.895ZM221.231-6.9c-.318,0-.477-.139-.477-.477v-.4a.422.422,0,0,1,.477-.477h3.378V-6.9Zm4.908-1.351h3.537a.428.428,0,0,1,.477.477v.4a.421.421,0,0,1-.477.477h-3.537Zm-8.465-4.173H230.61c1.172,0,1.471-.338,1.471-1.451v-.795c0-1.153-.318-1.47-1.471-1.47H217.932c-1.451,0-1.848.417-1.848,1.868v5.922a32.546,32.546,0,0,1-.238,3.378,16.181,16.181,0,0,1-1.312,4.789,1.482,1.482,0,0,0-.159.636.913.913,0,0,0,.914.835c.417,0,.616-.179,1.053-1.292a26.319,26.319,0,0,0,1.331-8.386Zm0-1.828a.557.557,0,0,1,.636-.636h11.665c.358,0,.5.179.5.477v.3a.434.434,0,0,1-.5.5h-12.3ZM256.6-7.015a.592.592,0,0,1,.676.676V-.616c0,.7-.417.715-.755.715-.04,0-1.093-.04-1.292-.02a.612.612,0,0,0-.676.7.681.681,0,0,0,.537.715c.179.04,1.013.04,1.53.04,1.51,0,2.226-.06,2.226-1.868v-6.18c0-1.391-.537-1.828-1.828-1.828h-3.7c.04-.318.159-1.749.159-2.067h5.266c.2,0,.815,0,.815-.7,0-.676-.517-.715-.815-.715H247.024c-.238,0-.815.02-.815.715,0,.576.378.7.815.7h4.908c0,.2-.02,1.153-.1,2.067h-3.12c-1.312,0-1.828.477-1.828,1.828V.854a.7.7,0,0,0,.755.815c.556,0,.815-.2.815-.815V-6.339c0-.477.238-.676.7-.676h2.484a6.4,6.4,0,0,1-2.663,4.133.679.679,0,0,0-.338.556.893.893,0,0,0,.775.835c.517,0,2.325-1.371,3.319-4.133a10.378,10.378,0,0,0,2.087,2.981c.378.378,1.113,1.053,1.51,1.053a.761.761,0,0,0,.755-.715c0-.258-.02-.278-.854-.954a7.157,7.157,0,0,1-2.663-3.756ZM244.142-8.207c0,.219-.02.656-.02.815a24.679,24.679,0,0,1-2.345,1.133c-.676.3-.854.378-.854.854,0,.278.159.914.7.914a10.717,10.717,0,0,0,2.345-1.153A11.366,11.366,0,0,1,241.718.02a1,1,0,0,0-.278.636.912.912,0,0,0,.914.835c.278,0,.5,0,1.292-1.212a15.54,15.54,0,0,0,2.067-8.286v-4.65a.781.781,0,0,1,.894-.894h12.161c.517,0,.795-.179.795-.775,0-.7-.576-.7-.795-.7H252.19v-1.053c0-.6-.338-.735-.894-.735-.616,0-.835.238-.835.735v1.053h-4.213c-1.51,0-2.106.517-2.106,2.106Zm-2.126-5.266a.78.78,0,0,0-.795.7,1.4,1.4,0,0,0,.159.517c.258.556.636,1.391.795,1.828.338.874.4.994.795.994a.854.854,0,0,0,.894-.735,8.1,8.1,0,0,0-.775-1.947C242.513-13.334,242.453-13.473,242.016-13.473Zm38.948-1.391v-1.312c0-.3-.079-.735-.795-.735-.795,0-.795.556-.795.735v1.312H276.2c-1.252,0-1.828.4-1.828,1.828v1.59c0,.338.06.835.795.835a.716.716,0,0,0,.775-.835v-1.312a.559.559,0,0,1,.636-.636h7.114a.565.565,0,0,1,.636.636v1.312c0,.437.119.815.795.815.755,0,.775-.537.775-.815v-1.59c0-1.411-.556-1.828-1.828-1.828Zm2.5,5.047c.238,0,.775,0,.775-.715s-.537-.715-.775-.715h-6.577a.659.659,0,0,0-.775.715.659.659,0,0,0,.775.715ZM268.485.934c0,.318.04.835.775.835.676,0,.775-.417.775-.835V-14.109c0-.417.179-.656.636-.656H271.9c.2,0,.517,0,.517.417a17.041,17.041,0,0,1-.974,2.842c-.417,1.053-.477,1.172-.477,1.391a1.407,1.407,0,0,0,.318.815,6.575,6.575,0,0,1,1.272,3.8c0,1.391-.477,1.391-1.252,1.391-.537,0-.894,0-.894.795,0,.715.517.854.954.854a3.2,3.2,0,0,0,1.749-.258,2.617,2.617,0,0,0,.994-2.444A7.527,7.527,0,0,0,272.7-9.439c-.278-.378-.378-.517-.378-.7a4.967,4.967,0,0,1,.517-1.312,11.178,11.178,0,0,0,1.113-3.537c0-1.312-.954-1.312-1.928-1.312h-1.669c-1.451,0-1.868.378-1.868,1.848ZM282.256-6.26h3.338c.238,0,.835,0,.835-.755a.71.71,0,0,0-.835-.755H274.864a.724.724,0,0,0-.854.755.724.724,0,0,0,.854.755h2.4c-.079,4.292-1.312,5.246-3.617,6.3-.358.159-.616.3-.616.715a.87.87,0,0,0,.795.894A5.9,5.9,0,0,0,276.295.4c2.106-1.689,2.464-3.935,2.524-6.657h1.868V-.278c0,1.788.7,1.868,2.265,1.868,2.047,0,2.444,0,2.8-.477a6.652,6.652,0,0,0,.616-2.921.689.689,0,0,0-.775-.795.577.577,0,0,0-.6.338c-.06.219-.159,1.331-.219,1.59-.139.735-.139.735-1.331.735-.894,0-1.192,0-1.192-.7Z" transform="translate(-2833.696 991.488)" fill="#f0f0d8"/><path d="M9.418,16.086c-.974.079-1.371.119-1.371.815,0,.437.159.874.815.874a82.348,82.348,0,0,0,8.365-1.192c.04.159.3,1.57.318,1.629.079.278.258.437.676.437a.863.863,0,0,0,.934-.874,37.915,37.915,0,0,0-2.146-8.008c-.477-1.212-.6-1.371-1.053-1.371a.765.765,0,0,0-.854.715,15.708,15.708,0,0,0,.755,2.245c.219.556.854,2.762,1.073,3.775-1.53.3-4.908.715-5.921.835A102.43,102.43,0,0,0,13.71.945a.8.8,0,0,0-.874-.854c-.795,0-.795.3-.974,2.146-.079.914-.536,4.53-1.351,8.882C10.054,13.5,9.875,14.278,9.418,16.086ZM1.53.687A.712.712,0,0,0,.7,1.422a.717.717,0,0,0,.835.755H5.7a.6.6,0,0,1,.676.676V4.8a.606.606,0,0,1-.676.7H3.219c-.676,0-1.431.04-1.729,1.013-.04.159-.437,3.139-.437,3.358,0,1.53,1.331,1.53,1.828,1.53h2.98c.616,0,.616.417.616.7a24.792,24.792,0,0,1-.338,3.8C5.941,16.9,5.4,16.9,4.809,16.9c-.5,0-1.788-.04-1.987-.04a.715.715,0,0,0-.815.795.82.82,0,0,0,.437.795c.159.06.238.079,1.709.079,2.007,0,2.961,0,3.378-1.47a31.33,31.33,0,0,0,.536-5.5c0-1.232-.6-1.669-1.868-1.669H3.179c-.159,0-.477,0-.477-.457,0-.219.258-1.987.278-2.066a.5.5,0,0,1,.576-.417H6.1c1.311,0,1.848-.457,1.848-1.828v-2.6C7.948,1.144,7.412.687,6.1.687ZM27.778,13.861v2.345a.576.576,0,0,1-.556.676c-.139,0-1.013-.02-1.192-.02-.318,0-.815,0-.815.755,0,.874.656.874,1.033.874,1.828,0,1.908,0,2.265-.119.795-.278.835-1.073.835-1.729V7.621c0-1.49-.457-1.868-1.868-1.868H23.765c-1.451,0-1.868.4-1.868,1.868V17.835c0,.517.179.835.795.835.715,0,.795-.477.795-.835V13.861Zm-4.292-6c0-.417.179-.636.636-.636h3.02a.559.559,0,0,1,.636.636V9.131H23.486Zm4.292,4.63H23.486V10.483h4.292ZM28,2.694A14.091,14.091,0,0,0,26.944.786.94.94,0,0,0,26.109.23c-.4,0-.994.258-.994.616a1.189,1.189,0,0,0,.119.5c.079.2.636,1.133.735,1.351H21.36a.678.678,0,0,0-.795.735.69.69,0,0,0,.795.755H38.528a.683.683,0,0,0,.795-.755.684.684,0,0,0-.795-.735H34.117c.775-1.252.874-1.47.874-1.749,0-.616-.676-.735-1.013-.735-.556,0-.715.318-.974.835-.556,1.113-.616,1.232-.854,1.649Zm5.266,3.815c0-.576-.258-.775-.874-.775a.68.68,0,0,0-.775.775V14.4c0,.576.258.795.874.795a.683.683,0,0,0,.775-.795Zm4.769-.477c0-.636-.278-.795-.874-.795-.735,0-.775.5-.775.795v9.915c0,.854-.536.894-.954.894-.278,0-1.629-.02-1.927-.02-.278,0-.775.04-.775.795a.857.857,0,0,0,.417.815,10.271,10.271,0,0,0,1.629.079c1.57,0,2.066,0,2.523-.278a2,2,0,0,0,.735-1.848Zm10.75.795a12.312,12.312,0,0,1-7.372,9.915c-.4.2-.636.378-.636.815a.936.936,0,0,0,.854.974c.556,0,2.722-1.272,4.272-2.663a14.189,14.189,0,0,0,4.073-6.617,14.505,14.505,0,0,0,4.153,6.656c1.411,1.292,3.418,2.563,3.994,2.563a1,1,0,0,0,.914-.994c0-.437-.258-.616-.616-.795-5.444-2.8-6.656-6.438-7.431-9.856h7.392c.4,0,.874-.119.874-.835a.758.758,0,0,0-.874-.815H50.649V1.084c0-.6-.278-.835-.934-.835a.734.734,0,0,0-.835.835V5.177H41.409c-.417,0-.894.119-.894.835a.772.772,0,0,0,.894.815ZM64.955,3.449c.536-.139.7-.457.7-.715a4.821,4.821,0,0,0-.7-1.51C64.518.508,64.319.21,63.862.21c-.417,0-.914.278-.914.7a1.126,1.126,0,0,0,.2.517c.079.119.517.835.6.993.477.854.517.954.755,1.033H63.346c-1.49,0-2.126.5-2.126,2.106V7.2c0,.616.278.815.894.815.775,0,.795-.556.795-.835V5.714a.744.744,0,0,1,.835-.854H76.082c.576,0,.835.278.835.854v1.47c0,.536.2.815.894.815.795,0,.795-.556.795-.815V5.555c0-.815-.079-2.106-1.927-2.106H75.645a9.025,9.025,0,0,0,1.272-2.5c0-.556-.616-.755-.934-.755-.457,0-.536.179-.993,1.113a19.723,19.723,0,0,1-1.152,2.146ZM70.9,11.655v-.417a26.938,26.938,0,0,0,2.822-1.55c1.073-.7,1.749-1.192,1.749-1.987,0-.994-.874-.994-1.55-.994H64.538a.691.691,0,0,0-.775.735.657.657,0,0,0,.755.735h7.928c.258,0,.4,0,.4.179a9.671,9.671,0,0,1-2.861,1.768c-.576-.079-.795.219-.795.616v.914H61.458a.759.759,0,1,0,0,1.51h7.729v2.682c0,.894-.457.993-1.053.993-.06,0-2.007-.04-2.047-.04a.7.7,0,0,0-.815.795,1.029,1.029,0,0,0,.358.795c.179.119.417.119,1.093.119H68.75c1.629,0,2.146-.6,2.146-2.146v-3.2h7.372c.278,0,.835-.02.835-.755a.71.71,0,0,0-.835-.755ZM69.167.031c-.219,0-.854.2-.854.7,0,.179.06.3.6,1.292.656,1.192.676,1.272,1.113,1.272.238,0,.914-.119.914-.735A5.231,5.231,0,0,0,70.161.806C69.744.11,69.664.031,69.167.031Zm22.354,9.16a8.778,8.778,0,0,0,.159-1.57V6.429H96.37a.669.669,0,0,0,.775-.715.66.66,0,0,0-.775-.7H88.282c.477-.993.517-1.093.517-1.311a.766.766,0,0,0-.835-.735.739.739,0,0,0-.676.536,11.27,11.27,0,0,1-2.007,3.219c-.715.775-.795.854-.795,1.113a.92.92,0,0,0,.874.835.955.955,0,0,0,.656-.358,11.257,11.257,0,0,0,1.451-1.888H90.13V7.661a11.458,11.458,0,0,1-.139,1.53H84.686c-.338,0-.755.06-.755.715,0,.7.517.7.755.7h4.828a7.132,7.132,0,0,1-4.789,3.8c-.318.1-.616.219-.616.656,0,.278.179.894.775.894A8.711,8.711,0,0,0,90.945,11c1.47,3.179,5.7,4.967,6.358,4.967.636,0,.795-.656.795-.934a.536.536,0,0,0-.278-.536c-.119-.06-.755-.3-.914-.338a9.162,9.162,0,0,1-4.57-3.557H97.3c.219,0,.755,0,.755-.7a.651.651,0,0,0-.755-.715ZM84.05.985c-1.868,0-2.583.656-2.583,2.583V15.689c0,1.947.755,2.563,2.583,2.563H98.237a.75.75,0,1,0,0-1.49H84.249c-.835,0-1.133-.437-1.133-1.152V3.627c0-.755.338-1.152,1.133-1.152H97.84c.219,0,.835,0,.835-.735A.717.717,0,0,0,97.84.985Zm20.883,2.464c.536-.139.7-.457.7-.715a4.821,4.821,0,0,0-.7-1.51C104.5.508,104.3.21,103.841.21c-.417,0-.914.278-.914.7a1.126,1.126,0,0,0,.2.517c.079.119.517.835.6.993.477.854.517.954.755,1.033h-1.152c-1.49,0-2.126.5-2.126,2.106V7.2c0,.616.278.815.894.815.775,0,.795-.556.795-.835V5.714a.744.744,0,0,1,.835-.854h12.339c.576,0,.835.278.835.854v1.47c0,.536.2.815.894.815.795,0,.795-.556.795-.815V5.555c0-.815-.079-2.106-1.927-2.106h-1.033A9.025,9.025,0,0,0,116.9.945c0-.556-.616-.755-.934-.755-.457,0-.536.179-.993,1.113a19.724,19.724,0,0,1-1.152,2.146Zm5.941,8.206v-.417a26.937,26.937,0,0,0,2.822-1.55c1.073-.7,1.749-1.192,1.749-1.987,0-.994-.874-.994-1.55-.994h-9.379a.691.691,0,0,0-.775.735.657.657,0,0,0,.755.735h7.928c.258,0,.4,0,.4.179a9.671,9.671,0,0,1-2.861,1.768c-.576-.079-.795.219-.795.616v.914h-7.729a.759.759,0,1,0,0,1.51h7.729v2.682c0,.894-.457.993-1.053.993-.06,0-2.007-.04-2.047-.04a.7.7,0,0,0-.815.795,1.029,1.029,0,0,0,.358.795c.179.119.417.119,1.093.119h2.027c1.629,0,2.146-.6,2.146-2.146v-3.2h7.372c.278,0,.835-.02.835-.755a.71.71,0,0,0-.835-.755ZM109.146.031c-.219,0-.854.2-.854.7,0,.179.06.3.6,1.292.656,1.192.676,1.272,1.113,1.272.238,0,.914-.119.914-.735a5.231,5.231,0,0,0-.775-1.749C109.722.11,109.643.031,109.146.031Zm12.717,2.285a.707.707,0,0,0-.815.715.7.7,0,0,0,.815.735h.7a25.99,25.99,0,0,1,.775,3.974h-1.967a.657.657,0,0,0-.755.735c0,.735.536.735.775.735h9.12c.238,0,.775,0,.775-.715,0-.7-.457-.755-.775-.755H128.4a39.207,39.207,0,0,0,.974-3.974h.715a.692.692,0,0,0,.795-.715.7.7,0,0,0-.795-.735h-3.318V.846c0-.2,0-.735-.775-.735-.576,0-.874.179-.874.735v1.47Zm5.921,1.451a31.811,31.811,0,0,1-.914,3.974h-2.007a40.091,40.091,0,0,0-.795-3.974Zm-3.914,7.312c-1.689,0-2.146.477-2.146,2.146v2.961c0,1.689.477,2.166,2.146,2.166h4.093c1.709,0,2.146-.517,2.146-2.166V13.225c0-1.709-.5-2.146-2.146-2.146Zm4.669,4.968a.75.75,0,0,1-.854.854h-3.517a.75.75,0,0,1-.854-.854v-2.7c0-.676.358-.874.854-.874h3.517c.536,0,.854.238.854.874Zm4.809-13.114c0-.4.159-.656.636-.656h2.146c.238,0,.636,0,.636.4a22.385,22.385,0,0,1-1.888,4.153,1.991,1.991,0,0,0-.238.835c0,.457.04.5,1.192,1.768a5.624,5.624,0,0,1,1.51,3.477c0,.815-.278,2.186-1.788,2.186-.119,0-.775-.04-.914-.04-.536,0-.676.318-.676.755,0,.755.4.815.576.854.179.02,1.272.02,1.57,0,2.583-.139,2.9-2.583,2.9-3.5a6.114,6.114,0,0,0-.894-3.139,7.884,7.884,0,0,0-1.689-2.086.538.538,0,0,1-.2-.378.75.75,0,0,1,.1-.318c.656-1.192.715-1.311,1.073-2.086.954-2.066,1.033-2.464,1.033-2.981,0-1.431-1.152-1.431-2.066-1.431h-2.782c-1.47,0-1.868.437-1.868,1.868v15.34c0,.6.238.835.854.835a.71.71,0,0,0,.775-.835Zm9.379-.04c0-.4.179-.636.656-.636h1.192c.159,0,.536,0,.536.417a15.218,15.218,0,0,1-.974,2.921c-.4.934-.477,1.113-.477,1.411,0,.358.06.457.6,1.311a5.389,5.389,0,0,1,1.013,3.219c0,1.411-.6,1.411-1.669,1.411-.338,0-.536.219-.536.636,0,.934.517.934,1.033.934,1.093,0,2.742,0,2.742-2.643a7.309,7.309,0,0,0-1.391-4.193c-.3-.417-.338-.556-.338-.735,0-.219.079-.378.616-1.669a10.749,10.749,0,0,0,.993-3.259c0-1.292-1.053-1.292-1.828-1.292h-1.828c-1.49,0-1.868.417-1.868,1.848V17.954c0,.477.159.815.775.815.715,0,.755-.5.755-.815Zm5.643,15.081a.72.72,0,0,0,.775.835c.755,0,.795-.536.795-.835V4.72A16.093,16.093,0,0,0,151.091.846c0-.556-.556-.656-.854-.656-.576,0-.7.338-.775.755a16.27,16.27,0,0,1-2.285,5.365c-.06.1-.874,1.192-.874,1.232a.7.7,0,0,0-.1.4.929.929,0,0,0,.854.974c.3,0,.536-.1,1.311-1.252Zm9.2-11.982h.815c.318,0,.715-.1.715-.795,0-.656-.4-.775-.715-.775h-.815V.945c0-.278-.02-.795-.815-.795-.815,0-.815.556-.815.795V4.422h-4.61c-.318,0-.775.06-.775.795,0,.775.536.775.775.775h4.61v9.935c0,.676-.238.874-.775.914-.139.02-.815,0-.954,0-.755,0-1.311,0-1.311.755,0,.278.1.735.477.835a10.133,10.133,0,0,0,1.59.079c1.53,0,2.6-.06,2.6-2.126Zm-5.643,2.186a.748.748,0,0,0-.795.676,6.1,6.1,0,0,0,.517,1.272,18.234,18.234,0,0,1,.974,2.345c.358,1.073.417,1.192.874,1.192.3,0,.914-.139.914-.755a14.534,14.534,0,0,0-1.133-2.921C152.423,8.2,152.3,8.178,151.926,8.178ZM170.7,15.43c-.477.02-2.563.119-3.06.179-.238.02-.7.06-.7.6,0,.676.576.676.795.676.477,0,5.047-.437,6.637-.656.318.735.358.795.676.795a.579.579,0,0,0,.616-.556,6.912,6.912,0,0,0-.934-2.106c-.159-.3-.3-.378-.517-.378-.159,0-.576.079-.576.477,0,.2.06.3.238.7-.576.079-.755.1-1.649.159V13.562h4.014a.591.591,0,0,1,.676.676V16.4a.592.592,0,0,1-.676.676c-.179,0-1.093-.04-1.292-.04a.64.64,0,0,0-.735.676c0,.795.616.795,1.033.795a8.812,8.812,0,0,0,2.424-.119c.795-.258.854-1.053.854-1.749v-2.4c0-1.451-.417-1.848-1.868-1.848h-4.431V11.218h4.113c1.053,0,1.431-.258,1.431-1.411V9.072c0-1.133-.358-1.411-1.431-1.411h-4.113V6.648c2.146-.1,3.04-.159,3.855-.238,1.113-.119,1.411-.159,1.411-.676a.561.561,0,0,0-.576-.636c-.2,0-1.609.179-1.927.2-3,.258-6.021.278-9.061.3-.378,0-.775,0-.775.6s.457.6.954.6c.854,0,4.193-.079,4.59-.079v.954h-3.934c-1.133,0-1.431.318-1.431,1.411v.735c0,1.152.358,1.411,1.431,1.411H170.7V12.39h-4.272c-1.47,0-1.868.417-1.868,1.848v3.676c0,.4.079.775.795.775s.775-.437.775-.775V14.238a.591.591,0,0,1,.676-.676H170.7Zm-3.378-5.325c-.318,0-.477-.139-.477-.477v-.4a.422.422,0,0,1,.477-.477H170.7v1.351Zm4.908-1.351h3.537a.428.428,0,0,1,.477.477v.4a.421.421,0,0,1-.477.477h-3.537Zm-8.465-4.173H176.7c1.172,0,1.47-.338,1.47-1.451V2.336c0-1.152-.318-1.47-1.47-1.47H164.027c-1.451,0-1.848.417-1.848,1.868V8.655a32.541,32.541,0,0,1-.238,3.378,16.18,16.18,0,0,1-1.311,4.789,1.482,1.482,0,0,0-.159.636.913.913,0,0,0,.914.835c.417,0,.616-.179,1.053-1.292a26.316,26.316,0,0,0,1.331-8.385Zm0-1.828a.556.556,0,0,1,.636-.636h11.664c.358,0,.5.179.5.477v.3a.434.434,0,0,1-.5.5h-12.3Zm32.189,7.233a.592.592,0,0,1,.676.676v5.723c0,.7-.417.715-.755.715-.04,0-1.093-.04-1.292-.02a.612.612,0,0,0-.676.7.681.681,0,0,0,.536.715c.179.04,1.013.04,1.53.04,1.51,0,2.225-.06,2.225-1.868v-6.18c0-1.391-.536-1.828-1.828-1.828h-3.7c.04-.318.159-1.749.159-2.066H198.1c.2,0,.815,0,.815-.7,0-.676-.517-.715-.815-.715H186.381c-.238,0-.815.02-.815.715,0,.576.378.7.815.7h4.908c0,.2-.02,1.152-.1,2.066h-3.12c-1.311,0-1.828.477-1.828,1.828v7.372a.7.7,0,0,0,.755.815c.556,0,.815-.2.815-.815V10.661c0-.477.238-.676.7-.676h2.484a6.4,6.4,0,0,1-2.663,4.133.679.679,0,0,0-.338.556.893.893,0,0,0,.775.835c.517,0,2.325-1.371,3.318-4.133a10.377,10.377,0,0,0,2.086,2.981c.378.378,1.113,1.053,1.51,1.053a.761.761,0,0,0,.755-.715c0-.258-.02-.278-.854-.954a7.156,7.156,0,0,1-2.663-3.755ZM183.5,8.794c0,.219-.02.656-.02.815a24.678,24.678,0,0,1-2.345,1.133c-.676.3-.854.378-.854.854,0,.278.159.914.7.914a10.717,10.717,0,0,0,2.345-1.152,11.365,11.365,0,0,1-2.245,5.663,1,1,0,0,0-.278.636.912.912,0,0,0,.914.835c.278,0,.5,0,1.292-1.212a15.539,15.539,0,0,0,2.066-8.286V4.343a.781.781,0,0,1,.894-.894h12.16c.517,0,.795-.179.795-.775,0-.7-.576-.7-.795-.7h-6.577V.925c0-.6-.338-.735-.894-.735-.616,0-.835.238-.835.735V1.978h-4.212c-1.51,0-2.106.517-2.106,2.106Zm-2.126-5.266a.78.78,0,0,0-.795.7,1.4,1.4,0,0,0,.159.517c.258.556.636,1.391.795,1.828.338.874.4.993.795.993a.854.854,0,0,0,.894-.735,8.1,8.1,0,0,0-.775-1.947C181.87,3.667,181.811,3.528,181.373,3.528Zm32.209-1.391V.826c0-.3-.079-.735-.795-.735-.795,0-.795.556-.795.735V2.137h-3.179c-1.252,0-1.828.4-1.828,1.828v1.59c0,.338.06.835.795.835a.716.716,0,0,0,.775-.835V4.243a.558.558,0,0,1,.636-.636H216.3a.565.565,0,0,1,.636.636V5.555c0,.437.119.815.795.815.755,0,.775-.536.775-.815V3.965c0-1.411-.556-1.828-1.828-1.828Zm2.5,5.047c.238,0,.775,0,.775-.715s-.536-.715-.775-.715h-6.577a.659.659,0,0,0-.775.715.659.659,0,0,0,.775.715ZM201.1,17.934c0,.318.04.835.775.835.676,0,.775-.417.775-.835V2.892c0-.417.179-.656.636-.656h1.232c.2,0,.517,0,.517.417a17.039,17.039,0,0,1-.974,2.841c-.417,1.053-.477,1.172-.477,1.391a1.407,1.407,0,0,0,.318.815,6.575,6.575,0,0,1,1.272,3.8c0,1.391-.477,1.391-1.252,1.391-.536,0-.894,0-.894.795,0,.715.517.854.954.854a3.2,3.2,0,0,0,1.749-.258,2.617,2.617,0,0,0,.993-2.444,7.526,7.526,0,0,0-1.411-4.272c-.278-.378-.378-.517-.378-.7a4.967,4.967,0,0,1,.517-1.311,11.177,11.177,0,0,0,1.113-3.537c0-1.311-.954-1.311-1.927-1.311h-1.669c-1.451,0-1.868.378-1.868,1.848Zm13.77-7.193h3.338c.238,0,.835,0,.835-.755a.71.71,0,0,0-.835-.755h-10.73a.761.761,0,1,0,0,1.51h2.4c-.079,4.292-1.311,5.246-3.616,6.3-.358.159-.616.3-.616.715a.87.87,0,0,0,.795.894,5.9,5.9,0,0,0,2.464-1.252c2.106-1.689,2.464-3.934,2.523-6.656H213.3v5.981c0,1.788.7,1.868,2.265,1.868,2.047,0,2.444,0,2.8-.477a6.651,6.651,0,0,0,.616-2.921.689.689,0,0,0-.775-.795.577.577,0,0,0-.6.338c-.06.219-.159,1.331-.219,1.59-.139.735-.139.735-1.331.735-.894,0-1.192,0-1.192-.7ZM13.929,28.3a23.435,23.435,0,0,0,3.835-.576.574.574,0,0,0,.5-.636.629.629,0,0,0-.616-.7c-.139,0-1.908.358-2.265.417a66.12,66.12,0,0,1-6.6.477c-.457,0-.795.04-.795.616,0,.676.477.676,1.073.676.854,0,2.225-.079,3.338-.159v1.272H7.928c-.457,0-.755.2-.755.676,0,.556.417.656.755.656H12.4v1.172H9.9c-1.47,0-1.848.437-1.848,1.868v2.663c0,1.47.4,1.868,1.848,1.868h2.5V39.96H8.226c-.477,0-.715.2-.715.656,0,.437.258.636.7.636H12.4v1.609H7.888c-.358,0-.755.139-.755.656,0,.6.536.636.755.636H18.5c.417,0,.755-.159.755-.636,0-.556-.437-.656-.755-.656h-4.57V41.251h4.153c.517,0,.715-.238.715-.656,0-.457-.278-.636-.715-.636H13.929V38.589h2.543c1.49,0,1.868-.437,1.868-1.868V34.059c0-1.451-.417-1.868-1.868-1.868H13.929V31.018H18.4c.437,0,.735-.179.735-.656,0-.576-.417-.676-.735-.676H13.929ZM9.5,33.84c0-.338.179-.477.5-.477h2.4v1.47H9.5Zm.5,3.6a.434.434,0,0,1-.5-.5V35.887h2.9v1.55Zm3.934-2.6v-1.47h2.444c.318,0,.5.139.5.477v.993ZM16.87,36.94a.433.433,0,0,1-.5.5H13.929v-1.55H16.87ZM5.4,38.033v4.193c0,.7-.318.7-1.053.7-.934,0-1.232.1-1.232.715,0,.835.6.894,1.411.894,1.908,0,2.265-.477,2.265-1.868V28.634c0-1.451-.4-1.868-1.868-1.868H3.358c-1.47,0-1.848.437-1.848,1.868V36.5a21.806,21.806,0,0,1-.477,5.027c-.06.318-.6,1.768-.6,2.126a.829.829,0,0,0,.874.795c.477,0,.576-.258.894-1.292a20.775,20.775,0,0,0,.755-5.126Zm-2.424-9.24c0-.338.139-.5.477-.5h1.47c.338,0,.477.179.477.5v2.961H2.981ZM5.4,36.6H2.981V33.184H5.4ZM37.4,31.654c0-1.292-.437-1.669-1.709-1.669H28.414c-1.292,0-1.709.417-1.709,1.669v1.828c0,1.292.437,1.689,1.709,1.689h7.272c1.272,0,1.709-.417,1.709-1.689Zm-9.081.358v-.477a.441.441,0,0,1,.5-.5h6.5a.434.434,0,0,1,.5.5v.477Zm7.491,1.629a.434.434,0,0,1-.5.5h-6.5a.434.434,0,0,1-.5-.5v-.656h7.491ZM33.421,39.3A10.351,10.351,0,0,1,30.1,42.7c-1.252.735-1.391.815-1.391,1.133a.822.822,0,0,0,.755.815c.715,0,3.934-2.265,5.544-5.345h.934a.55.55,0,0,1,.616.576,11.406,11.406,0,0,1-.318,2.206c-.219.835-.576.954-1.033.974-.139.02-1.252,0-1.49,0-.417,0-.914,0-.914.656a.74.74,0,0,0,.835.775c.238.02.974.02,1.451.02.934,0,1.868-.04,2.365-1.292a13.057,13.057,0,0,0,.636-3.557c0-1.411-.854-1.55-1.768-1.55H29.269a10.822,10.822,0,0,0,.715-.894h8.385c.338,0,.735-.119.735-.636,0-.616-.616-.616-.755-.616H25.871a.591.591,0,0,0-.656.636.6.6,0,0,0,.656.616h2.484c-.159.139-.835.894-.993,1.033A10.845,10.845,0,0,1,25.513,39.5c-.914.437-.974.477-.974.835a.664.664,0,0,0,.616.7,7.3,7.3,0,0,0,2.9-1.729h1.768c-.258.278-.6.676-.755.835a9.778,9.778,0,0,1-2.623,1.788c-1.152.517-1.232.556-1.232.914a.825.825,0,0,0,.735.835A5.219,5.219,0,0,0,27.46,43a12.916,12.916,0,0,0,4.113-3.7Zm-9.995-4.749c0,.278,0,.417-.02,1.033A18.825,18.825,0,0,1,21.4,36.721c-.874.437-1.013.517-1.013.974,0,.4.219.894.676.894.318,0,.7-.219,2.225-1.252A11.854,11.854,0,0,1,21.162,43.1a.868.868,0,0,0-.219.556c0,.536.6.815.934.815s.616-.2,1.252-1.292A17.323,17.323,0,0,0,25,34.5v-4.57c0-.6.258-.894.874-.894H38.23c.238,0,.815,0,.815-.7s-.6-.7-.815-.7H31.673v-.835c0-.4-.179-.676-.854-.676-.835,0-.854.457-.854.676v.835H25.533c-1.49,0-2.106.517-2.106,2.106ZM21.44,29.429c-.238,0-.755.2-.755.676a1.122,1.122,0,0,0,.139.517c.3.7.656,1.53.735,1.768.278.795.338,1.013.835,1.013a.724.724,0,0,0,.775-.7,7.594,7.594,0,0,0-.6-1.749C21.976,29.608,21.917,29.429,21.44,29.429ZM48.066,33.2l7.074-.457c.278-.02.4-.02.4.119a12.122,12.122,0,0,1-2.166,2.9c-.934.974-.954,1.013-.954,1.311a.874.874,0,0,0,.894.795c.517,0,1.152-.755,1.709-1.391,1.013-1.192,2.9-3.577,2.9-4.471,0-1.093-1.113-1.013-1.888-.974l-7.968.477V27.462c0-.338-.04-.874-.894-.874-.874,0-.894.6-.894.874v4.153l-4.093.258c-.437.02-.874.159-.874.835a.8.8,0,0,0,.974.874l3.994-.258V39.94c0,3.279,2.007,3.577,5.484,3.577.5,0,2.543-.02,4.769-.119.536-.02,1.152-.119,1.152-.954a.78.78,0,0,0-.874-.854c-.179,0-1.033.06-1.232.079-1.292.06-2.563.1-3.855.1-3.04,0-3.656-.159-3.656-2.106Zm29.229-1.192a.893.893,0,0,0-.755.517,23.127,23.127,0,0,1-2.98,3.6A21.181,21.181,0,0,1,64.2,41.51c-1.272.318-1.59.4-1.59,1.033a1.023,1.023,0,0,0,.974,1.073,20.814,20.814,0,0,0,8.186-3.6c4.053-2.822,6.517-6.517,6.517-7.094A1.023,1.023,0,0,0,77.294,32.012Zm-13.69-3.8a.966.966,0,0,0-.974.934c0,.4.278.576.576.715a27.325,27.325,0,0,1,4.173,1.947,2.128,2.128,0,0,0,.934.378.987.987,0,0,0,.874-1.013c0-.4,0-.7-2.663-1.908A13.759,13.759,0,0,0,63.6,28.217Zm25.155-.079c-1.709,0-1.828.1-2.6,1.431A15.53,15.53,0,0,1,82.58,33.88c-.5.417-.715.6-.715.974a.982.982,0,0,0,.914.914c.576,0,1.967-1.411,2.623-2.166a48.962,48.962,0,0,1,6.319,4.014,16.206,16.206,0,0,1-6.4,4.451c-.735.278-1.192.457-1.192.993a.928.928,0,0,0,.854.934A16.2,16.2,0,0,0,91.8,40.079a17.675,17.675,0,0,0,5.246-10.432c0-1.51-1.391-1.51-1.908-1.51Zm5.484,1.669c.378,0,.835,0,.835.536a9.526,9.526,0,0,1-.477,2.106,15.651,15.651,0,0,1-1.828,3.736,50.859,50.859,0,0,0-6.319-3.855c.238-.338,1.252-1.908,1.47-2.186a.847.847,0,0,1,.795-.338Zm7.988,4.729a.866.866,0,1,0,0,1.729h15.3a.866.866,0,1,0,0-1.729Zm26.964-2.742c-.874.119-1.311.179-1.311.874,0,.378.159.894.735.894.258,0,3.318-.5,3.934-.6a33.526,33.526,0,0,1-3.5,8.743c-.378.616-.5.795-.5,1.113,0,.616.676.835,1.013.835.536,0,1.013-.914,1.53-1.888a39.87,39.87,0,0,0,3.259-9c.3,0,.676-.04.974-.04,2.424,0,2.742,1.272,2.742,3.537a13.906,13.906,0,0,1-.616,4.471c-.179.437-.576,1.192-2.444,1.192-.139,0-.815-.079-.974-.079-.5,0-.676.457-.676.835,0,.7.437.954,1.908.954,3.139,0,4.53-1.55,4.53-7.312,0-2.643-.258-5.365-5.047-5.166.2-.993.676-3.12.676-3.656,0-.5-.477-.7-.934-.7-.755,0-.815.5-.894.934-.258,1.649-.3,1.848-.656,3.557ZM141.594,27a.807.807,0,0,0-.894.775c0,.159.04.3.318.576a11.826,11.826,0,0,1,1.669,1.908c.417.616.517.735.854.735a.791.791,0,0,0,.775-.795c0-.258-.06-.437-.735-1.292C143,28.2,142.071,27.084,141.594,27Zm-1.828,2.384a.791.791,0,0,0-.815.715c0,.258.04.278.7.974a12.643,12.643,0,0,1,3.1,5.921c.179.755.258,1.073.835,1.073.179,0,.993-.079.993-.854a12.865,12.865,0,0,0-2.027-5.047C142.011,31.336,140.521,29.389,139.766,29.389Zm4.212-4.034a.8.8,0,0,0-.894.775c0,.159.02.3.3.576a10.948,10.948,0,0,1,1.689,1.908c.417.6.517.735.854.735a.805.805,0,0,0,.775-.795c0-.258-.06-.437-.735-1.292C145.389,26.528,144.455,25.415,143.978,25.355ZM153.2,35.37c.437-.854,1.828-3.557,3.5-6.7.437-.815.437-.914.437-1.073a.937.937,0,0,0-.954-.775c-.477,0-.656.3-1.133,1.252-1.888,3.755-4.868,9.8-6.756,13.551-.258.536-.318.636-.318.914a.907.907,0,0,0,.954.795c.318,0,.477-.139.755-.616.278-.517,1.49-3.06,1.808-3.616,2.086-3.8,4.61-3.855,5.047-3.855a1.144,1.144,0,0,1,1.272,1.212c0,.6-.5,3.5-.5,4.153a2.737,2.737,0,0,0,3,2.961c3.676,0,5.246-4.391,5.246-4.928a.871.871,0,0,0-.914-.795c-.437,0-.536.219-.854.954-1.093,2.5-2.4,3.1-3.378,3.1a1.239,1.239,0,0,1-1.391-1.292c0-.318.139-1.232.258-2.166.139-.934.258-1.868.258-2.206a2.461,2.461,0,0,0-2.663-2.623A5.574,5.574,0,0,0,153.2,35.37Zm24.42-2.762c-.079,3.219-.358,6.974-4.55,9.7-.7.457-.795.517-.795.874a.967.967,0,0,0,.954.954c.656,0,2.543-1.331,3.815-2.961,2.166-2.782,2.285-5.623,2.424-8.564h4.65a.864.864,0,0,0,0-1.729H173.207a15.046,15.046,0,0,0,1.311-3.219c0-.457-.517-.735-1.013-.735-.477,0-.656.278-.815.676a27.066,27.066,0,0,1-3.636,6.656c-.854,1.093-.934,1.192-.934,1.411a.964.964,0,0,0,.954.874,1.3,1.3,0,0,0,.934-.6,23.5,23.5,0,0,0,2.285-3.338Zm3.259-6.756a.591.591,0,0,0-.238-.04.8.8,0,0,0-.835.775c0,.179.119.318.358.7a10.531,10.531,0,0,1,1.053,1.987c.278.7.378.934.835.934a.824.824,0,0,0,.795-.795C182.844,28.992,181.512,26.11,180.877,25.852Zm3.3-.457a.55.55,0,0,0-.258-.06.791.791,0,0,0-.815.735c0,.2.06.3.338.715a11.35,11.35,0,0,1,1.013,2.027c.278.715.378.934.835.934a.81.81,0,0,0,.795-.795C186.083,28.495,184.771,25.634,184.175,25.4Zm5.742,18.181c.536,0,4.928-1.987,8.266-5.842a22.386,22.386,0,0,0,4.828-9.6c0-.616-.676-.854-1.033-.854-.616,0-.735.477-1.013,1.451a20.277,20.277,0,0,1-10.511,12.7c-1.431.715-1.51.755-1.51,1.192A.963.963,0,0,0,189.917,43.576Zm18.877-2.6c-.477.06-.954.119-.954.815,0,.1,0,.934.795.934.119,0,.159-.02.5-.06l12.935-1.828c.5.974.536,1.093.993,2.106.159.318.318.656.795.656a.948.948,0,0,0,.993-.835c0-.6-1.55-3.676-3.358-6.5C220.021,34,219.862,34,219.484,34a.85.85,0,0,0-.914.795,1.466,1.466,0,0,0,.378.835,36.393,36.393,0,0,1,2.3,3.676l-8.663,1.172c1.331-2.941,4.809-11.942,4.809-12.637,0-.517-.676-.775-1.093-.775-.536,0-.6.159-1.053,1.51-.5,1.49-2.126,6.239-4.689,12.16Zm29.388-5.782a8.779,8.779,0,0,0,.159-1.57V32.429h4.689a.669.669,0,0,0,.775-.715.66.66,0,0,0-.775-.7h-8.087c.477-.993.517-1.093.517-1.311a.766.766,0,0,0-.835-.735.739.739,0,0,0-.676.536,11.27,11.27,0,0,1-2.007,3.219c-.715.775-.795.854-.795,1.113a.92.92,0,0,0,.874.835.955.955,0,0,0,.656-.358,11.258,11.258,0,0,0,1.451-1.888h2.663v1.232a11.458,11.458,0,0,1-.139,1.53h-5.305c-.338,0-.755.06-.755.715,0,.7.517.7.755.7h4.828a7.132,7.132,0,0,1-4.789,3.8c-.318.1-.616.219-.616.656,0,.278.179.894.775.894A8.711,8.711,0,0,0,237.605,37c1.47,3.179,5.7,4.967,6.358,4.967.636,0,.795-.656.795-.934a.536.536,0,0,0-.278-.536c-.119-.06-.755-.3-.914-.338A9.162,9.162,0,0,1,239,36.6h4.967c.219,0,.755,0,.755-.7a.651.651,0,0,0-.755-.715Zm-7.471-8.206c-1.868,0-2.583.656-2.583,2.583V41.689c0,1.947.755,2.563,2.583,2.563H244.9a.75.75,0,1,0,0-1.49H230.909c-.835,0-1.133-.437-1.133-1.152V29.627c0-.755.338-1.152,1.133-1.152H244.5c.219,0,.835,0,.835-.735a.717.717,0,0,0-.835-.755Zm32.865,9.16c1.133.735,1.272.735,1.431.735a.829.829,0,0,0,.775-.854.6.6,0,0,0-.4-.576c-.238-.119-1.351-.7-1.609-.835.358-.378,1.192-1.272,1.192-1.629a.714.714,0,0,0-.715-.616.648.648,0,0,0-.517.278,15.754,15.754,0,0,1-1.013,1.232,9.192,9.192,0,0,1-1.828-1.888h4.034c.477,0,.715-.179.715-.676,0-.636-.477-.636-.715-.636h-6.438a1.905,1.905,0,0,0,.139-.556c0-.437-.536-.6-.815-.6a.579.579,0,0,0-.517.278c-.06.119-.3.735-.358.874h-4.312c-.517,0-.715.219-.715.676,0,.576.457.636.715.636H256.2a9.65,9.65,0,0,1-1.609,1.848c-.477-.5-1.053-1.053-1.133-1.133a.764.764,0,0,0-.517-.258.728.728,0,0,0-.715.636c0,.219.139.338,1.351,1.57-.2.119-1.212.755-1.451.894a.658.658,0,0,0-.378.576.764.764,0,0,0,.7.795c.139,0,.278,0,1.073-.517v2.106c0,1.093.338,1.749,1.749,1.749h2.444v2.186c0,.417-.119.6-.417.656-.2.04-1.093,0-1.311,0s-.715,0-.715.656a.716.716,0,0,0,.4.7c.159.06.179.079,1.192.079,1.768,0,2.484,0,2.484-1.868v-2.4h2.484c1.49,0,1.749-.755,1.749-1.749Zm-8.524.02c0-.417.179-.656.636-.656h5.723a.579.579,0,0,1,.656.656v.6h-7.014Zm.934-1.768a14.111,14.111,0,0,0,1.848-2.4h1.55a9.216,9.216,0,0,0,1.947,2.4Zm6.08,3.438v.636a.572.572,0,0,1-.656.656h-5.723c-.457,0-.636-.238-.636-.656v-.636Zm-12.2-7.908v5.524a20.991,20.991,0,0,1-2.345,1.371.757.757,0,0,0-.477.715c0,.318.159.914.676.914.477,0,1.47-.795,2.086-1.292a10.76,10.76,0,0,1-2.146,5.822,1.177,1.177,0,0,0-.258.656.883.883,0,0,0,.854.815c.318,0,.536-.06,1.292-1.292,1.848-3.02,1.848-6.458,1.848-8.425V30.065a.79.79,0,0,1,.894-.894h12.677c.3,0,.795-.04.795-.7s-.576-.676-.795-.676h-6.6v-.974c0-.6-.378-.735-.854-.735-.676,0-.795.417-.795.735V27.8h-4.729C250.5,27.8,249.865,28.316,249.865,29.926Zm-1.908-.517a.749.749,0,0,0-.755.676,1.433,1.433,0,0,0,.139.536c.3.755.4.934.536,1.371.477,1.391.477,1.451.894,1.451.278,0,.894-.159.894-.735a15.234,15.234,0,0,0-.854-2.384C248.534,29.647,248.375,29.409,247.958,29.409Zm7.749,12.16a.752.752,0,0,0-.715-.775c-.238,0-.258,0-1.113.616a12.671,12.671,0,0,1-1.888,1.093c-.993.477-1.073.517-1.073.894a.722.722,0,0,0,.7.755,8.11,8.11,0,0,0,2.325-1.093C254.495,42.722,255.707,41.987,255.707,41.569Zm5.385-.04c0,.457,1.192,1.192,1.788,1.55a8.048,8.048,0,0,0,2.186,1.033.829.829,0,0,0,.775-.835.542.542,0,0,0-.4-.536,17.143,17.143,0,0,1-2.782-1.53c-.616-.457-.616-.457-.815-.457A.767.767,0,0,0,261.092,41.53Zm14.565-2.861h-5.941a.727.727,0,1,0,0,1.451h5.941v2.365h-7.511a.777.777,0,1,0,0,1.55h16.79a.776.776,0,1,0,0-1.55h-7.59V40.119h6.021c.238,0,.795-.02.795-.715,0-.676-.477-.735-.795-.735h-6.021V36.4c2.861-.159,3.438-.179,4.59-.3.159.159.914.993.993,1.053a.788.788,0,0,0,.536.238.974.974,0,0,0,.874-.874c0-.258-.04-.338-.954-1.252a30.145,30.145,0,0,0-2.643-2.265,1.147,1.147,0,0,0-.576-.219.8.8,0,0,0-.755.755.6.6,0,0,0,.278.517c.139.139.815.715.954.835-3.716.2-3.815.2-7.014.3a29.49,29.49,0,0,0,1.59-2.722h7.253c.238,0,.755-.02.755-.7,0-.616-.4-.676-.755-.676H270.629c-.219,0-.775,0-.775.676s.536.7.775.7h2.782a22.733,22.733,0,0,1-1.629,2.762c-.378,0-2.464.04-2.623.06a.623.623,0,0,0-.477.676c0,.775.576.775.854.775.238,0,3.775-.1,6.12-.238ZM277.345,27.8v-.974c0-.556-.3-.715-.894-.715-.775,0-.815.477-.815.715V27.8h-5.683c-1.649,0-2.146.477-2.146,2.166v1.609c0,.556.219.835.874.835a.719.719,0,0,0,.795-.815v-1.47c0-.576.258-.854.835-.854h12.4a.743.743,0,0,1,.854.854v1.451c0,.636.3.835.894.835a.715.715,0,0,0,.795-.835V29.965c0-1.729-.517-2.166-2.146-2.166Z" transform="translate(-2833.437 1049.983)" fill="#f0f0d8"/></g></svg>