<svg xmlns="http://www.w3.org/2000/svg" width="281.104" height="58.539" viewBox="0 0 281.104 58.539"><g transform="translate(2207.439 -1172.566)"><path d="M7.584-.736c-.784.064-1.1.1-1.1.656,0,.352.128.7.656.7a66.309,66.309,0,0,0,6.736-.96c.032.128.24,1.264.256,1.312.064.224.208.352.544.352a.7.7,0,0,0,.752-.7A30.531,30.531,0,0,0,13.7-5.824c-.384-.976-.48-1.1-.848-1.1a.616.616,0,0,0-.688.576,12.648,12.648,0,0,0,.608,1.808c.176.448.688,2.224.864,3.04-1.232.24-3.952.576-4.768.672a82.48,82.48,0,0,0,2.176-12.1.641.641,0,0,0-.7-.688c-.64,0-.64.24-.784,1.728-.064.736-.432,3.648-1.088,7.152C8.1-2.816,7.952-2.192,7.584-.736Zm-6.352-12.4a.573.573,0,0,0-.672.592.577.577,0,0,0,.672.608h3.36a.483.483,0,0,1,.544.544v1.568a.488.488,0,0,1-.544.56h-2c-.544,0-1.152.032-1.392.816C1.168-8.32.848-5.92.848-5.744c0,1.232,1.072,1.232,1.472,1.232h2.4c.5,0,.5.336.5.56A19.964,19.964,0,0,1,4.944-.9c-.16.816-.592.816-1.072.816-.4,0-1.44-.032-1.6-.032a.575.575,0,0,0-.656.64.661.661,0,0,0,.352.64c.128.048.192.064,1.376.064,1.616,0,2.384,0,2.72-1.184A25.228,25.228,0,0,0,6.5-4.384c0-.992-.48-1.344-1.5-1.344H2.56c-.128,0-.384,0-.384-.368,0-.176.208-1.6.224-1.664A.406.406,0,0,1,2.864-8.1H4.912C5.968-8.1,6.4-8.464,6.4-9.568v-2.1c0-1.1-.432-1.472-1.488-1.472ZM22.592-2.528V-.64a.463.463,0,0,1-.448.544c-.112,0-.816-.016-.96-.016-.256,0-.656,0-.656.608,0,.7.528.7.832.7,1.472,0,1.536,0,1.824-.1.64-.224.672-.864.672-1.392V-7.552c0-1.2-.368-1.5-1.5-1.5H19.36c-1.168,0-1.5.32-1.5,1.5V.672c0,.416.144.672.64.672.576,0,.64-.384.64-.672v-3.2ZM19.136-7.36c0-.336.144-.512.512-.512H22.08a.45.45,0,0,1,.512.512v1.024H19.136Zm3.456,3.728H19.136V-5.248h3.456Zm.176-7.888a11.347,11.347,0,0,0-.848-1.536.757.757,0,0,0-.672-.448c-.32,0-.8.208-.8.5a.957.957,0,0,0,.1.4c.064.16.512.912.592,1.088H17.424a.546.546,0,0,0-.64.592.555.555,0,0,0,.64.608H31.248a.55.55,0,0,0,.64-.608.551.551,0,0,0-.64-.592H27.7c.624-1.008.7-1.184.7-1.408,0-.5-.544-.592-.816-.592-.448,0-.576.256-.784.672-.448.9-.5.992-.688,1.328Zm4.24,3.072c0-.464-.208-.624-.7-.624a.547.547,0,0,0-.624.624V-2.1c0,.464.208.64.7.64a.55.55,0,0,0,.624-.64Zm3.84-.384c0-.512-.224-.64-.7-.64-.592,0-.624.4-.624.64V-.848c0,.688-.432.72-.768.72-.224,0-1.312-.016-1.552-.016-.224,0-.624.032-.624.64a.69.69,0,0,0,.336.656,8.271,8.271,0,0,0,1.312.064c1.264,0,1.664,0,2.032-.224A1.614,1.614,0,0,0,30.848-.5Zm8.88.64A9.914,9.914,0,0,1,33.792-.208c-.32.16-.512.3-.512.656a.754.754,0,0,0,.688.784,9.921,9.921,0,0,0,3.44-2.144,11.426,11.426,0,0,0,3.28-5.328A11.68,11.68,0,0,0,44.032-.88a9.142,9.142,0,0,0,3.216,2.064.8.8,0,0,0,.736-.8c0-.352-.208-.5-.5-.64A10.421,10.421,0,0,1,41.5-8.192h5.952c.32,0,.7-.1.7-.672a.61.61,0,0,0-.7-.656H41.232v-3.3c0-.48-.224-.672-.752-.672a.591.591,0,0,0-.672.672v3.3H33.792c-.336,0-.72.1-.72.672a.621.621,0,0,0,.72.656Zm13.248-2.72c.432-.112.56-.368.56-.576a3.882,3.882,0,0,0-.56-1.216c-.352-.576-.512-.816-.88-.816-.336,0-.736.224-.736.56a.906.906,0,0,0,.16.416c.064.1.416.672.48.8.384.688.416.768.608.832H51.68c-1.2,0-1.712.4-1.712,1.7v1.328c0,.5.224.656.72.656.624,0,.64-.448.64-.672V-9.088A.6.6,0,0,1,52-9.776h9.936c.464,0,.672.224.672.688V-7.9c0,.432.16.656.72.656.64,0,.64-.448.64-.656V-9.216c0-.656-.064-1.7-1.552-1.7h-.832a7.268,7.268,0,0,0,1.024-2.016c0-.448-.5-.608-.752-.608-.368,0-.432.144-.8.9a15.883,15.883,0,0,1-.928,1.728ZM57.76-4.3V-4.64a21.691,21.691,0,0,0,2.272-1.248c.864-.56,1.408-.96,1.408-1.6,0-.8-.7-.8-1.248-.8H52.64a.556.556,0,0,0-.624.592.529.529,0,0,0,.608.592h6.384c.208,0,.32,0,.32.144a7.788,7.788,0,0,1-2.3,1.424c-.464-.064-.64.176-.64.5V-4.3H50.16a.575.575,0,0,0-.672.608.577.577,0,0,0,.672.608h6.224v2.16c0,.72-.368.8-.848.8L53.888-.16a.566.566,0,0,0-.656.64.829.829,0,0,0,.288.64c.144.1.336.1.88.1h1.632c1.312,0,1.728-.48,1.728-1.728V-3.088H63.7c.224,0,.672-.016.672-.608A.572.572,0,0,0,63.7-4.3Zm-1.392-9.36c-.176,0-.688.16-.688.56,0,.144.048.24.48,1.04.528.96.544,1.024.9,1.024.192,0,.736-.1.736-.592a4.212,4.212,0,0,0-.624-1.408C56.832-13.6,56.768-13.664,56.368-13.664ZM74.592-6.288a7.068,7.068,0,0,0,.128-1.264v-.96H78.5a.538.538,0,0,0,.624-.576.531.531,0,0,0-.624-.56H71.984c.384-.8.416-.88.416-1.056a.617.617,0,0,0-.672-.592.6.6,0,0,0-.544.432,9.075,9.075,0,0,1-1.616,2.592c-.576.624-.64.688-.64.9a.741.741,0,0,0,.7.672.769.769,0,0,0,.528-.288,9.064,9.064,0,0,0,1.168-1.52h2.144v.992a9.226,9.226,0,0,1-.112,1.232H69.088c-.272,0-.608.048-.608.576,0,.56.416.56.608.56h3.888A5.743,5.743,0,0,1,69.12-2.1c-.256.08-.5.176-.5.528,0,.224.144.72.624.72a7.014,7.014,0,0,0,4.88-3.984,8.551,8.551,0,0,0,5.12,4c.512,0,.64-.528.64-.752a.432.432,0,0,0-.224-.432c-.1-.048-.608-.24-.736-.272a7.378,7.378,0,0,1-3.68-2.864h4c.176,0,.608,0,.608-.56a.524.524,0,0,0-.608-.576ZM68.576-12.9c-1.5,0-2.08.528-2.08,2.08v9.76c0,1.568.608,2.064,2.08,2.064H80A.572.572,0,0,0,80.672.4.573.573,0,0,0,80-.192H68.736c-.672,0-.912-.352-.912-.928v-9.648c0-.608.272-.928.912-.928H79.68c.176,0,.672,0,.672-.592a.577.577,0,0,0-.672-.608Zm17.04,1.984c.432-.112.56-.368.56-.576a3.882,3.882,0,0,0-.56-1.216c-.352-.576-.512-.816-.88-.816-.336,0-.736.224-.736.56a.906.906,0,0,0,.16.416c.064.1.416.672.48.8.384.688.416.768.608.832H84.32c-1.2,0-1.712.4-1.712,1.7v1.328c0,.5.224.656.72.656.624,0,.64-.448.64-.672V-9.088a.6.6,0,0,1,.672-.688h9.936c.464,0,.672.224.672.688V-7.9c0,.432.16.656.72.656.64,0,.64-.448.64-.656V-9.216c0-.656-.064-1.7-1.552-1.7h-.832a7.268,7.268,0,0,0,1.024-2.016c0-.448-.5-.608-.752-.608-.368,0-.432.144-.8.9a15.883,15.883,0,0,1-.928,1.728ZM90.4-4.3V-4.64a21.691,21.691,0,0,0,2.272-1.248c.864-.56,1.408-.96,1.408-1.6,0-.8-.7-.8-1.248-.8H85.28a.556.556,0,0,0-.624.592.529.529,0,0,0,.608.592h6.384c.208,0,.32,0,.32.144a7.788,7.788,0,0,1-2.3,1.424c-.464-.064-.64.176-.64.5V-4.3H82.8a.575.575,0,0,0-.672.608.577.577,0,0,0,.672.608h6.224v2.16c0,.72-.368.8-.848.8L86.528-.16a.566.566,0,0,0-.656.64.829.829,0,0,0,.288.64c.144.1.336.1.88.1h1.632c1.312,0,1.728-.48,1.728-1.728V-3.088h5.936c.224,0,.672-.016.672-.608a.572.572,0,0,0-.672-.608Zm-1.392-9.36c-.176,0-.688.16-.688.56,0,.144.048.24.48,1.04.528.96.544,1.024.9,1.024.192,0,.736-.1.736-.592a4.212,4.212,0,0,0-.624-1.408C89.472-13.6,89.408-13.664,89.008-13.664Zm10.464,1.84a.569.569,0,0,0-.656.576.567.567,0,0,0,.656.592h.56a20.927,20.927,0,0,1,.624,3.2H99.072a.529.529,0,0,0-.608.592c0,.592.432.592.624.592h7.344c.192,0,.624,0,.624-.576,0-.56-.368-.608-.624-.608h-1.7a31.569,31.569,0,0,0,.784-3.2h.576a.557.557,0,0,0,.64-.576.561.561,0,0,0-.64-.592h-2.672v-1.184c0-.16,0-.592-.624-.592-.464,0-.7.144-.7.592v1.184Zm4.768,1.168a25.614,25.614,0,0,1-.736,3.2h-1.616a32.286,32.286,0,0,0-.64-3.2Zm-3.152,5.888c-1.36,0-1.728.384-1.728,1.728V-.656c0,1.36.384,1.744,1.728,1.744h3.3c1.376,0,1.728-.416,1.728-1.744V-3.04c0-1.376-.4-1.728-1.728-1.728Zm3.76,4a.6.6,0,0,1-.688.688h-2.832a.6.6,0,0,1-.688-.688V-2.944c0-.544.288-.7.688-.7h2.832c.432,0,.688.192.688.7Zm3.872-10.56c0-.32.128-.528.512-.528h1.728c.192,0,.512,0,.512.32a18.026,18.026,0,0,1-1.52,3.344,1.6,1.6,0,0,0-.192.672c0,.368.032.4.96,1.424a4.529,4.529,0,0,1,1.216,2.8c0,.656-.224,1.76-1.44,1.76-.1,0-.624-.032-.736-.032-.432,0-.544.256-.544.608,0,.608.32.656.464.688.144.016,1.024.016,1.264,0a2.559,2.559,0,0,0,2.336-2.816,4.923,4.923,0,0,0-.72-2.528A6.348,6.348,0,0,0,111.2-7.3a.434.434,0,0,1-.16-.3.6.6,0,0,1,.08-.256c.528-.96.576-1.056.864-1.68.768-1.664.832-1.984.832-2.4,0-1.152-.928-1.152-1.664-1.152h-2.24c-1.184,0-1.5.352-1.5,1.5V.768c0,.48.192.672.688.672a.571.571,0,0,0,.624-.672Zm7.776-.032c0-.32.144-.512.528-.512h.96c.128,0,.432,0,.432.336a12.254,12.254,0,0,1-.784,2.352c-.32.752-.384.9-.384,1.136,0,.288.048.368.48,1.056a4.339,4.339,0,0,1,.816,2.592c0,1.136-.48,1.136-1.344,1.136-.272,0-.432.176-.432.512,0,.752.416.752.832.752.88,0,2.208,0,2.208-2.128a5.885,5.885,0,0,0-1.12-3.376c-.24-.336-.272-.448-.272-.592,0-.176.064-.3.5-1.344a8.655,8.655,0,0,0,.8-2.624c0-1.04-.848-1.04-1.472-1.04h-1.472c-1.2,0-1.5.336-1.5,1.488V.768c0,.384.128.656.624.656.576,0,.608-.4.608-.656ZM121.04.784a.579.579,0,0,0,.624.672c.608,0,.64-.432.64-.672V-9.888a12.959,12.959,0,0,0,.928-3.12c0-.448-.448-.528-.688-.528-.464,0-.56.272-.624.608a13.1,13.1,0,0,1-1.84,4.32c-.048.08-.7.96-.7.992a.562.562,0,0,0-.08.32.748.748,0,0,0,.688.784c.24,0,.432-.08,1.056-1.008Zm7.408-9.648h.656c.256,0,.576-.08.576-.64,0-.528-.32-.624-.576-.624h-.656v-2.8c0-.224-.016-.64-.656-.64-.656,0-.656.448-.656.64v2.8h-3.712c-.256,0-.624.048-.624.64,0,.624.432.624.624.624h3.712v8c0,.544-.192.7-.624.736-.112.016-.656,0-.768,0-.608,0-1.056,0-1.056.608,0,.224.08.592.384.672a8.16,8.16,0,0,0,1.28.064c1.232,0,2.1-.048,2.1-1.712ZM123.9-7.1a.6.6,0,0,0-.64.544,4.912,4.912,0,0,0,.416,1.024,14.684,14.684,0,0,1,.784,1.888c.288.864.336.96.7.96.24,0,.736-.112.736-.608a11.7,11.7,0,0,0-.912-2.352C124.3-7.088,124.208-7.1,123.9-7.1Zm15.344,5.84c-.384.016-2.064.1-2.464.144-.192.016-.56.048-.56.48,0,.544.464.544.64.544.384,0,4.064-.352,5.344-.528.256.592.288.64.544.64a.466.466,0,0,0,.5-.448,5.566,5.566,0,0,0-.752-1.7c-.128-.24-.24-.3-.416-.3-.128,0-.464.064-.464.384,0,.16.048.24.192.56-.464.064-.608.08-1.328.128V-2.768h3.232a.476.476,0,0,1,.544.544V-.48a.477.477,0,0,1-.544.544c-.144,0-.88-.032-1.04-.032a.515.515,0,0,0-.592.544c0,.64.5.64.832.64a7.1,7.1,0,0,0,1.952-.1c.64-.208.688-.848.688-1.408V-2.224c0-1.168-.336-1.488-1.5-1.488H140.48v-.944h3.312c.848,0,1.152-.208,1.152-1.136v-.592c0-.912-.288-1.136-1.152-1.136H140.48v-.816c1.728-.08,2.448-.128,3.1-.192.9-.1,1.136-.128,1.136-.544a.451.451,0,0,0-.464-.512c-.16,0-1.3.144-1.552.16-2.416.208-4.848.224-7.3.24-.3,0-.624,0-.624.48s.368.48.768.48c.688,0,3.376-.064,3.7-.064v.768H136.08c-.912,0-1.152.256-1.152,1.136v.592c0,.928.288,1.136,1.152,1.136h3.168v.944h-3.44c-1.184,0-1.5.336-1.5,1.488V.736c0,.32.064.624.64.624s.624-.352.624-.624v-2.96a.476.476,0,0,1,.544-.544h3.136Zm-2.72-4.288c-.256,0-.384-.112-.384-.384v-.32a.339.339,0,0,1,.384-.384h2.72v1.088ZM140.48-6.64h2.848a.345.345,0,0,1,.384.384v.32a.339.339,0,0,1-.384.384H140.48ZM133.664-10H144.08c.944,0,1.184-.272,1.184-1.168v-.64c0-.928-.256-1.184-1.184-1.184H133.872c-1.168,0-1.488.336-1.488,1.5V-6.72A26.208,26.208,0,0,1,132.192-4a13.029,13.029,0,0,1-1.056,3.856,1.194,1.194,0,0,0-.128.512.735.735,0,0,0,.736.672c.336,0,.5-.144.848-1.04a21.191,21.191,0,0,0,1.072-6.752Zm0-1.472a.448.448,0,0,1,.512-.512h9.392c.288,0,.4.144.4.384v.24a.349.349,0,0,1-.4.4h-9.9Zm26.144,5.824a.477.477,0,0,1,.544.544V-.5c0,.56-.336.576-.608.576-.032,0-.88-.032-1.04-.016a.493.493,0,0,0-.544.56.549.549,0,0,0,.432.576c.144.032.816.032,1.232.032,1.216,0,1.792-.048,1.792-1.5V-5.248c0-1.12-.432-1.472-1.472-1.472h-2.976c.032-.256.128-1.408.128-1.664h4.24c.16,0,.656,0,.656-.56,0-.544-.416-.576-.656-.576H152.1c-.192,0-.656.016-.656.576,0,.464.3.56.656.56h3.952c0,.16-.016.928-.08,1.664h-2.512c-1.056,0-1.472.384-1.472,1.472V.688a.561.561,0,0,0,.608.656c.448,0,.656-.16.656-.656V-5.1c0-.384.192-.544.56-.544h2a5.151,5.151,0,0,1-2.144,3.328.547.547,0,0,0-.272.448.719.719,0,0,0,.624.672c.416,0,1.872-1.1,2.672-3.328a8.356,8.356,0,0,0,1.68,2.4c.3.3.9.848,1.216.848a.613.613,0,0,0,.608-.576c0-.208-.016-.224-.688-.768a5.763,5.763,0,0,1-2.144-3.024Zm-10.032-.96c0,.176-.016.528-.016.656a19.871,19.871,0,0,1-1.888.912c-.544.24-.688.3-.688.688,0,.224.128.736.56.736a8.629,8.629,0,0,0,1.888-.928,9.151,9.151,0,0,1-1.808,4.56.809.809,0,0,0-.224.512.734.734,0,0,0,.736.672c.224,0,.4,0,1.04-.976a12.513,12.513,0,0,0,1.664-6.672v-3.744a.629.629,0,0,1,.72-.72h9.792c.416,0,.64-.144.64-.624,0-.56-.464-.56-.64-.56h-5.3v-.848c0-.48-.272-.592-.72-.592-.5,0-.672.192-.672.592v.848h-3.392c-1.216,0-1.7.416-1.7,1.7Zm-1.712-4.24a.628.628,0,0,0-.64.56,1.125,1.125,0,0,0,.128.416c.208.448.512,1.12.64,1.472.272.7.32.8.64.8a.687.687,0,0,0,.72-.592,6.524,6.524,0,0,0-.624-1.568C148.464-10.736,148.416-10.848,148.064-10.848Zm26.16-1.12v-1.056c0-.24-.064-.592-.64-.592-.64,0-.64.448-.64.592v1.056h-2.56c-1.008,0-1.472.32-1.472,1.472v1.28c0,.272.048.672.64.672a.576.576,0,0,0,.624-.672v-1.056a.45.45,0,0,1,.512-.512h5.728a.455.455,0,0,1,.512.512v1.056c0,.352.1.656.64.656.608,0,.624-.432.624-.656V-10.5c0-1.136-.448-1.472-1.472-1.472ZM176.24-7.9c.192,0,.624,0,.624-.576s-.432-.576-.624-.576h-5.3a.53.53,0,0,0-.624.576.53.53,0,0,0,.624.576ZM164.176.752c0,.256.032.672.624.672.544,0,.624-.336.624-.672V-11.36c0-.336.144-.528.512-.528h.992c.16,0,.416,0,.416.336a13.719,13.719,0,0,1-.784,2.288c-.336.848-.384.944-.384,1.12a1.133,1.133,0,0,0,.256.656,5.294,5.294,0,0,1,1.024,3.056c0,1.12-.384,1.12-1.008,1.12-.432,0-.72,0-.72.64,0,.576.416.688.768.688a2.573,2.573,0,0,0,1.408-.208,2.107,2.107,0,0,0,.8-1.968,6.06,6.06,0,0,0-1.136-3.44c-.224-.3-.3-.416-.3-.56a4,4,0,0,1,.416-1.056,9,9,0,0,0,.9-2.848c0-1.056-.768-1.056-1.552-1.056H165.68c-1.168,0-1.5.3-1.5,1.488ZM175.264-5.04h2.688c.192,0,.672,0,.672-.608a.572.572,0,0,0-.672-.608h-8.64a.583.583,0,0,0-.688.608.583.583,0,0,0,.688.608h1.936c-.064,3.456-1.056,4.224-2.912,5.072-.288.128-.5.24-.5.576a.7.7,0,0,0,.64.72A4.75,4.75,0,0,0,170.464.32c1.7-1.36,1.984-3.168,2.032-5.36H174V-.224c0,1.44.56,1.5,1.824,1.5,1.648,0,1.968,0,2.256-.384a5.356,5.356,0,0,0,.5-2.352.555.555,0,0,0-.624-.64.465.465,0,0,0-.48.272c-.048.176-.128,1.072-.176,1.28-.112.592-.112.592-1.072.592-.72,0-.96,0-.96-.56Zm21.12-6.8a18.871,18.871,0,0,0,3.088-.464.462.462,0,0,0,.4-.512.507.507,0,0,0-.5-.56c-.112,0-1.536.288-1.824.336a53.242,53.242,0,0,1-5.312.384c-.368,0-.64.032-.64.5,0,.544.384.544.864.544.688,0,1.792-.064,2.688-.128v1.024h-3.6c-.368,0-.608.16-.608.544,0,.448.336.528.608.528h3.6V-8.7h-2.016c-1.184,0-1.488.352-1.488,1.5v2.144c0,1.184.32,1.5,1.488,1.5h2.016v1.1h-3.36c-.384,0-.576.16-.576.528,0,.352.208.512.56.512h3.376v1.3H191.52c-.288,0-.608.112-.608.528,0,.48.432.512.608.512h8.544c.336,0,.608-.128.608-.512,0-.448-.352-.528-.608-.528h-3.68v-1.3h3.344c.416,0,.576-.192.576-.528,0-.368-.224-.512-.576-.512h-3.344v-1.1h2.048c1.2,0,1.5-.352,1.5-1.5V-7.2c0-1.168-.336-1.5-1.5-1.5h-2.048v-.944h3.6c.352,0,.592-.144.592-.528,0-.464-.336-.544-.592-.544h-3.6Zm-3.568,4.464c0-.272.144-.384.4-.384h1.936v1.184h-2.336Zm.4,2.9a.349.349,0,0,1-.4-.4v-.848h2.336V-4.48Zm3.168-2.1V-7.76h1.968c.256,0,.4.112.4.384v.8Zm2.368,1.7a.349.349,0,0,1-.4.4h-1.968V-5.728h2.368ZM189.52-4V-.624c0,.56-.256.56-.848.56-.752,0-.992.08-.992.576,0,.672.48.72,1.136.72,1.536,0,1.824-.384,1.824-1.5v-11.3c0-1.168-.32-1.5-1.5-1.5h-1.264c-1.184,0-1.488.352-1.488,1.5v6.336A17.559,17.559,0,0,1,186-1.184c-.048.256-.48,1.424-.48,1.712a.668.668,0,0,0,.7.64c.384,0,.464-.208.72-1.04A16.729,16.729,0,0,0,187.552-4Zm-1.952-7.44c0-.272.112-.4.384-.4h1.184c.272,0,.384.144.384.4v2.384h-1.952Zm1.952,6.288h-1.952V-7.9h1.952ZM215.5-9.136c0-1.04-.352-1.344-1.376-1.344h-5.856c-1.04,0-1.376.336-1.376,1.344v1.472c0,1.04.352,1.36,1.376,1.36h5.856c1.024,0,1.376-.336,1.376-1.36Zm-7.312.288v-.384a.355.355,0,0,1,.4-.4h5.232a.349.349,0,0,1,.4.4v.384Zm6.032,1.312a.349.349,0,0,1-.4.4h-5.232a.349.349,0,0,1-.4-.4v-.528h6.032Zm-1.92,4.56A8.334,8.334,0,0,1,209.632-.24c-1.008.592-1.12.656-1.12.912a.662.662,0,0,0,.608.656c.576,0,3.168-1.824,4.464-4.3h.752a.443.443,0,0,1,.5.464,9.184,9.184,0,0,1-.256,1.776c-.176.672-.464.768-.832.784-.112.016-1.008,0-1.2,0-.336,0-.736,0-.736.528a.6.6,0,0,0,.672.624c.192.016.784.016,1.168.016.752,0,1.5-.032,1.9-1.04a10.514,10.514,0,0,0,.512-2.864c0-1.136-.688-1.248-1.424-1.248h-5.68a8.714,8.714,0,0,0,.576-.72h6.752c.272,0,.592-.1.592-.512,0-.5-.5-.5-.608-.5H206.224a.476.476,0,0,0-.528.512.486.486,0,0,0,.528.5h2c-.128.112-.672.72-.8.832a8.734,8.734,0,0,1-1.488,1.008c-.736.352-.784.384-.784.672a.535.535,0,0,0,.5.56,5.881,5.881,0,0,0,2.336-1.392h1.424c-.208.224-.48.544-.608.672a7.874,7.874,0,0,1-2.112,1.44c-.928.416-.992.448-.992.736a.665.665,0,0,0,.592.672A4.2,4.2,0,0,0,207.5,0a10.4,10.4,0,0,0,3.312-2.976ZM204.256-6.8c0,.224,0,.336-.016.832a15.159,15.159,0,0,1-1.616.912c-.7.352-.816.416-.816.784,0,.32.176.72.544.72.256,0,.56-.176,1.792-1.008A9.545,9.545,0,0,1,202.432.08a.7.7,0,0,0-.176.448c0,.432.48.656.752.656s.5-.16,1.008-1.04a13.949,13.949,0,0,0,1.5-6.992v-3.68c0-.48.208-.72.7-.72h9.952c.192,0,.656,0,.656-.56s-.48-.56-.656-.56H210.9v-.672c0-.32-.144-.544-.688-.544-.672,0-.688.368-.688.544v.672h-3.568c-1.2,0-1.7.416-1.7,1.7Zm-1.6-4.128c-.192,0-.608.16-.608.544a.9.9,0,0,0,.112.416c.24.56.528,1.232.592,1.424.224.64.272.816.672.816a.583.583,0,0,0,.624-.56,6.115,6.115,0,0,0-.48-1.408C203.088-10.784,203.04-10.928,202.656-10.928Zm21.664,3.04,5.7-.368c.224-.016.32-.016.32.1a9.761,9.761,0,0,1-1.744,2.336c-.752.784-.768.816-.768,1.056a.7.7,0,0,0,.72.64c.416,0,.928-.608,1.376-1.12.816-.96,2.336-2.88,2.336-3.6,0-.88-.9-.816-1.52-.784l-6.416.384v-3.264c0-.272-.032-.7-.72-.7-.7,0-.72.48-.72.7v3.344l-3.3.208c-.352.016-.7.128-.7.672a.647.647,0,0,0,.784.7l3.216-.208v5.328c0,2.64,1.616,2.88,4.416,2.88.4,0,2.048-.016,3.84-.1.432-.016.928-.1.928-.768a.628.628,0,0,0-.7-.688c-.144,0-.832.048-.992.064-1.04.048-2.064.08-3.1.08-2.448,0-2.944-.128-2.944-1.7Zm23.76-.96a.719.719,0,0,0-.608.416,18.622,18.622,0,0,1-2.4,2.9A17.055,17.055,0,0,1,237.536-1.2c-1.024.256-1.28.32-1.28.832A.824.824,0,0,0,237.04.5a16.76,16.76,0,0,0,6.592-2.9c3.264-2.272,5.248-5.248,5.248-5.712A.824.824,0,0,0,248.08-8.848ZM237.056-11.9a.778.778,0,0,0-.784.752c0,.32.224.464.464.576a22,22,0,0,1,3.36,1.568,1.714,1.714,0,0,0,.752.3.8.8,0,0,0,.7-.816c0-.32,0-.56-2.144-1.536A11.079,11.079,0,0,0,237.056-11.9Zm20.48-.064c-1.376,0-1.472.08-2.1,1.152a12.505,12.505,0,0,1-2.88,3.472c-.4.336-.576.48-.576.784a.791.791,0,0,0,.736.736c.464,0,1.584-1.136,2.112-1.744a39.425,39.425,0,0,1,5.088,3.232,13.05,13.05,0,0,1-5.152,3.584c-.592.224-.96.368-.96.8A.747.747,0,0,0,254.5.8a13.049,13.049,0,0,0,5.488-3.152,14.232,14.232,0,0,0,4.224-8.4c0-1.216-1.12-1.216-1.536-1.216Zm4.416,1.344c.3,0,.672,0,.672.432a7.67,7.67,0,0,1-.384,1.7,12.6,12.6,0,0,1-1.472,3.008,40.954,40.954,0,0,0-5.088-3.1c.192-.272,1.008-1.536,1.184-1.76a.682.682,0,0,1,.64-.272Zm6.656,3.808a.632.632,0,0,0-.736.7.633.633,0,0,0,.736.688h12.32a.628.628,0,0,0,.736-.672.633.633,0,0,0-.736-.72Z" transform="translate(-2208 1186.23)" fill="#f0f0d8"/><path d="M4.445-19.74c-1.54.21-2.31.315-2.31,1.54,0,.665.28,1.575,1.295,1.575.455,0,5.845-.875,6.93-1.05A59.053,59.053,0,0,1,4.2-2.275c-.665,1.085-.875,1.4-.875,1.96,0,1.085,1.19,1.47,1.785,1.47.945,0,1.785-1.61,2.7-3.325a70.229,70.229,0,0,0,5.74-15.855c.525,0,1.19-.07,1.715-.07,4.27,0,4.83,2.24,4.83,6.23,0,2.24-.245,5.88-1.085,7.875-.315.77-1.015,2.1-4.3,2.1-.245,0-1.435-.14-1.715-.14-.875,0-1.19.8-1.19,1.47,0,1.225.77,1.68,3.36,1.68,5.53,0,7.98-2.73,7.98-12.88,0-4.655-.455-9.45-8.89-9.1.35-1.75,1.19-5.5,1.19-6.44,0-.875-.84-1.225-1.645-1.225-1.33,0-1.435.875-1.575,1.645-.455,2.905-.525,3.255-1.155,6.265Zm21.84-8.435A1.422,1.422,0,0,0,24.71-26.81c0,.28.07.525.56,1.015a20.83,20.83,0,0,1,2.94,3.36c.735,1.085.91,1.3,1.505,1.3a1.394,1.394,0,0,0,1.365-1.4c0-.455-.1-.77-1.3-2.275C28.77-26.075,27.125-28.035,26.285-28.175Zm-3.22,4.2a1.393,1.393,0,0,0-1.435,1.26c0,.455.07.49,1.225,1.715a22.271,22.271,0,0,1,5.46,10.43c.315,1.33.455,1.89,1.47,1.89.315,0,1.75-.14,1.75-1.505a22.66,22.66,0,0,0-3.57-8.89C27.02-20.545,24.4-23.975,23.065-23.975Zm7.42-7.1a1.405,1.405,0,0,0-1.575,1.365c0,.28.035.525.525,1.015a19.284,19.284,0,0,1,2.975,3.36c.735,1.05.91,1.3,1.505,1.3a1.419,1.419,0,0,0,1.365-1.4c0-.455-.1-.77-1.295-2.275C32.97-29.015,31.325-30.975,30.485-31.08Zm16.17,17.64c.77-1.5,3.22-6.265,6.16-11.8.77-1.435.77-1.61.77-1.89A1.651,1.651,0,0,0,51.9-28.49c-.84,0-1.155.525-1.995,2.2C46.585-19.67,41.335-9.03,38.01-2.415c-.455.945-.56,1.12-.56,1.61A1.6,1.6,0,0,0,39.13.6c.56,0,.84-.245,1.33-1.085.49-.91,2.625-5.39,3.185-6.37,3.675-6.685,8.12-6.79,8.89-6.79a2.016,2.016,0,0,1,2.24,2.135c0,1.05-.875,6.16-.875,7.315,0,5.215,4.48,5.215,5.285,5.215,6.475,0,9.24-7.735,9.24-8.68a1.534,1.534,0,0,0-1.61-1.4c-.77,0-.945.385-1.505,1.68-1.925,4.41-4.235,5.46-5.95,5.46A2.183,2.183,0,0,1,56.91-4.2c0-.56.245-2.17.455-3.815.245-1.645.455-3.29.455-3.885a4.335,4.335,0,0,0-4.69-4.62C49.91-16.52,47.565-14.28,46.655-13.44ZM89.6-18.305c-.14,5.67-.63,12.285-8.015,17.08-1.225.805-1.4.91-1.4,1.54A1.7,1.7,0,0,0,81.865,2c1.155,0,4.48-2.345,6.72-5.215,3.815-4.9,4.025-9.9,4.27-15.085h8.19a1.342,1.342,0,0,0,1.505-1.54,1.351,1.351,0,0,0-1.505-1.505H81.83c.6-1.19,2.31-4.69,2.31-5.67,0-.805-.91-1.3-1.785-1.3-.84,0-1.155.49-1.435,1.19a47.675,47.675,0,0,1-6.4,11.725c-1.5,1.925-1.645,2.1-1.645,2.485a1.7,1.7,0,0,0,1.68,1.54,2.289,2.289,0,0,0,1.645-1.05,41.384,41.384,0,0,0,4.025-5.88Zm5.74-11.9a1.04,1.04,0,0,0-.42-.07,1.406,1.406,0,0,0-1.47,1.365c0,.315.21.56.63,1.225a18.549,18.549,0,0,1,1.855,3.5c.49,1.225.665,1.645,1.47,1.645a1.452,1.452,0,0,0,1.4-1.4C98.805-24.675,96.46-29.75,95.34-30.2Zm5.81-.8a.969.969,0,0,0-.455-.105,1.393,1.393,0,0,0-1.435,1.3c0,.35.105.525.6,1.26a19.992,19.992,0,0,1,1.785,3.57c.49,1.26.665,1.645,1.47,1.645a1.427,1.427,0,0,0,1.4-1.4C104.51-25.55,102.2-30.59,101.15-31.01ZM111.195,1.015c.945,0,8.68-3.5,14.56-10.29a39.431,39.431,0,0,0,8.5-16.905c0-1.085-1.19-1.5-1.82-1.5-1.085,0-1.295.84-1.785,2.555A35.717,35.717,0,0,1,112.14-2.765c-2.52,1.26-2.66,1.33-2.66,2.1A1.7,1.7,0,0,0,111.195,1.015Zm33.18-4.585c-.84.105-1.68.21-1.68,1.435,0,.175,0,1.645,1.4,1.645.21,0,.28-.035.875-.105l22.785-3.22c.875,1.715.945,1.925,1.75,3.71.28.56.56,1.155,1.4,1.155a1.671,1.671,0,0,0,1.75-1.47c0-1.05-2.73-6.475-5.915-11.445-2.59-3.99-2.87-3.99-3.535-3.99a1.5,1.5,0,0,0-1.61,1.4,2.582,2.582,0,0,0,.665,1.47,64.1,64.1,0,0,1,4.06,6.475L151.06-4.445c2.345-5.18,8.47-21.035,8.47-22.26,0-.91-1.19-1.365-1.925-1.365-.945,0-1.05.28-1.855,2.66-.875,2.625-3.745,10.99-8.26,21.42ZM196.07-13.755a15.462,15.462,0,0,0,.28-2.765v-2.1h8.26a1.178,1.178,0,0,0,1.365-1.26A1.162,1.162,0,0,0,204.61-21.1H190.365c.84-1.75.91-1.925.91-2.31a1.349,1.349,0,0,0-1.47-1.295,1.3,1.3,0,0,0-1.19.945,19.851,19.851,0,0,1-3.535,5.67c-1.26,1.365-1.4,1.505-1.4,1.96a1.62,1.62,0,0,0,1.54,1.47,1.681,1.681,0,0,0,1.155-.63,19.829,19.829,0,0,0,2.555-3.325h4.69v2.17a20.181,20.181,0,0,1-.245,2.7H184.03c-.6,0-1.33.105-1.33,1.26,0,1.225.91,1.225,1.33,1.225h8.505A12.563,12.563,0,0,1,184.1-4.585c-.56.175-1.085.385-1.085,1.155,0,.49.315,1.575,1.365,1.575a15.344,15.344,0,0,0,10.675-8.715c2.59,5.6,10.045,8.75,11.2,8.75,1.12,0,1.4-1.155,1.4-1.645a.944.944,0,0,0-.49-.945c-.21-.105-1.33-.525-1.61-.6a16.138,16.138,0,0,1-8.05-6.265h8.75c.385,0,1.33,0,1.33-1.225a1.147,1.147,0,0,0-1.33-1.26ZM182.91-28.21c-3.29,0-4.55,1.155-4.55,4.55V-2.31c0,3.43,1.33,4.515,4.55,4.515H207.9a1.251,1.251,0,0,0,1.47-1.33,1.254,1.254,0,0,0-1.47-1.3H183.26c-1.47,0-1.995-.77-1.995-2.03v-21.1c0-1.33.6-2.03,1.995-2.03H207.2c.385,0,1.47,0,1.47-1.3a1.263,1.263,0,0,0-1.47-1.33Zm57.82,16.135c1.995,1.3,2.24,1.3,2.52,1.3a1.461,1.461,0,0,0,1.365-1.505,1.05,1.05,0,0,0-.7-1.015c-.42-.21-2.38-1.225-2.835-1.47.63-.665,2.1-2.24,2.1-2.87a1.258,1.258,0,0,0-1.26-1.085,1.142,1.142,0,0,0-.91.49,27.742,27.742,0,0,1-1.785,2.17A16.192,16.192,0,0,1,236-19.39h7.105c.84,0,1.26-.315,1.26-1.19,0-1.12-.84-1.12-1.26-1.12H231.77a3.357,3.357,0,0,0,.245-.98c0-.77-.945-1.05-1.435-1.05a1.02,1.02,0,0,0-.91.49c-.1.21-.525,1.3-.63,1.54h-7.6c-.91,0-1.26.385-1.26,1.19,0,1.015.8,1.12,1.26,1.12h6.3a17,17,0,0,1-2.835,3.255c-.84-.875-1.855-1.855-2-2a1.346,1.346,0,0,0-.91-.455,1.282,1.282,0,0,0-1.26,1.12c0,.385.245.6,2.38,2.765-.35.21-2.135,1.33-2.555,1.575a1.158,1.158,0,0,0-.665,1.015,1.346,1.346,0,0,0,1.225,1.4c.245,0,.49,0,1.89-.91v3.71c0,1.925.6,3.08,3.08,3.08H230.4V-.98c0,.735-.21,1.05-.735,1.155-.35.07-1.925,0-2.31,0s-1.26,0-1.26,1.155a1.262,1.262,0,0,0,.7,1.225c.28.1.315.14,2.1.14,3.115,0,4.375,0,4.375-3.29V-4.83h4.375c2.625,0,3.08-1.33,3.08-3.08Zm-15.015.035c0-.735.315-1.155,1.12-1.155h10.08a1.021,1.021,0,0,1,1.155,1.155v1.05H225.715Zm1.645-3.115a24.855,24.855,0,0,0,3.255-4.235h2.73a16.233,16.233,0,0,0,3.43,4.235ZM238.07-9.1v1.12a1.007,1.007,0,0,1-1.155,1.155h-10.08c-.8,0-1.12-.42-1.12-1.155V-9.1ZM216.58-23.03v9.73a36.973,36.973,0,0,1-4.13,2.415,1.334,1.334,0,0,0-.84,1.26c0,.56.28,1.61,1.19,1.61.84,0,2.59-1.4,3.675-2.275-.525,5.145-1.68,7-3.78,10.255a2.073,2.073,0,0,0-.455,1.155,1.555,1.555,0,0,0,1.505,1.435c.56,0,.945-.105,2.275-2.275,3.255-5.32,3.255-11.375,3.255-14.84v-8.225a1.392,1.392,0,0,1,1.575-1.575h22.33c.525,0,1.4-.07,1.4-1.225s-1.015-1.19-1.4-1.19H231.56V-28.49c0-1.05-.665-1.3-1.505-1.3-1.19,0-1.4.735-1.4,1.3v1.715h-8.33C217.7-26.775,216.58-25.865,216.58-23.03Zm-3.36-.91a1.32,1.32,0,0,0-1.33,1.19,2.524,2.524,0,0,0,.245.945c.525,1.33.7,1.645.945,2.415.84,2.45.84,2.555,1.575,2.555.49,0,1.575-.28,1.575-1.3a26.833,26.833,0,0,0-1.505-4.2C214.235-23.52,213.955-23.94,213.22-23.94ZM226.87-2.52a1.324,1.324,0,0,0-1.26-1.365c-.42,0-.455,0-1.96,1.085a22.32,22.32,0,0,1-3.325,1.925c-1.75.84-1.89.91-1.89,1.575a1.272,1.272,0,0,0,1.225,1.33c.875,0,3.08-1.33,4.095-1.925C224.735-.49,226.87-1.785,226.87-2.52Zm9.485-.07c0,.805,2.1,2.1,3.15,2.73.8.49,3.08,1.82,3.85,1.82A1.46,1.46,0,0,0,244.72.49a.955.955,0,0,0-.7-.945,30.2,30.2,0,0,1-4.9-2.7c-1.085-.8-1.085-.8-1.435-.8A1.351,1.351,0,0,0,236.355-2.59ZM261.94-7.63H251.475a1.183,1.183,0,0,0-1.365,1.26,1.181,1.181,0,0,0,1.365,1.3H261.94V-.91H248.71A1.261,1.261,0,0,0,247.24.455a1.256,1.256,0,0,0,1.47,1.365h29.575A1.237,1.237,0,0,0,279.72.455,1.237,1.237,0,0,0,278.285-.91h-13.37V-5.075h10.6c.42,0,1.4-.035,1.4-1.26,0-1.19-.84-1.295-1.4-1.295h-10.6v-3.99c5.04-.28,6.055-.315,8.085-.525.28.28,1.61,1.75,1.75,1.855a1.387,1.387,0,0,0,.945.42,1.716,1.716,0,0,0,1.54-1.54c0-.455-.07-.6-1.68-2.2a53.1,53.1,0,0,0-4.655-3.99,2.02,2.02,0,0,0-1.015-.385,1.4,1.4,0,0,0-1.33,1.33,1.056,1.056,0,0,0,.49.91c.245.245,1.435,1.26,1.68,1.47-6.545.35-6.72.35-12.355.525a51.945,51.945,0,0,0,2.8-4.795h12.775c.42,0,1.33-.035,1.33-1.225,0-1.085-.7-1.19-1.33-1.19h-20.86c-.385,0-1.365,0-1.365,1.19s.945,1.225,1.365,1.225h4.9a40.041,40.041,0,0,1-2.87,4.865c-.665,0-4.34.07-4.62.105a1.1,1.1,0,0,0-.84,1.19c0,1.365,1.015,1.365,1.505,1.365.42,0,6.65-.175,10.78-.42Zm2.975-19.145V-28.49c0-.98-.525-1.26-1.575-1.26-1.365,0-1.435.84-1.435,1.26v1.715h-10.01c-2.9,0-3.78.84-3.78,3.815v2.835c0,.98.385,1.47,1.54,1.47a1.266,1.266,0,0,0,1.4-1.435v-2.59c0-1.015.455-1.5,1.47-1.5h21.84a1.308,1.308,0,0,1,1.505,1.5v2.555c0,1.12.525,1.47,1.575,1.47a1.26,1.26,0,0,0,1.4-1.47V-22.96c0-3.045-.91-3.815-3.78-3.815Z" transform="translate(-2208 1228.41)" fill="#f0f0d8"/></g></svg>