<svg xmlns="http://www.w3.org/2000/svg" width="286.488" height="99.995" viewBox="0 0 286.488 99.995"><g transform="translate(2711.304 -1362.517)"><path d="M27.86-29.41a46.874,46.874,0,0,0,7.67-1.153,1.149,1.149,0,0,0,.994-1.272,1.259,1.259,0,0,0-1.232-1.391c-.278,0-3.815.715-4.531.835a132.25,132.25,0,0,1-13.195.954c-.914,0-1.59.079-1.59,1.232,0,1.351.954,1.351,2.146,1.351,1.709,0,4.451-.159,6.677-.318v2.544H15.857c-.914,0-1.51.4-1.51,1.351,0,1.113.835,1.312,1.51,1.312H24.8v2.345H19.792c-2.941,0-3.7.874-3.7,3.736v5.326c0,2.941.795,3.736,3.7,3.736H24.8v2.742H16.454c-.954,0-1.431.4-1.431,1.312,0,.874.517,1.272,1.391,1.272H24.8V-.278H15.778c-.715,0-1.51.278-1.51,1.312,0,1.192,1.073,1.272,1.51,1.272H37c.835,0,1.51-.318,1.51-1.272,0-1.113-.874-1.312-1.51-1.312H27.86V-3.5h8.306C37.2-3.5,37.6-3.974,37.6-4.809c0-.914-.556-1.272-1.431-1.272H27.86V-8.823h5.087c2.981,0,3.736-.874,3.736-3.736v-5.326c0-2.9-.835-3.736-3.736-3.736H27.86v-2.345H36.8c.874,0,1.47-.358,1.47-1.312,0-1.153-.835-1.351-1.47-1.351H27.86ZM19-18.322c0-.676.358-.954.994-.954H24.8v2.941H19Zm.994,7.194A.868.868,0,0,1,19-12.122v-2.106h5.8v3.1Zm7.869-5.206v-2.941h4.888c.636,0,.994.278.994.954v1.987Zm5.882,4.213a.866.866,0,0,1-.994.994H27.86v-3.1h5.882ZM10.81-9.936V-1.55c0,1.391-.636,1.391-2.106,1.391-1.868,0-2.464.2-2.464,1.431,0,1.669,1.192,1.788,2.822,1.788,3.815,0,4.531-.954,4.531-3.736V-28.734c0-2.9-.795-3.736-3.736-3.736H6.717c-2.941,0-3.7.874-3.7,3.736V-13A43.616,43.616,0,0,1,2.067-2.941C1.947-2.305.874.6.874,1.312A1.659,1.659,0,0,0,2.623,2.9c.954,0,1.153-.517,1.788-2.583A41.553,41.553,0,0,0,5.922-9.936ZM5.961-28.416c0-.676.278-.994.954-.994H9.856c.676,0,.954.358.954.994v5.922H5.961ZM10.81-12.8H5.961v-6.836H10.81Zm74.041-9.9c0-2.583-.874-3.338-3.418-3.338H66.888c-2.583,0-3.418.835-3.418,3.338v3.656c0,2.583.874,3.378,3.418,3.378H81.434c2.544,0,3.418-.835,3.418-3.378Zm-18.163.715v-.954a.883.883,0,0,1,.994-.994h13a.868.868,0,0,1,.994.994v.954Zm14.983,3.259a.868.868,0,0,1-.994.994h-13a.868.868,0,0,1-.994-.994v-1.312H81.672ZM76.9-7.392A20.7,20.7,0,0,1,70.266-.6c-2.5,1.47-2.782,1.629-2.782,2.265A1.644,1.644,0,0,0,68.994,3.3c1.431,0,7.869-4.531,11.088-10.691H81.95A1.1,1.1,0,0,1,83.182-6.24a22.814,22.814,0,0,1-.636,4.411C82.109-.159,81.394.079,80.48.119c-.278.04-2.5,0-2.981,0-.835,0-1.828,0-1.828,1.312a1.481,1.481,0,0,0,1.669,1.55c.477.04,1.947.04,2.9.04,1.868,0,3.736-.079,4.729-2.583a26.117,26.117,0,0,0,1.272-7.114c0-2.822-1.709-3.1-3.537-3.1H68.6a21.646,21.646,0,0,0,1.431-1.788H86.8c.676,0,1.47-.238,1.47-1.272,0-1.232-1.232-1.232-1.51-1.232H61.8A1.182,1.182,0,0,0,60.489-12.8,1.206,1.206,0,0,0,61.8-11.565h4.968c-.318.278-1.669,1.788-1.987,2.067a21.693,21.693,0,0,1-3.7,2.5c-1.828.874-1.947.954-1.947,1.669A1.329,1.329,0,0,0,60.37-3.935c.556,0,2.822-.954,5.8-3.458h3.537c-.517.556-1.192,1.351-1.51,1.669a19.558,19.558,0,0,1-5.246,3.577c-2.305,1.033-2.464,1.113-2.464,1.828a1.651,1.651,0,0,0,1.47,1.669A10.439,10.439,0,0,0,64.98,0a25.835,25.835,0,0,0,8.227-7.392Zm-19.991-9.5c0,.556,0,.835-.04,2.067a37.653,37.653,0,0,1-4.014,2.265c-1.749.874-2.027,1.033-2.027,1.947,0,.795.437,1.788,1.351,1.788.636,0,1.391-.437,4.451-2.5A23.71,23.71,0,0,1,52.381.2a1.736,1.736,0,0,0-.437,1.113c0,1.073,1.192,1.629,1.868,1.629s1.232-.4,2.5-2.583c3.7-6.438,3.736-13.751,3.736-17.368v-9.141c0-1.192.517-1.788,1.749-1.788h24.72c.477,0,1.629,0,1.629-1.391s-1.192-1.391-1.629-1.391H73.406v-1.669c0-.795-.358-1.351-1.709-1.351-1.669,0-1.709.914-1.709,1.351v1.669H61.125c-2.981,0-4.213,1.033-4.213,4.213ZM52.938-27.145c-.477,0-1.51.4-1.51,1.351a2.244,2.244,0,0,0,.278,1.033c.6,1.391,1.312,3.06,1.47,3.537.556,1.59.676,2.027,1.669,2.027a1.447,1.447,0,0,0,1.55-1.391,15.19,15.19,0,0,0-1.192-3.5C54.011-26.787,53.892-27.145,52.938-27.145Zm63.311,7.551,14.149-.914c.556-.04.795-.04.795.238,0,.358-1.709,2.981-4.332,5.8-1.868,1.947-1.908,2.027-1.908,2.623a1.749,1.749,0,0,0,1.788,1.59c1.033,0,2.305-1.51,3.418-2.782,2.027-2.385,5.8-7.154,5.8-8.942,0-2.186-2.226-2.027-3.776-1.947l-15.937.954v-8.108c0-.676-.079-1.749-1.788-1.749-1.749,0-1.788,1.192-1.788,1.749v8.306l-8.187.517c-.874.04-1.749.318-1.749,1.669a1.607,1.607,0,0,0,1.947,1.749l7.988-.517V-6.12c0,6.558,4.014,7.154,10.969,7.154.994,0,5.087-.04,9.538-.238,1.073-.04,2.305-.238,2.305-1.908a1.56,1.56,0,0,0-1.749-1.709c-.358,0-2.067.119-2.464.159-2.583.119-5.127.2-7.71.2-6.081,0-7.313-.318-7.313-4.213Zm68.517-2.385a1.787,1.787,0,0,0-1.51,1.033,46.257,46.257,0,0,1-5.961,7.194,42.365,42.365,0,0,1-18.719,10.77c-2.544.636-3.179.795-3.179,2.067a2.046,2.046,0,0,0,1.947,2.146c.874,0,8.426-1.629,16.374-7.194C181.825-11.6,186.753-19,186.753-20.15A2.047,2.047,0,0,0,184.766-21.978Zm-27.383-7.591a1.932,1.932,0,0,0-1.947,1.868c0,.795.556,1.153,1.153,1.431,6.4,2.742,6.478,2.782,8.346,3.895a4.257,4.257,0,0,0,1.868.755,1.974,1.974,0,0,0,1.749-2.027c0-.795,0-1.391-5.326-3.815A27.52,27.52,0,0,0,157.383-29.569Zm60.37-.159c-3.418,0-3.656.2-5.206,2.862a31.062,31.062,0,0,1-7.154,8.624c-.994.835-1.431,1.192-1.431,1.947a1.965,1.965,0,0,0,1.828,1.828c1.153,0,3.935-2.822,5.246-4.332a97.933,97.933,0,0,1,12.638,8.028,32.415,32.415,0,0,1-12.8,8.9c-1.47.556-2.385.914-2.385,1.987A1.856,1.856,0,0,0,210.2,1.987c.994,0,7.949-2.464,13.632-7.829a35.352,35.352,0,0,0,10.492-20.865c0-3.02-2.782-3.02-3.815-3.02Zm10.969,3.338c.755,0,1.669,0,1.669,1.073a19.053,19.053,0,0,1-.954,4.213,31.3,31.3,0,0,1-3.656,7.472,101.727,101.727,0,0,0-12.638-7.71c.477-.676,2.5-3.815,2.941-4.372a1.7,1.7,0,0,1,1.59-.676Zm26.032,9.459a1.571,1.571,0,0,0-1.828,1.749,1.572,1.572,0,0,0,1.828,1.709h30.6a1.561,1.561,0,0,0,1.828-1.669,1.571,1.571,0,0,0-1.828-1.788Z" transform="translate(-2712 1427.521)" fill="#f0f0d8"/><path d="M9.419-.914c-.974.079-1.371.119-1.371.815,0,.437.159.874.815.874A82.355,82.355,0,0,0,17.229-.417c.04.159.3,1.57.318,1.629.079.278.258.437.676.437a.863.863,0,0,0,.934-.874A37.919,37.919,0,0,0,17.01-7.233c-.477-1.212-.6-1.371-1.053-1.371a.765.765,0,0,0-.854.715,15.709,15.709,0,0,0,.755,2.245c.219.556.854,2.762,1.073,3.776-1.53.3-4.908.715-5.922.835a102.438,102.438,0,0,0,2.7-15.023.8.8,0,0,0-.874-.854c-.795,0-.795.3-.974,2.146-.079.914-.537,4.531-1.351,8.883C10.055-3.5,9.876-2.722,9.419-.914ZM1.53-16.315a.712.712,0,0,0-.835.735.717.717,0,0,0,.835.755H5.7a.6.6,0,0,1,.676.676V-12.2a.606.606,0,0,1-.676.7H3.219c-.676,0-1.431.04-1.729,1.013-.04.159-.437,3.14-.437,3.358,0,1.53,1.331,1.53,1.828,1.53H5.862c.616,0,.616.417.616.7a24.794,24.794,0,0,1-.338,3.8C5.942-.1,5.405-.1,4.809-.1c-.5,0-1.788-.04-1.987-.04a.715.715,0,0,0-.815.795.82.82,0,0,0,.437.795c.159.06.238.079,1.709.079,2.007,0,2.961,0,3.378-1.47a31.332,31.332,0,0,0,.537-5.5c0-1.232-.6-1.669-1.868-1.669H3.179c-.159,0-.477,0-.477-.457,0-.219.258-1.987.278-2.067a.5.5,0,0,1,.576-.417H6.1c1.312,0,1.848-.457,1.848-1.828v-2.6c0-1.371-.537-1.828-1.848-1.828ZM34.517-3.14V-.795a.576.576,0,0,1-.556.676c-.139,0-1.013-.02-1.192-.02-.318,0-.815,0-.815.755,0,.874.656.874,1.033.874,1.828,0,1.908,0,2.265-.119.795-.278.835-1.073.835-1.729V-9.379c0-1.49-.457-1.868-1.868-1.868H30.5c-1.451,0-1.868.4-1.868,1.868V.835c0,.517.179.835.795.835.715,0,.795-.477.795-.835V-3.14Zm-4.292-6c0-.417.179-.636.636-.636h3.02a.559.559,0,0,1,.636.636v1.272H30.225Zm4.292,4.63H30.225V-6.518h4.292Zm.219-9.8a14.093,14.093,0,0,0-1.053-1.908.94.94,0,0,0-.835-.556c-.4,0-.994.258-.994.616a1.189,1.189,0,0,0,.119.5c.079.2.636,1.133.735,1.351H28.1a.678.678,0,0,0-.795.735.69.69,0,0,0,.795.755H45.268a.683.683,0,0,0,.795-.755.684.684,0,0,0-.795-.735H40.856c.775-1.252.874-1.47.874-1.749,0-.616-.676-.735-1.013-.735-.556,0-.715.318-.974.835-.556,1.113-.616,1.232-.854,1.649ZM40-10.492c0-.576-.258-.775-.874-.775a.68.68,0,0,0-.775.775V-2.6c0,.576.258.795.874.795A.683.683,0,0,0,40-2.6Zm4.769-.477c0-.636-.278-.795-.874-.795-.735,0-.775.5-.775.795v9.916c0,.854-.537.894-.954.894-.278,0-1.629-.02-1.928-.02-.278,0-.775.04-.775.795a.857.857,0,0,0,.417.815,10.272,10.272,0,0,0,1.629.079c1.57,0,2.067,0,2.524-.278a2,2,0,0,0,.735-1.848Zm17.487.795A12.313,12.313,0,0,1,54.885-.258c-.4.2-.636.378-.636.815a.936.936,0,0,0,.854.974c.556,0,2.722-1.272,4.272-2.663A14.19,14.19,0,0,0,63.45-7.75,14.506,14.506,0,0,0,67.6-1.093C69.014.2,71.021,1.47,71.6,1.47a1,1,0,0,0,.914-.994c0-.437-.258-.616-.616-.795-5.445-2.8-6.657-6.438-7.432-9.856h7.392c.4,0,.874-.119.874-.835a.758.758,0,0,0-.874-.815h-7.73v-4.094c0-.6-.278-.835-.934-.835a.734.734,0,0,0-.835.835v4.094H54.885c-.417,0-.894.119-.894.835a.772.772,0,0,0,.894.815ZM85.17-13.552c.537-.139.7-.457.7-.715a4.821,4.821,0,0,0-.7-1.51c-.437-.715-.636-1.013-1.093-1.013-.417,0-.914.278-.914.7a1.126,1.126,0,0,0,.2.517c.079.119.517.835.6.994.477.854.517.954.755,1.033H83.56c-1.49,0-2.126.5-2.126,2.106V-9.8c0,.616.278.815.894.815.775,0,.795-.556.795-.835v-1.47a.744.744,0,0,1,.835-.854H96.3c.576,0,.835.278.835.854v1.47c0,.537.2.815.894.815.795,0,.795-.556.795-.815v-1.629c0-.815-.079-2.106-1.928-2.106H95.861a9.026,9.026,0,0,0,1.272-2.5c0-.556-.616-.755-.934-.755-.457,0-.537.179-.994,1.113a19.726,19.726,0,0,1-1.153,2.146Zm5.942,8.207v-.417a26.94,26.94,0,0,0,2.822-1.55c1.073-.7,1.749-1.192,1.749-1.987,0-.994-.874-.994-1.55-.994H84.752a.691.691,0,0,0-.775.735.657.657,0,0,0,.755.735h7.929c.258,0,.4,0,.4.179A9.672,9.672,0,0,1,90.2-6.876c-.576-.079-.795.219-.795.616v.914h-7.73a.714.714,0,0,0-.835.755.717.717,0,0,0,.835.755H89.4v2.683c0,.894-.457.994-1.053.994-.06,0-2.007-.04-2.047-.04A.7.7,0,0,0,85.488.6a1.029,1.029,0,0,0,.358.795c.179.119.417.119,1.093.119h2.027c1.629,0,2.146-.6,2.146-2.146v-3.2h7.372c.278,0,.835-.02.835-.755a.71.71,0,0,0-.835-.755ZM89.382-16.97c-.219,0-.854.2-.854.7,0,.179.06.3.6,1.292.656,1.192.676,1.272,1.113,1.272.238,0,.914-.119.914-.735a5.231,5.231,0,0,0-.775-1.749C89.959-16.891,89.879-16.97,89.382-16.97ZM118.474-7.81a8.779,8.779,0,0,0,.159-1.57v-1.192h4.69a.669.669,0,0,0,.775-.715.66.66,0,0,0-.775-.7h-8.088c.477-.994.517-1.093.517-1.312a.766.766,0,0,0-.835-.735.739.739,0,0,0-.676.537,11.271,11.271,0,0,1-2.007,3.219c-.715.775-.795.854-.795,1.113a.92.92,0,0,0,.874.835.955.955,0,0,0,.656-.358,11.258,11.258,0,0,0,1.451-1.888h2.663V-9.34a11.459,11.459,0,0,1-.139,1.53h-5.306c-.338,0-.755.06-.755.715,0,.7.517.7.755.7h4.829a7.133,7.133,0,0,1-4.789,3.8c-.318.1-.616.219-.616.656,0,.278.179.894.775.894A8.712,8.712,0,0,0,117.9-6c1.471,3.179,5.7,4.968,6.359,4.968.636,0,.795-.656.795-.934a.536.536,0,0,0-.278-.537c-.119-.06-.755-.3-.914-.338a9.163,9.163,0,0,1-4.57-3.557h4.968c.219,0,.755,0,.755-.7a.651.651,0,0,0-.755-.715ZM111-16.017c-1.868,0-2.583.656-2.583,2.583V-1.312c0,1.947.755,2.563,2.583,2.563h14.188A.71.71,0,0,0,126.026.5a.712.712,0,0,0-.835-.735H111.2c-.835,0-1.133-.437-1.133-1.153V-13.374c0-.755.338-1.153,1.133-1.153h13.592c.219,0,.835,0,.835-.735a.717.717,0,0,0-.835-.755Zm27.622,2.464c.537-.139.7-.457.7-.715a4.821,4.821,0,0,0-.7-1.51c-.437-.715-.636-1.013-1.093-1.013-.417,0-.914.278-.914.7a1.126,1.126,0,0,0,.2.517c.079.119.517.835.6.994.477.854.517.954.755,1.033h-1.153c-1.49,0-2.126.5-2.126,2.106V-9.8c0,.616.278.815.894.815.775,0,.795-.556.795-.835v-1.47a.744.744,0,0,1,.835-.854h12.34c.576,0,.835.278.835.854v1.47c0,.537.2.815.894.815.795,0,.795-.556.795-.815v-1.629c0-.815-.079-2.106-1.928-2.106h-1.033a9.026,9.026,0,0,0,1.272-2.5c0-.556-.616-.755-.934-.755-.457,0-.537.179-.994,1.113a19.726,19.726,0,0,1-1.153,2.146Zm5.942,8.207v-.417a26.94,26.94,0,0,0,2.822-1.55c1.073-.7,1.749-1.192,1.749-1.987,0-.994-.874-.994-1.55-.994h-9.379a.691.691,0,0,0-.775.735.657.657,0,0,0,.755.735h7.929c.258,0,.4,0,.4.179a9.672,9.672,0,0,1-2.862,1.769c-.576-.079-.795.219-.795.616v.914h-7.73a.714.714,0,0,0-.835.755.717.717,0,0,0,.835.755h7.73v2.683c0,.894-.457.994-1.053.994-.06,0-2.007-.04-2.047-.04a.7.7,0,0,0-.815.795,1.029,1.029,0,0,0,.358.795c.179.119.417.119,1.093.119h2.027c1.629,0,2.146-.6,2.146-2.146v-3.2h7.372c.278,0,.835-.02.835-.755a.71.71,0,0,0-.835-.755ZM142.837-16.97c-.219,0-.854.2-.854.7,0,.179.06.3.6,1.292.656,1.192.676,1.272,1.113,1.272.238,0,.914-.119.914-.735a5.231,5.231,0,0,0-.775-1.749C143.413-16.891,143.334-16.97,142.837-16.97Zm19.454,2.285a.707.707,0,0,0-.815.715.7.7,0,0,0,.815.735h.7a25.99,25.99,0,0,1,.775,3.974h-1.967a.657.657,0,0,0-.755.735c0,.735.537.735.775.735h9.121c.238,0,.775,0,.775-.715,0-.7-.457-.755-.775-.755h-2.106a39.21,39.21,0,0,0,.974-3.974h.715a.692.692,0,0,0,.795-.715.7.7,0,0,0-.795-.735H167.2v-1.47c0-.2,0-.735-.775-.735-.576,0-.874.179-.874.735v1.47Zm5.922,1.451A31.813,31.813,0,0,1,167.3-9.26h-2.007a40.1,40.1,0,0,0-.795-3.974ZM164.3-5.922c-1.689,0-2.146.477-2.146,2.146V-.815c0,1.689.477,2.166,2.146,2.166h4.094c1.709,0,2.146-.517,2.146-2.166V-3.776c0-1.709-.5-2.146-2.146-2.146Zm4.67,4.968a.75.75,0,0,1-.854.854H164.6a.75.75,0,0,1-.854-.854v-2.7c0-.676.358-.874.854-.874h3.517c.537,0,.854.238.854.874Zm4.809-13.115c0-.4.159-.656.636-.656h2.146c.238,0,.636,0,.636.4a22.388,22.388,0,0,1-1.888,4.153,1.991,1.991,0,0,0-.238.835c0,.457.04.5,1.192,1.769a5.625,5.625,0,0,1,1.51,3.478c0,.815-.278,2.186-1.788,2.186-.119,0-.775-.04-.914-.04-.537,0-.676.318-.676.755,0,.755.4.815.576.854.179.02,1.272.02,1.57,0,2.583-.139,2.9-2.583,2.9-3.5a6.115,6.115,0,0,0-.894-3.14,7.884,7.884,0,0,0-1.689-2.087.538.538,0,0,1-.2-.378.75.75,0,0,1,.1-.318c.656-1.192.715-1.312,1.073-2.087.954-2.067,1.033-2.464,1.033-2.981,0-1.431-1.153-1.431-2.067-1.431h-2.782c-1.471,0-1.868.437-1.868,1.868V.954c0,.6.238.835.854.835a.71.71,0,0,0,.775-.835Zm16.116-.04c0-.4.179-.636.656-.636h1.192c.159,0,.537,0,.537.417a15.22,15.22,0,0,1-.974,2.921c-.4.934-.477,1.113-.477,1.411,0,.358.06.457.6,1.312a5.39,5.39,0,0,1,1.013,3.219c0,1.411-.6,1.411-1.669,1.411-.338,0-.537.219-.537.636,0,.934.517.934,1.033.934,1.093,0,2.742,0,2.742-2.643a7.31,7.31,0,0,0-1.391-4.193c-.3-.417-.338-.556-.338-.735,0-.219.079-.378.616-1.669a10.749,10.749,0,0,0,.994-3.259c0-1.292-1.053-1.292-1.828-1.292h-1.828c-1.49,0-1.868.417-1.868,1.848V.954c0,.477.159.815.775.815.715,0,.755-.5.755-.815ZM195.537.974a.72.72,0,0,0,.775.835c.755,0,.795-.537.795-.835V-12.281a16.094,16.094,0,0,0,1.153-3.875c0-.556-.556-.656-.854-.656-.576,0-.7.338-.775.755a16.272,16.272,0,0,1-2.285,5.365c-.06.1-.874,1.192-.874,1.232a.7.7,0,0,0-.1.4.929.929,0,0,0,.854.974c.3,0,.537-.1,1.312-1.252Zm9.2-11.983h.815c.318,0,.715-.1.715-.795,0-.656-.4-.775-.715-.775h-.815v-3.478c0-.278-.02-.795-.815-.795-.815,0-.815.556-.815.795v3.478H198.5c-.318,0-.775.06-.775.795,0,.775.537.775.775.775h4.61v9.936c0,.676-.238.874-.775.914-.139.02-.815,0-.954,0-.755,0-1.312,0-1.312.755,0,.278.1.735.477.835a10.134,10.134,0,0,0,1.59.079c1.53,0,2.6-.06,2.6-2.126Zm-5.644,2.186a.748.748,0,0,0-.795.676,6.1,6.1,0,0,0,.517,1.272,18.237,18.237,0,0,1,.974,2.345c.358,1.073.417,1.192.874,1.192.3,0,.914-.139.914-.755a14.535,14.535,0,0,0-1.133-2.921C199.59-8.8,199.471-8.823,199.094-8.823ZM224.609-1.57c-.477.02-2.563.119-3.06.179-.238.02-.7.06-.7.6,0,.676.576.676.795.676.477,0,5.047-.437,6.637-.656.318.735.358.795.676.795a.579.579,0,0,0,.616-.556,6.913,6.913,0,0,0-.934-2.106c-.159-.3-.3-.378-.517-.378-.159,0-.576.079-.576.477,0,.2.06.3.238.7-.576.079-.755.1-1.649.159V-3.438h4.014a.591.591,0,0,1,.676.676V-.6a.592.592,0,0,1-.676.676c-.179,0-1.093-.04-1.292-.04a.64.64,0,0,0-.735.676c0,.795.616.795,1.033.795a8.813,8.813,0,0,0,2.424-.119c.795-.258.854-1.053.854-1.749v-2.4c0-1.451-.417-1.848-1.868-1.848h-4.431V-5.783h4.113c1.053,0,1.431-.258,1.431-1.411v-.735c0-1.133-.358-1.411-1.431-1.411h-4.113v-1.013c2.146-.1,3.04-.159,3.855-.238,1.113-.119,1.411-.159,1.411-.676a.561.561,0,0,0-.576-.636c-.2,0-1.61.179-1.928.2-3,.258-6.021.278-9.061.3-.378,0-.775,0-.775.6s.457.6.954.6c.854,0,4.193-.079,4.59-.079v.954h-3.935c-1.133,0-1.431.318-1.431,1.411v.735c0,1.153.358,1.411,1.431,1.411h3.935V-4.61h-4.272c-1.471,0-1.868.417-1.868,1.848V.914c0,.4.079.775.795.775s.775-.437.775-.775V-2.762a.591.591,0,0,1,.676-.676h3.895ZM221.231-6.9c-.318,0-.477-.139-.477-.477v-.4a.422.422,0,0,1,.477-.477h3.378V-6.9Zm4.908-1.351h3.537a.428.428,0,0,1,.477.477v.4a.421.421,0,0,1-.477.477h-3.537Zm-8.465-4.173H230.61c1.172,0,1.471-.338,1.471-1.451v-.795c0-1.153-.318-1.47-1.471-1.47H217.932c-1.451,0-1.848.417-1.848,1.868v5.922a32.546,32.546,0,0,1-.238,3.378,16.181,16.181,0,0,1-1.312,4.789,1.482,1.482,0,0,0-.159.636.913.913,0,0,0,.914.835c.417,0,.616-.179,1.053-1.292a26.319,26.319,0,0,0,1.331-8.386Zm0-1.828a.557.557,0,0,1,.636-.636h11.665c.358,0,.5.179.5.477v.3a.434.434,0,0,1-.5.5h-12.3ZM256.6-7.015a.592.592,0,0,1,.676.676V-.616c0,.7-.417.715-.755.715-.04,0-1.093-.04-1.292-.02a.612.612,0,0,0-.676.7.681.681,0,0,0,.537.715c.179.04,1.013.04,1.53.04,1.51,0,2.226-.06,2.226-1.868v-6.18c0-1.391-.537-1.828-1.828-1.828h-3.7c.04-.318.159-1.749.159-2.067h5.266c.2,0,.815,0,.815-.7,0-.676-.517-.715-.815-.715H247.024c-.238,0-.815.02-.815.715,0,.576.378.7.815.7h4.908c0,.2-.02,1.153-.1,2.067h-3.12c-1.312,0-1.828.477-1.828,1.828V.854a.7.7,0,0,0,.755.815c.556,0,.815-.2.815-.815V-6.339c0-.477.238-.676.7-.676h2.484a6.4,6.4,0,0,1-2.663,4.133.679.679,0,0,0-.338.556.893.893,0,0,0,.775.835c.517,0,2.325-1.371,3.319-4.133a10.378,10.378,0,0,0,2.087,2.981c.378.378,1.113,1.053,1.51,1.053a.761.761,0,0,0,.755-.715c0-.258-.02-.278-.854-.954a7.157,7.157,0,0,1-2.663-3.756ZM244.142-8.207c0,.219-.02.656-.02.815a24.679,24.679,0,0,1-2.345,1.133c-.676.3-.854.378-.854.854,0,.278.159.914.7.914a10.717,10.717,0,0,0,2.345-1.153A11.366,11.366,0,0,1,241.718.02a1,1,0,0,0-.278.636.912.912,0,0,0,.914.835c.278,0,.5,0,1.292-1.212a15.54,15.54,0,0,0,2.067-8.286v-4.65a.781.781,0,0,1,.894-.894h12.161c.517,0,.795-.179.795-.775,0-.7-.576-.7-.795-.7H252.19v-1.053c0-.6-.338-.735-.894-.735-.616,0-.835.238-.835.735v1.053h-4.213c-1.51,0-2.106.517-2.106,2.106Zm-2.126-5.266a.78.78,0,0,0-.795.7,1.4,1.4,0,0,0,.159.517c.258.556.636,1.391.795,1.828.338.874.4.994.795.994a.854.854,0,0,0,.894-.735,8.1,8.1,0,0,0-.775-1.947C242.513-13.334,242.453-13.473,242.016-13.473Zm38.948-1.391v-1.312c0-.3-.079-.735-.795-.735-.795,0-.795.556-.795.735v1.312H276.2c-1.252,0-1.828.4-1.828,1.828v1.59c0,.338.06.835.795.835a.716.716,0,0,0,.775-.835v-1.312a.559.559,0,0,1,.636-.636h7.114a.565.565,0,0,1,.636.636v1.312c0,.437.119.815.795.815.755,0,.775-.537.775-.815v-1.59c0-1.411-.556-1.828-1.828-1.828Zm2.5,5.047c.238,0,.775,0,.775-.715s-.537-.715-.775-.715h-6.577a.659.659,0,0,0-.775.715.659.659,0,0,0,.775.715ZM268.485.934c0,.318.04.835.775.835.676,0,.775-.417.775-.835V-14.109c0-.417.179-.656.636-.656H271.9c.2,0,.517,0,.517.417a17.041,17.041,0,0,1-.974,2.842c-.417,1.053-.477,1.172-.477,1.391a1.407,1.407,0,0,0,.318.815,6.575,6.575,0,0,1,1.272,3.8c0,1.391-.477,1.391-1.252,1.391-.537,0-.894,0-.894.795,0,.715.517.854.954.854a3.2,3.2,0,0,0,1.749-.258,2.617,2.617,0,0,0,.994-2.444A7.527,7.527,0,0,0,272.7-9.439c-.278-.378-.378-.517-.378-.7a4.967,4.967,0,0,1,.517-1.312,11.178,11.178,0,0,0,1.113-3.537c0-1.312-.954-1.312-1.928-1.312h-1.669c-1.451,0-1.868.378-1.868,1.848ZM282.256-6.26h3.338c.238,0,.835,0,.835-.755a.71.71,0,0,0-.835-.755H274.864a.724.724,0,0,0-.854.755.724.724,0,0,0,.854.755h2.4c-.079,4.292-1.312,5.246-3.617,6.3-.358.159-.616.3-.616.715a.87.87,0,0,0,.795.894A5.9,5.9,0,0,0,276.295.4c2.106-1.689,2.464-3.935,2.524-6.657h1.868V-.278c0,1.788.7,1.868,2.265,1.868,2.047,0,2.444,0,2.8-.477a6.652,6.652,0,0,0,.616-2.921.689.689,0,0,0-.775-.795.577.577,0,0,0-.6.338c-.06.219-.159,1.331-.219,1.59-.139.735-.139.735-1.331.735-.894,0-1.192,0-1.192-.7Z" transform="translate(-2712 1379.488)" fill="#f0f0d8"/><path d="M2.523,5.793c-.874.119-1.311.179-1.311.874,0,.378.159.894.735.894.258,0,3.318-.5,3.934-.6a33.525,33.525,0,0,1-3.5,8.743c-.378.616-.5.795-.5,1.113,0,.616.676.835,1.013.835.536,0,1.013-.914,1.53-1.888a39.87,39.87,0,0,0,3.259-9c.3,0,.676-.04.974-.04,2.424,0,2.742,1.272,2.742,3.537a13.906,13.906,0,0,1-.616,4.471c-.179.437-.576,1.192-2.444,1.192-.139,0-.815-.079-.974-.079-.5,0-.676.457-.676.835,0,.7.437.954,1.908.954,3.139,0,4.53-1.55,4.53-7.312,0-2.643-.258-5.365-5.047-5.166.2-.994.676-3.12.676-3.656,0-.5-.477-.7-.934-.7-.755,0-.815.5-.894.934-.258,1.649-.3,1.848-.656,3.557ZM14.922,1a.807.807,0,0,0-.894.775c0,.159.04.3.318.576a11.825,11.825,0,0,1,1.669,1.908c.417.616.517.735.854.735a.791.791,0,0,0,.775-.795c0-.258-.06-.437-.735-1.292C16.333,2.2,15.4,1.084,14.922,1ZM13.094,3.389a.791.791,0,0,0-.815.715c0,.258.04.278.7.974A12.643,12.643,0,0,1,16.075,11c.179.755.258,1.073.835,1.073.179,0,.994-.079.994-.854a12.865,12.865,0,0,0-2.027-5.047C15.34,5.336,13.849,3.389,13.094,3.389ZM17.307-.645a.8.8,0,0,0-.894.775c0,.159.02.3.3.576A10.948,10.948,0,0,1,18.4,2.614c.417.6.517.735.854.735a.805.805,0,0,0,.775-.795c0-.258-.06-.437-.735-1.292C18.718.528,17.784-.585,17.307-.645ZM26.526,9.37c.437-.854,1.828-3.557,3.5-6.7.437-.815.437-.914.437-1.073a.937.937,0,0,0-.954-.775c-.477,0-.656.3-1.133,1.252-1.888,3.755-4.868,9.8-6.756,13.551-.258.536-.318.636-.318.914a.907.907,0,0,0,.954.795c.318,0,.477-.139.755-.616.278-.517,1.49-3.06,1.808-3.616,2.086-3.8,4.61-3.855,5.047-3.855a1.144,1.144,0,0,1,1.272,1.212c0,.6-.5,3.5-.5,4.153a2.737,2.737,0,0,0,3,2.961c3.676,0,5.246-4.391,5.246-4.928a.871.871,0,0,0-.914-.795c-.437,0-.536.219-.854.954-1.093,2.5-2.4,3.1-3.378,3.1a1.239,1.239,0,0,1-1.391-1.292c0-.318.139-1.232.258-2.166.139-.934.258-1.868.258-2.206A2.461,2.461,0,0,0,30.2,7.621,5.574,5.574,0,0,0,26.526,9.37Zm24.42-2.762c-.079,3.219-.358,6.974-4.55,9.7-.7.457-.795.517-.795.874a.967.967,0,0,0,.954.954c.656,0,2.543-1.331,3.815-2.961,2.166-2.782,2.285-5.623,2.424-8.564h4.65a.762.762,0,0,0,.854-.874.767.767,0,0,0-.854-.854H46.536A15.046,15.046,0,0,0,47.847,1.66c0-.457-.517-.735-1.013-.735-.477,0-.656.278-.815.676a27.066,27.066,0,0,1-3.636,6.656c-.854,1.093-.934,1.192-.934,1.411a.964.964,0,0,0,.954.874,1.3,1.3,0,0,0,.934-.6,23.5,23.5,0,0,0,2.285-3.338ZM54.205-.148a.591.591,0,0,0-.238-.04.8.8,0,0,0-.835.775c0,.179.119.318.358.7A10.531,10.531,0,0,1,54.543,3.27c.278.7.378.934.835.934a.824.824,0,0,0,.795-.795C56.172,2.992,54.841.11,54.205-.148ZM57.5-.6a.55.55,0,0,0-.258-.06.791.791,0,0,0-.815.735c0,.2.06.3.338.715a11.35,11.35,0,0,1,1.013,2.027c.278.715.378.934.835.934a.81.81,0,0,0,.795-.795C59.411,2.495,58.1-.366,57.5-.6Zm5.742,18.181c.536,0,4.928-1.987,8.266-5.842a22.386,22.386,0,0,0,4.828-9.6c0-.616-.676-.854-1.033-.854-.616,0-.735.477-1.013,1.451a20.277,20.277,0,0,1-10.511,12.7c-1.431.715-1.51.755-1.51,1.192A.963.963,0,0,0,63.246,17.576Zm18.877-2.6c-.477.06-.954.119-.954.815,0,.1,0,.934.795.934.119,0,.159-.02.5-.06L95.4,14.834c.5.974.536,1.093.993,2.106.159.318.318.656.795.656a.948.948,0,0,0,.993-.835c0-.6-1.55-3.676-3.358-6.5C93.349,8,93.19,8,92.813,8a.85.85,0,0,0-.914.795,1.466,1.466,0,0,0,.378.835,36.392,36.392,0,0,1,2.3,3.676l-8.663,1.172c1.331-2.941,4.809-11.942,4.809-12.637,0-.517-.676-.775-1.093-.775-.536,0-.6.159-1.053,1.51-.5,1.49-2.126,6.239-4.689,12.16ZM111.51,9.191a8.778,8.778,0,0,0,.159-1.57V6.429h4.689a.669.669,0,0,0,.775-.715.66.66,0,0,0-.775-.7h-8.087c.477-.993.517-1.093.517-1.311a.766.766,0,0,0-.835-.735.739.739,0,0,0-.676.536,11.27,11.27,0,0,1-2.007,3.219c-.715.775-.795.854-.795,1.113a.92.92,0,0,0,.874.835.955.955,0,0,0,.656-.358,11.257,11.257,0,0,0,1.451-1.888h2.663V7.661a11.458,11.458,0,0,1-.139,1.53h-5.305c-.338,0-.755.06-.755.715,0,.7.517.7.755.7H109.5a7.132,7.132,0,0,1-4.789,3.8c-.318.1-.616.219-.616.656,0,.278.179.894.775.894A8.711,8.711,0,0,0,110.934,11c1.47,3.179,5.7,4.967,6.358,4.967.636,0,.795-.656.795-.934a.536.536,0,0,0-.278-.536c-.119-.06-.755-.3-.914-.338a9.162,9.162,0,0,1-4.57-3.557h4.967c.219,0,.755,0,.755-.7a.651.651,0,0,0-.755-.715ZM104.039.985c-1.868,0-2.583.656-2.583,2.583V15.689c0,1.947.755,2.563,2.583,2.563h14.187a.75.75,0,1,0,0-1.49H104.238c-.835,0-1.133-.437-1.133-1.152V3.627c0-.755.338-1.152,1.133-1.152h13.591c.219,0,.835,0,.835-.735a.717.717,0,0,0-.835-.755Zm32.865,9.16c1.133.735,1.272.735,1.431.735a.829.829,0,0,0,.775-.854.6.6,0,0,0-.4-.576c-.238-.119-1.351-.7-1.609-.835.358-.378,1.192-1.272,1.192-1.629a.714.714,0,0,0-.715-.616.648.648,0,0,0-.517.278A15.751,15.751,0,0,1,136.05,7.88a9.192,9.192,0,0,1-1.828-1.888h4.034c.477,0,.715-.179.715-.676,0-.636-.477-.636-.715-.636h-6.438a1.906,1.906,0,0,0,.139-.556c0-.437-.536-.6-.815-.6a.579.579,0,0,0-.517.278c-.06.119-.3.735-.358.874h-4.312c-.517,0-.715.219-.715.676,0,.576.457.636.715.636h3.577a9.65,9.65,0,0,1-1.609,1.848c-.477-.5-1.053-1.053-1.133-1.133a.764.764,0,0,0-.517-.258.728.728,0,0,0-.715.636c0,.219.139.338,1.351,1.57-.2.119-1.212.755-1.451.894a.658.658,0,0,0-.378.576.764.764,0,0,0,.7.795c.139,0,.278,0,1.073-.517v2.106c0,1.093.338,1.749,1.749,1.749h2.444v2.186c0,.417-.119.6-.417.656-.2.04-1.093,0-1.311,0s-.715,0-.715.656a.716.716,0,0,0,.4.7c.159.06.179.079,1.192.079,1.768,0,2.484,0,2.484-1.868v-2.4h2.484c1.49,0,1.749-.755,1.749-1.749Zm-8.524.02c0-.417.179-.656.636-.656h5.723a.579.579,0,0,1,.656.656v.6H128.38Zm.934-1.768a14.111,14.111,0,0,0,1.848-2.4h1.55a9.216,9.216,0,0,0,1.947,2.4Zm6.08,3.438v.636a.572.572,0,0,1-.656.656h-5.723c-.457,0-.636-.238-.636-.656v-.636Zm-12.2-7.908V9.449a20.989,20.989,0,0,1-2.345,1.371.757.757,0,0,0-.477.715c0,.318.159.914.676.914.477,0,1.47-.795,2.086-1.292a10.76,10.76,0,0,1-2.146,5.822,1.177,1.177,0,0,0-.258.656.883.883,0,0,0,.854.815c.318,0,.536-.06,1.292-1.292,1.848-3.02,1.848-6.458,1.848-8.425V4.065a.79.79,0,0,1,.894-.894H138.3c.3,0,.795-.04.795-.7s-.576-.676-.795-.676h-6.6V.826c0-.6-.378-.735-.854-.735-.676,0-.795.417-.795.735V1.8H125.32C123.83,1.8,123.194,2.316,123.194,3.926Zm-1.908-.517a.749.749,0,0,0-.755.676,1.433,1.433,0,0,0,.139.536c.3.755.4.934.536,1.371.477,1.391.477,1.451.894,1.451.278,0,.894-.159.894-.735a15.234,15.234,0,0,0-.854-2.384C121.863,3.647,121.7,3.409,121.286,3.409Zm7.749,12.16a.752.752,0,0,0-.715-.775c-.238,0-.258,0-1.113.616A12.672,12.672,0,0,1,125.32,16.5c-.993.477-1.073.517-1.073.894a.722.722,0,0,0,.7.755,8.11,8.11,0,0,0,2.325-1.093C127.824,16.722,129.036,15.987,129.036,15.569Zm5.385-.04c0,.457,1.192,1.192,1.788,1.55a8.049,8.049,0,0,0,2.186,1.033.829.829,0,0,0,.775-.835.542.542,0,0,0-.4-.536,17.143,17.143,0,0,1-2.782-1.53c-.616-.457-.616-.457-.815-.457A.767.767,0,0,0,134.421,15.53Zm14.565-2.861h-5.941a.727.727,0,1,0,0,1.451h5.941v2.365h-7.511a.777.777,0,1,0,0,1.55h16.79a.776.776,0,1,0,0-1.55h-7.59V14.119h6.021c.238,0,.795-.02.795-.715,0-.676-.477-.735-.795-.735h-6.021V10.4c2.861-.159,3.438-.179,4.59-.3.159.159.914.993.993,1.053a.788.788,0,0,0,.536.238.974.974,0,0,0,.874-.874c0-.258-.04-.338-.954-1.252a30.143,30.143,0,0,0-2.643-2.265,1.147,1.147,0,0,0-.576-.219.8.8,0,0,0-.755.755.6.6,0,0,0,.278.517c.139.139.815.715.954.835-3.716.2-3.815.2-7.014.3a29.494,29.494,0,0,0,1.59-2.722H155.8c.238,0,.755-.02.755-.7,0-.616-.4-.676-.755-.676H143.958c-.219,0-.775,0-.775.676s.536.7.775.7h2.782a22.732,22.732,0,0,1-1.629,2.762c-.378,0-2.464.04-2.623.06a.623.623,0,0,0-.477.676c0,.775.576.775.854.775.238,0,3.775-.1,6.12-.238ZM150.674,1.8V.826c0-.556-.3-.715-.894-.715-.775,0-.815.477-.815.715V1.8h-5.683c-1.649,0-2.146.477-2.146,2.166V5.575c0,.556.219.835.874.835a.718.718,0,0,0,.795-.815V4.124c0-.576.258-.854.835-.854h12.4a.742.742,0,0,1,.854.854V5.575c0,.636.3.835.894.835a.715.715,0,0,0,.795-.835V3.965c0-1.729-.517-2.166-2.146-2.166Z" transform="translate(-2712 1443.983)" fill="#f0f0d8"/></g></svg>